<svg width="261" height="243" viewBox="0 0 261 243" fill="none" xmlns="http://www.w3.org/2000/svg">
<rect x="4.30087" width="128.28" height="26.3367" rx="7" transform="matrix(0.716812 -0.697266 0.716812 0.697266 71.2059 160.442)" fill="black" stroke="black" stroke-width="6"/>
<path d="M98.2851 174.63C105.057 181.218 104.803 192.768 96.91 200.446C89.017 208.124 77.1429 208.371 70.3705 201.783C63.5981 195.196 63.8525 183.645 71.7456 175.968C79.6386 168.29 91.5127 168.042 98.2851 174.63Z" fill="black" stroke="black" stroke-width="6"/>
<path d="M75.8913 157.433C82.6637 164.021 82.4093 175.571 74.5163 183.249C66.6232 190.927 54.7492 191.174 47.9768 184.586C41.2044 177.999 41.4588 166.448 49.3518 158.771C57.2449 151.093 69.1189 150.845 75.8913 157.433Z" fill="black" stroke="black" stroke-width="6"/>
<path d="M180.73 130.45C167.394 142.417 152.571 150.27 139.075 153.468C124.318 156.965 111.69 154.817 103.885 147.226C96.0813 139.635 93.8731 127.35 97.4682 112.996C101.048 98.7013 110.302 82.8767 124.511 69.0547C138.721 55.2326 154.989 46.2316 169.684 42.7491C182.529 39.7051 193.762 40.9383 201.604 46.3157C199.924 47.4984 198.284 49.007 196.788 50.6398C193.801 53.8989 190.963 58.1163 189.045 62.6391C187.137 67.1364 186.042 72.17 186.869 76.9584C187.455 80.3493 188.989 83.5017 191.667 86.1345C188.404 87.7843 185.036 89.9162 181.901 92.3437C177.196 95.9872 172.813 100.452 170.092 105.2C167.378 109.935 166.091 115.403 168.555 120.562C170.512 124.661 174.564 127.97 180.73 130.45Z" fill="black" stroke="black" stroke-width="6"/>
<path d="M256 121.29C256 185.177 200.163 237.58 130.5 237.58C60.8373 237.58 5 185.177 5 121.29C5 57.4031 60.8373 5 130.5 5C200.163 5 256 57.4031 256 121.29Z" stroke="black" stroke-width="10"/>
</svg>
