<svg width="204" height="402" viewBox="0 0 204 402" fill="none" xmlns="http://www.w3.org/2000/svg">
<path d="M132.657 400.346L133.517 401L153 400.673V230.407H134.376L130.079 230.08L126.927 230.407V234.982C126.927 235.244 127.5 237.27 127.787 238.25L126.64 237.597L124.921 236.289L121.77 233.348L120.051 230.407H116.612V231.714L117.758 234.002L120.051 238.904L123.202 242.499V244.46L120.337 243.806L117.185 242.499L113.461 240.538L110.309 239.231L116.612 246.094L126.354 251.976L138.961 256.225L144.691 261.127L144.978 261.78L144.118 262.434L141.826 261.454V262.434L144.978 263.414V265.702L144.404 266.029L142.112 265.702L140.393 263.741L137.815 261.127V264.395L140.393 267.663L142.112 268.643L143.545 269.951L142.685 271.911L138.101 270.931L138.674 271.911L140.393 273.219L143.258 275.179L140.68 276.16H133.23L129.792 274.526L126.067 272.238L121.197 267.99L122.056 270.277L126.927 276.487L130.938 280.082L140.68 284.003L141.253 285.31L137.528 285.637L138.961 286.944L140.68 288.905L138.961 288.579L134.663 285.31L135.236 286.618L140.107 292.173L137.528 294.134L134.376 295.441L129.792 296.095L126.354 294.788L122.629 292.5L118.904 288.579L113.747 281.716L116.326 287.598L120.91 294.134L127.787 300.344L134.949 305.572L131.798 305.899L126.067 304.919L120.337 301.978L113.174 298.383L105.152 292.827L111.169 299.69L129.219 312.109L127.213 313.089L126.354 315.377H131.225L132.084 316.684L129.506 317.337L124.635 320.606L115.18 326.488L105.725 334.331L102 339.56L102.573 342.175L108.59 334.005L113.747 330.737L121.77 326.488L128.36 323.22L133.23 322.566L129.219 325.834H126.64C126.545 326.379 126.411 327.468 126.64 327.468H130.938L135.522 330.083L131.225 330.737L126.067 333.351L134.09 333.678L130.365 335.639L132.657 336.619L130.079 337.6L132.084 338.907L129.792 340.214L135.236 340.541V341.194L126.067 346.75L133.517 346.096L133.803 347.077L130.365 348.711H134.663L135.522 349.691L133.517 350.999L131.225 352.633H135.236L134.376 354.267L132.944 355.901L129.506 356.227L128.073 355.247L126.067 354.92V356.227L128.073 357.208L130.079 358.188L129.219 358.842L128.073 360.149H129.219L131.225 360.803L132.657 361.783L132.944 363.09L131.511 362.764L129.792 362.11L123.489 361.783L122.343 362.437L121.77 363.744L123.202 363.09H127.213L131.798 364.071V365.051L129.792 365.705L126.927 367.012L126.067 368.973L127.5 368.319L131.798 367.993L133.23 368.646L135.522 370.607L130.938 370.934L131.225 371.587L135.522 373.875L130.652 374.855L132.084 375.509L134.663 377.143L127.787 376.816L124.635 377.47L124.921 377.797H126.067L129.506 378.777L132.084 380.084L136.955 383.679H133.23L132.657 382.699H130.079L129.792 383.352L132.944 385.313L130.365 385.64L130.652 386.294L132.084 386.62L132.657 387.601L130.652 388.581L131.511 388.908L133.517 388.581L134.376 390.215L132.084 390.542H130.079L129.792 389.235L128.933 387.928L128.36 386.294H127.787L127.5 387.274V388.581L128.073 389.235L128.204 390.215H126.64V391.849H128.073H129.506L129.792 393.157L131.511 395.117L131.225 396.752H127.5L126.927 397.405L127.5 397.732L130.938 397.405V398.386L130.365 399.366L129.792 399.039L128.933 400.02L130.365 400.346H132.657Z" fill="#FF4500" stroke="#FF4500"/>
<path d="M125.657 162.989L126.517 163.611L146 163.3V1.31092H127.376L123.079 1L119.927 1.31092V5.6638C119.927 5.91254 120.5 7.84024 120.787 8.77301L119.64 8.15117L117.921 6.90748L114.77 4.1092L113.051 1.31092H109.612V2.5546L110.758 4.73104L113.051 9.39485L116.202 12.815V14.6805L113.337 14.0586L110.185 12.815L106.461 10.9494L103.309 9.70577L109.612 16.2351L119.354 21.8317L131.961 25.8736L137.691 30.5374L137.978 31.1593L137.118 31.7811L134.826 30.8483V31.7811L137.978 32.7139V34.8903L137.404 35.2012L135.112 34.8903L133.393 33.0248L130.815 30.5374V33.6466L133.393 36.7558L135.112 37.6886L136.545 38.9323L135.685 40.7978L131.101 39.865L131.674 40.7978L133.393 42.0415L136.258 43.907L133.68 44.8397H126.23L122.792 43.2851L119.067 41.1087L114.197 37.0667L115.056 39.2432L119.927 45.1507L123.938 48.5708L133.68 52.3018L134.253 53.5455L130.528 53.8564L131.961 55.1001L133.68 56.9656L131.961 56.6547L127.663 53.5455L128.236 54.7892L133.107 60.0748L130.528 61.9404L127.376 63.184L122.792 63.8059L119.354 62.5622L115.629 60.3858L111.904 56.6547L106.747 50.1254L109.326 55.722L113.91 61.9404L120.787 67.8478L127.949 72.8226L124.798 73.1335L119.067 72.2007L113.337 69.4024L106.174 65.9823L98.1517 60.6967L104.169 67.226L122.219 79.041L120.213 79.9737L119.354 82.1502H124.225L125.084 83.3939L122.506 84.0157L117.635 87.1249L108.18 92.7215L98.7247 100.184L95 105.158L95.573 107.646L101.59 99.8726L106.747 96.7634L114.77 92.7215L121.36 89.6123L126.23 88.9904L122.219 92.0996H119.64C119.545 92.6178 119.411 93.6542 119.64 93.6542H123.938L128.522 96.1416L124.225 96.7634L119.067 99.2508L127.09 99.5617L123.365 101.427L125.657 102.36L123.079 103.293L125.084 104.536L122.792 105.78L128.236 106.091V106.713L119.067 111.999L126.517 111.377L126.803 112.309L123.365 113.864H127.663L128.522 114.797L126.517 116.04L124.225 117.595H128.236L127.376 119.15L125.944 120.704L122.506 121.015L121.073 120.082L119.067 119.772V121.015L121.073 121.948L123.079 122.881L122.219 123.503L121.073 124.746H122.219L124.225 125.368L125.657 126.301L125.944 127.545L124.511 127.234L122.792 126.612L116.489 126.301L115.343 126.923L114.77 128.166L116.202 127.545H120.213L124.798 128.477V129.41L122.792 130.032L119.927 131.276L119.067 133.141L120.5 132.519L124.798 132.208L126.23 132.83L128.522 134.696L123.938 135.007L124.225 135.628L128.522 137.805L123.652 138.738L125.084 139.359L127.663 140.914L120.787 140.603L117.635 141.225L117.921 141.536H119.067L122.506 142.469L125.084 143.712L129.955 147.132H126.23L125.657 146.2H123.079L122.792 146.822L125.944 148.687L123.365 148.998L123.652 149.62L125.084 149.931L125.657 150.864L123.652 151.796L124.511 152.107L126.517 151.796L127.376 153.351L125.084 153.662H123.079L122.792 152.418L121.933 151.174L121.36 149.62H120.787L120.5 150.553V151.796L121.073 152.418L121.204 153.351H119.64V154.906H121.073H122.506L122.792 156.149L124.511 158.015L124.225 159.569H120.5L119.927 160.191L120.5 160.502L123.938 160.191V161.124L123.365 162.057L122.792 161.746L121.933 162.679L123.365 162.989H125.657Z" fill="#FF4500" stroke="#FF4500"/>
<path d="M121.424 223.5L145.682 229.387L189 181.264L183.224 179.472L172.828 176.144L165.897 173.072L150.88 168.721L143.083 165.137L134.997 161.553L108.717 143.379L100.631 139.283L96.2995 137.748L89.3687 127.508L85.9032 121.109L79.8387 115.222L80.1275 110.102L74.3518 106.006H72.0415L63.0891 100.375L58.1797 99.3509L51.8264 98.327L46.0507 99.3509L39.4086 100.887L30.1674 105.238L20.3487 116.501L21.5038 124.949L17.7496 129.3L13.7066 131.86L6.77574 136.98L1 141.075L3.02151 145.427L12.8403 153.106H26.9908L35.6544 150.546L46.0507 147.731L55.2919 150.546L58.4685 157.202L55.2919 160.785V168.465V173.584V180.752L46.0507 186.383L38.2535 196.878L33.0553 202.766L20.3487 217.868L17.172 226.828L26.9908 229.387L33.0553 226.828L40.8525 221.196L49.8049 209.677H63.9555L78.6836 212.237L90.235 217.868L100.92 221.196L121.424 223.5Z" fill="#FF4500" stroke="#FF4500"/>
<path d="M162.36 277.186L169.578 279.995L168.964 280.862L165.324 279.743L158.351 277.07L146.208 273.031L145.013 273.273L135.895 284.218L134.456 284.324L141.493 273.429L132.164 282.746L128.734 283.255L139.229 272.774L138.006 272.093L128.985 280.976L124.327 283.219L134.548 271.68L118.843 284.701L122.04 279.226L115.448 283.718L124.6 271.281L116.284 279.649L110.705 283.193L115.773 276.039L123.691 267.752L119.152 271.27L115.87 273.977L112.371 277.471L107.497 280.501L103.146 282.31L103.76 281.443L107.321 277.38L111.769 273.508L120.204 266.415L116.74 268.417L113.305 271.341L109.164 274.779L105.33 277.783L102.816 279.406L100.455 280.813L104.909 274.526L109.756 270.574L115.307 266.108L113.777 265.861L109.483 269.515L105.495 272.737L101.172 275.469L98.1067 277.39L95.53 279.583L92.5268 280.934L95.9682 275.595L98.5449 273.402L100.046 272.726L102.316 270.967L106.241 268.315L110.228 265.094L106.275 266.823L102.811 268.824L98.8237 272.046L95.5417 274.753L93.1812 276.159L89.6889 277.238L87.1465 277.939L90.0645 273.82L90.9234 273.089L93.8356 271.385L97.2086 269.031L101.622 266.651L105.883 264.489L106.804 263.188L106.07 262.78L105.303 263.864L102.606 264.781L99.7853 266.838L94.4216 269.595L88.9953 272.922L82.7728 276.411L82.2553 275.216L85.2927 272.373L88.6656 270.018L94.0293 267.261L101.97 262.311L101.236 261.902L98.7219 263.526L92.0728 266.172L86.2484 269.58L79.9349 272.715L75.3733 272.896L77.3357 271.571L81.4139 268.702L88.5237 265.405L91.8341 263.621L94.8089 261.347L87.3919 265.078L81.6017 266.993L73.8208 269.312L69.7484 269.765L74.1338 266.463L82.1309 263.358L91.8116 260.283L90.8959 259.169L71.563 266.241L67.337 266.912L64.1235 266.634L68.1392 264.336L83.2461 257.934L63.8564 263.161L59.0503 263.206L62.7304 260.418L77.496 255.942L61.9684 259.087L57.8676 258.618L57.3501 257.423L69.7551 254.354L65.9899 254.373L61.8891 253.904L58.431 253.491L55.3427 252.074L64.3748 251.359L72.4228 252.514L67.6225 250.144L60.0411 245.924L60.991 245.546L65.8255 246.423L76.7114 251.274L71.8202 248.551L67.8788 245.45L64.8247 242.541L64.7054 241.266L81.4265 250.875L73.9762 243.101L72.1507 238.458L78.9642 243.762L91.6071 256.24L90.936 255.262L87.1825 250.452L81.8138 242.628L78.4017 235.892L80.4208 236.411L86.2785 244.508L92.0453 252.252L96.7771 257.607L96.5951 256.901L89.9469 246.55L85.4714 236.502L87.0014 236.75L90.3568 241.64L96.914 251.638L101.367 258.348L103.051 258.378L98.5692 250.745L94.0937 240.697L93.2465 236.599L96.2096 239.155L97.2446 241.545L105.866 258.737L107.305 258.631L98.8029 242.714L98.843 238.807L101.59 242.15L104.331 247.907L106.583 253.393L109.449 258.011L111.036 260.103L110.888 257.905L108.176 253.07L106.629 247.071L104.252 242.725L105.242 238.439L107.505 239.095L107.989 241.782L110.423 247.973L113.192 254.653L116.388 262.175L115.876 258.566L114.33 252.566L112.294 246.294L111.515 239.211L114.598 243.043L116.941 248.881L118.788 256.862L121.16 263.623L120.193 258.248L119.443 252.087L119.056 247.338L119.899 240.855L122.213 245.771L122.998 250.439L124.925 263.603L123.976 250.984L124.756 245.07L126.7 250.989L128.201 263.31L129.39 265.483L127.974 255.93L127.804 250.394L128.703 245.756L130.346 249.693L131.068 254.932L132.052 266.058L133.246 265.816L131.899 253.278L133.839 248.615L135.482 252.552L136.977 267.289L136.921 252.446L137.689 251.362L140.219 268.489L140.089 259.046L141.232 254.544L142.716 261.113L142.676 265.02L143.028 271.262L143.614 269.472L143.82 260.518L144.656 256.45L146.362 259.818L146.743 266.982L146.088 271.756L151.685 273.964L162.36 277.186Z" fill="#FF4500" stroke="#FF4500"/>
<path d="M169.421 28.595L175.898 23.8049L176.469 24.6849L172.888 27.5599L165.701 32.5988L157.695 37.3843L145.481 45.0847L148.772 49.1513L151.518 53.049L153.193 59.6619L152.21 59.8263L151.671 57.3153L149.959 54.6754L146.369 49.8132L145.285 47.1334L144.251 45.8756L142.914 46.1643L142.229 47.1242L142.959 49.9285L143.791 55.5769L144.273 59.0078L143.938 62.1853L143.083 65.9049L142.157 65.1493L141.13 61.5495L139.855 58.5763L139.372 55.1455L139.188 52.5101L140.974 47.2041L137.887 48.8259L137.558 49.6613L137.387 52.4211L136.97 55.8074L136.989 58.8605L136.217 62.3712L134.569 66.5485L133.499 69.2637L130.736 72.3921L129.696 73.4763L129.151 73.3074L129.98 68.8767L130.81 64.4461L131.145 61.2686L135.922 49.1545L131.225 50.9806L127.164 60.5039L124.179 64.9699L119.516 75.2441L118.343 75.1151L119.837 66.6715L122.555 59.779L126.085 55.482L128.195 51.6825L123.308 53.2152L120.811 58.7701L117.909 63.0272L113.777 68.0753L110.906 70.7015L109.188 70.4035L112.837 61.9246L120.468 54.2104L115.828 55.1166L115.226 55.8676L112.709 58.3694L110.276 60.6623L106.092 64.2882L100.438 66.9897L96.7808 67.7315L95.1706 67.9358L92.4445 67.0911L97.2749 66.4783L100.609 64.2299L109.628 57.6491L110.75 56.356L105.616 58.5153L94.2878 60.8652L81.3555 61.0773L89.0258 59.4693L105.729 56.6755L102.946 56.7508L92.5558 55.1722L86.0131 53.1451L84.5421 52.2206L83.3496 49.0385L85.2266 51.2607L89.1255 52.2343L95.9977 53.426L100.962 54.0264L106.471 54.7957L110.725 55.645L116.867 54.0323L97.9488 47.7022L96.2053 46.6933L94.7343 45.7688L92.7182 44.6753C92.3462 44.3257 91.5477 43.6095 91.3296 43.542C91.057 43.4575 89.8586 42.6175 89.3134 42.4485C88.8772 42.3134 88.5145 41.8885 88.3877 41.693L86.8088 40.2663L88.1719 40.6886L91.9885 41.8711L96.8955 43.3914L100.002 44.8227L103.927 46.5073L107.851 48.192L110.66 48.8278L113.221 50.0901L115.237 51.1835L118.236 52.1126L118.616 52.6993L120.252 53.2061L125.932 51.2157L118.381 48.6418L114.755 47.7527L113.011 46.7437L111.267 45.7348L108.598 43.9702L106.392 42.5835C105.838 42.1775 104.676 41.3487 104.458 41.2812C104.24 41.2136 102.824 39.9937 102.144 39.3922L100.374 37.6722L99.1506 36.1211L101.414 36.588L102.967 37.3036L104.356 38.437L105.935 39.8637L109.231 41.5883L114.246 43.6108L116.453 44.9975L118.361 45.5888L120.377 46.6822L122.476 47.5668L124.873 49.2468L127.979 50.6781L134.286 48.6478L128.454 46.3719L126.52 45.0696L123.141 43.5538L119.191 41.1581L117.339 39.647L115.488 38.1358L113.693 35.7047L111.543 33.3981L109.311 31.3003L107.676 30.7935L104.049 29.9043L105.824 29.2823L111.277 30.9716L111.112 31.3893L112.665 32.1049L115.144 33.5762L120.4 37.3141L128.244 43.0255L135.269 48.4834L138.273 47.0705L135.769 44.8882L132.256 42.1592L129.644 39.4748L126.682 34.5727L124.868 29.0886L128.077 33.3641L131.887 36.8886L135.071 40.453L137.163 43.6796L139.585 46.0707L141.798 45.1154L140.574 43.5643L137.499 40.5021L135.38 36.5645L132.362 32.5823L136.8 36.0669L139.793 39.338L142.133 41.938L143.845 44.5779L152.833 39.6281L169.421 28.595Z" fill="#FF4500" stroke="#FF4500"/>
<rect width="66" height="400" transform="matrix(-1 0 0 1 204 1)" fill="#FF4500"/>
</svg>
