<svg width="204" height="402" viewBox="0 0 204 402" fill="none" xmlns="http://www.w3.org/2000/svg">
<path d="M71.3427 400.346L70.4831 401L51 400.673V230.407H69.6236L73.9213 230.08L77.073 230.407V234.982C77.073 235.244 76.5 237.27 76.2135 238.25L77.3596 237.597L79.0787 236.289L82.2303 233.348L83.9494 230.407H87.3876V231.714L86.2416 234.002L83.9494 238.904L80.7978 242.499V244.46L83.6629 243.806L86.8146 242.499L90.5393 240.538L93.691 239.231L87.3876 246.094L77.6461 251.976L65.0393 256.225L59.309 261.127L59.0225 261.78L59.882 262.434L62.1742 261.454V262.434L59.0225 263.414V265.702L59.5955 266.029L61.8876 265.702L63.6067 263.741L66.1854 261.127V264.395L63.6067 267.663L61.8876 268.643L60.4551 269.951L61.3146 271.911L65.8989 270.931L65.3258 271.911L63.6067 273.219L60.7416 275.179L63.3202 276.16H70.7697L74.2079 274.526L77.9326 272.238L82.8034 267.99L81.9438 270.277L77.073 276.487L73.0618 280.082L63.3202 284.003L62.7472 285.31L66.4719 285.637L65.0393 286.944L63.3202 288.905L65.0393 288.579L69.3371 285.31L68.764 286.618L63.8933 292.173L66.4719 294.134L69.6236 295.441L74.2079 296.095L77.6461 294.788L81.3708 292.5L85.0955 288.579L90.2528 281.716L87.6742 287.598L83.0899 294.134L76.2135 300.344L69.0506 305.572L72.2022 305.899L77.9326 304.919L83.6629 301.978L90.8258 298.383L98.8483 292.827L92.8315 299.69L74.7809 312.109L76.7865 313.089L77.6461 315.377H72.7753L71.9157 316.684L74.4944 317.337L79.3652 320.606L88.8202 326.488L98.2753 334.331L102 339.56L101.427 342.175L95.4101 334.005L90.2528 330.737L82.2303 326.488L75.6404 323.22L70.7697 322.566L74.7809 325.834H77.3596C77.4551 326.379 77.5888 327.468 77.3596 327.468H73.0618L68.4775 330.083L72.7753 330.737L77.9326 333.351L69.9101 333.678L73.6348 335.639L71.3427 336.619L73.9213 337.6L71.9157 338.907L74.2079 340.214L68.764 340.541V341.194L77.9326 346.75L70.4831 346.096L70.1966 347.077L73.6348 348.711H69.3371L68.4775 349.691L70.4831 350.999L72.7753 352.633H68.764L69.6236 354.267L71.0562 355.901L74.4944 356.227L75.927 355.247L77.9326 354.92V356.227L75.927 357.208L73.9213 358.188L74.7809 358.842L75.927 360.149H74.7809L72.7753 360.803L71.3427 361.783L71.0562 363.09L72.4888 362.764L74.2079 362.11L80.5112 361.783L81.6573 362.437L82.2303 363.744L80.7978 363.09H76.7865L72.2022 364.071V365.051L74.2079 365.705L77.073 367.012L77.9326 368.973L76.5 368.319L72.2022 367.993L70.7697 368.646L68.4775 370.607L73.0618 370.934L72.7753 371.587L68.4775 373.875L73.3483 374.855L71.9157 375.509L69.3371 377.143L76.2135 376.816L79.3652 377.47L79.0787 377.797H77.9326L74.4944 378.777L71.9157 380.084L67.0449 383.679H70.7697L71.3427 382.699H73.9213L74.2079 383.352L71.0562 385.313L73.6348 385.64L73.3483 386.294L71.9157 386.62L71.3427 387.601L73.3483 388.581L72.4888 388.908L70.4831 388.581L69.6236 390.215L71.9157 390.542H73.9213L74.2079 389.235L75.0674 387.928L75.6404 386.294H76.2135L76.5 387.274V388.581L75.927 389.235L75.7962 390.215H77.3596V391.849H75.927H74.4944L74.2079 393.157L72.4888 395.117L72.7753 396.752H76.5L77.073 397.405L76.5 397.732L73.0618 397.405V398.386L73.6348 399.366L74.2079 399.039L75.0674 400.02L73.6348 400.346H71.3427Z" fill="#FF4500" stroke="#FF4500"/>
<path d="M78.3427 162.989L77.4831 163.611L58 163.3V1.31092H76.6236L80.9213 1L84.073 1.31092V5.6638C84.073 5.91254 83.5 7.84024 83.2135 8.77301L84.3596 8.15117L86.0787 6.90748L89.2303 4.1092L90.9494 1.31092H94.3876V2.5546L93.2416 4.73104L90.9494 9.39485L87.7978 12.815V14.6805L90.6629 14.0586L93.8146 12.815L97.5393 10.9494L100.691 9.70577L94.3876 16.2351L84.6461 21.8317L72.0393 25.8736L66.309 30.5374L66.0225 31.1593L66.882 31.7811L69.1742 30.8483V31.7811L66.0225 32.7139V34.8903L66.5955 35.2012L68.8876 34.8903L70.6067 33.0248L73.1854 30.5374V33.6466L70.6067 36.7558L68.8876 37.6886L67.4551 38.9323L68.3146 40.7978L72.8989 39.865L72.3258 40.7978L70.6067 42.0415L67.7416 43.907L70.3202 44.8397H77.7697L81.2079 43.2851L84.9326 41.1087L89.8034 37.0667L88.9438 39.2432L84.073 45.1507L80.0618 48.5708L70.3202 52.3018L69.7472 53.5455L73.4719 53.8564L72.0393 55.1001L70.3202 56.9656L72.0393 56.6547L76.3371 53.5455L75.764 54.7892L70.8933 60.0748L73.4719 61.9404L76.6236 63.184L81.2079 63.8059L84.6461 62.5622L88.3708 60.3858L92.0955 56.6547L97.2528 50.1254L94.6742 55.722L90.0899 61.9404L83.2135 67.8478L76.0506 72.8226L79.2022 73.1335L84.9326 72.2007L90.6629 69.4024L97.8258 65.9823L105.848 60.6967L99.8315 67.226L81.7809 79.041L83.7865 79.9737L84.6461 82.1502H79.7753L78.9157 83.3939L81.4944 84.0157L86.3652 87.1249L95.8202 92.7215L105.275 100.184L109 105.158L108.427 107.646L102.41 99.8726L97.2528 96.7634L89.2303 92.7215L82.6404 89.6123L77.7697 88.9904L81.7809 92.0996H84.3596C84.4551 92.6178 84.5888 93.6542 84.3596 93.6542H80.0618L75.4775 96.1416L79.7753 96.7634L84.9326 99.2508L76.9101 99.5617L80.6348 101.427L78.3427 102.36L80.9213 103.293L78.9157 104.536L81.2079 105.78L75.764 106.091V106.713L84.9326 111.999L77.4831 111.377L77.1966 112.309L80.6348 113.864H76.3371L75.4775 114.797L77.4831 116.04L79.7753 117.595H75.764L76.6236 119.15L78.0562 120.704L81.4944 121.015L82.927 120.082L84.9326 119.772V121.015L82.927 121.948L80.9213 122.881L81.7809 123.503L82.927 124.746H81.7809L79.7753 125.368L78.3427 126.301L78.0562 127.545L79.4888 127.234L81.2079 126.612L87.5112 126.301L88.6573 126.923L89.2303 128.166L87.7978 127.545H83.7865L79.2022 128.477V129.41L81.2079 130.032L84.073 131.276L84.9326 133.141L83.5 132.519L79.2022 132.208L77.7697 132.83L75.4775 134.696L80.0618 135.007L79.7753 135.628L75.4775 137.805L80.3483 138.738L78.9157 139.359L76.3371 140.914L83.2135 140.603L86.3652 141.225L86.0787 141.536H84.9326L81.4944 142.469L78.9157 143.712L74.0449 147.132H77.7697L78.3427 146.2H80.9213L81.2079 146.822L78.0562 148.687L80.6348 148.998L80.3483 149.62L78.9157 149.931L78.3427 150.864L80.3483 151.796L79.4888 152.107L77.4831 151.796L76.6236 153.351L78.9157 153.662H80.9213L81.2079 152.418L82.0674 151.174L82.6404 149.62H83.2135L83.5 150.553V151.796L82.927 152.418L82.7962 153.351H84.3596V154.906H82.927H81.4944L81.2079 156.149L79.4888 158.015L79.7753 159.569H83.5L84.073 160.191L83.5 160.502L80.0618 160.191V161.124L80.6348 162.057L81.2079 161.746L82.0674 162.679L80.6348 162.989H78.3427Z" fill="#FF4500" stroke="#FF4500"/>
<path d="M82.576 223.5L58.318 229.387L15 181.264L20.7757 179.472L31.172 176.144L38.1029 173.072L53.1198 168.721L60.917 165.137L69.0031 161.553L95.2826 143.379L103.369 139.283L107.7 137.748L114.631 127.508L118.097 121.109L124.161 115.222L123.872 110.102L129.648 106.006H131.959L140.911 100.375L145.82 99.3509L152.174 98.327L157.949 99.3509L164.591 100.887L173.833 105.238L183.651 116.501L182.496 124.949L186.25 129.3L190.293 131.86L197.224 136.98L203 141.075L200.978 145.427L191.16 153.106H177.009L168.346 150.546L157.949 147.731L148.708 150.546L145.531 157.202L148.708 160.785V168.465V173.584V180.752L157.949 186.383L165.747 196.878L170.945 202.766L183.651 217.868L186.828 226.828L177.009 229.387L170.945 226.828L163.147 221.196L154.195 209.677H140.045L125.316 212.237L113.765 217.868L103.08 221.196L82.576 223.5Z" fill="#FF4500" stroke="#FF4500"/>
<path d="M41.6395 277.186L34.4221 279.995L35.0364 280.862L38.6764 279.743L45.6494 277.07L57.7923 273.031L58.9867 273.273L68.1048 284.218L69.5438 284.324L62.5074 273.429L71.8358 282.746L75.2655 283.255L64.7711 272.774L65.9939 272.093L75.0151 280.976L79.6735 283.219L69.4519 271.68L85.1565 284.701L81.9597 279.226L88.552 283.718L79.3997 271.281L87.7156 279.649L93.2955 283.193L88.2273 276.039L80.3095 267.752L84.8485 271.27L88.1305 273.977L91.6286 277.471L96.5032 280.501L100.854 282.31L100.24 281.443L96.6793 277.38L92.2312 273.508L83.7959 266.415L87.2599 268.417L90.6954 271.341L94.8363 274.779L98.67 277.783L101.184 279.406L103.545 280.813L99.0907 274.526L94.2445 270.574L88.693 266.108L90.223 265.861L94.5174 269.515L98.5047 272.737L102.828 275.469L105.893 277.39L108.47 279.583L111.473 280.934L108.032 275.595L105.455 273.402L103.954 272.726L101.684 270.967L97.7593 268.315L93.772 265.094L97.7251 266.823L101.189 268.824L105.176 272.046L108.458 274.753L110.819 276.159L114.311 277.238L116.854 277.939L113.935 273.82L113.077 273.089L110.164 271.385L106.791 269.031L102.378 266.651L98.1174 264.489L97.1959 263.188L97.9296 262.78L98.6975 263.864L101.394 264.781L104.215 266.838L109.578 269.595L115.005 272.922L121.227 276.411L121.745 275.216L118.707 272.373L115.334 270.018L109.971 267.261L102.03 262.311L102.764 261.902L105.278 263.526L111.927 266.172L117.752 269.58L124.065 272.715L128.627 272.896L126.664 271.571L122.586 268.702L115.476 265.405L112.166 263.621L109.191 261.347L116.608 265.078L122.398 266.993L130.179 269.312L134.252 269.765L129.866 266.463L121.869 263.358L112.188 260.283L113.104 259.169L132.437 266.241L136.663 266.912L139.876 266.634L135.861 264.336L120.754 257.934L140.144 263.161L144.95 263.206L141.27 260.418L126.504 255.942L142.032 259.087L146.132 258.618L146.65 257.423L134.245 254.354L138.01 254.373L142.111 253.904L145.569 253.491L148.657 252.074L139.625 251.359L131.577 252.514L136.377 250.144L143.959 245.924L143.009 245.546L138.175 246.423L127.289 251.274L132.18 248.551L136.121 245.45L139.175 242.541L139.295 241.266L122.573 250.875L130.024 243.101L131.849 238.458L125.036 243.762L112.393 256.24L113.064 255.262L116.818 250.452L122.186 242.628L125.598 235.892L123.579 236.411L117.721 244.508L111.955 252.252L107.223 257.607L107.405 256.901L114.053 246.55L118.529 236.502L116.999 236.75L113.643 241.64L107.086 251.638L102.633 258.348L100.949 258.378L105.431 250.745L109.906 240.697L110.754 236.599L107.79 239.155L106.755 241.545L98.1341 258.737L96.6951 258.631L105.197 242.714L105.157 238.807L102.41 242.15L99.669 247.907L97.417 253.393L94.5508 258.011L92.964 260.103L93.1118 257.905L95.8245 253.07L97.3711 247.071L99.7483 242.725L98.7583 238.439L96.4947 239.095L96.0114 241.782L93.5775 247.973L90.808 254.653L87.6121 262.175L88.1237 258.566L89.6704 252.566L91.7061 246.294L92.4849 239.211L89.4024 243.043L87.0595 248.881L85.2115 256.862L82.8402 263.623L83.8068 258.248L84.5571 252.087L84.9435 247.338L84.1013 240.855L81.7868 245.771L81.0022 250.439L79.075 263.603L80.0239 250.984L79.2443 245.07L77.2995 250.989L75.7988 263.31L74.6103 265.483L76.0258 255.93L76.1961 250.394L75.2971 245.756L73.6537 249.693L72.9317 254.932L71.9485 266.058L70.754 265.816L72.1012 253.278L70.1613 248.615L68.5179 252.552L67.023 267.289L67.0789 252.446L66.311 251.362L63.7811 268.489L63.9113 259.046L62.7678 254.544L61.2837 261.113L61.3238 265.02L60.9716 271.262L60.3856 269.472L60.1803 260.518L59.3439 256.45L57.6378 259.818L57.2572 266.982L57.9116 271.756L52.3151 273.964L41.6395 277.186Z" fill="#FF4500" stroke="#FF4500"/>
<path d="M34.5792 28.595L28.1015 23.8049L27.5308 24.6849L31.1118 27.5599L38.2995 32.5988L46.305 37.3843L58.5192 45.0847L55.2281 49.1513L52.4822 53.049L50.8071 59.6619L51.7896 59.8263L52.3291 57.3153L54.0413 54.6754L57.6305 49.8132L58.7152 47.1334L59.7488 45.8756L61.0863 46.1643L61.7708 47.1242L61.0411 49.9285L60.2093 55.5769L59.7267 59.0078L60.0619 62.1853L60.9169 65.9049L61.8426 65.1493L62.8704 61.5495L64.1453 58.5763L64.6279 55.1455L64.8124 52.5101L63.026 47.2041L66.1128 48.8259L66.4423 49.6613L66.6128 52.4211L67.0304 55.8074L67.0107 58.8605L67.7833 62.3712L69.4305 66.5485L70.5012 69.2637L73.2645 72.3921L74.3039 73.4763L74.8491 73.3074L74.0197 68.8767L73.1903 64.4461L72.855 61.2686L68.078 49.1545L72.775 50.9806L76.8363 60.5039L79.8211 64.9699L84.4845 75.2441L85.6573 75.1151L84.1632 66.6715L81.4452 59.779L77.9152 55.482L75.8051 51.6825L80.6924 53.2152L83.1888 58.7701L86.0912 63.0272L90.2233 68.0753L93.0944 70.7015L94.8125 70.4035L91.163 61.9246L83.5322 54.2104L88.1724 55.1166L88.7744 55.8676L91.2906 58.3694L93.7244 60.6623L97.9075 64.2882L103.562 66.9897L107.219 67.7315L108.829 67.9358L111.556 67.0911L106.725 66.4783L103.391 64.2299L94.3717 57.6491L93.2499 56.356L98.3843 58.5153L109.712 60.8652L122.644 61.0773L114.974 59.4693L98.2706 56.6755L101.054 56.7508L111.444 55.1722L117.987 53.1451L119.458 52.2206L120.65 49.0385L118.773 51.2607L114.874 52.2343L108.002 53.426L103.038 54.0264L97.5294 54.7957L93.2755 55.645L87.133 54.0323L106.051 47.7022L107.795 46.6933L109.266 45.7688L111.282 44.6753C111.654 44.3257 112.452 43.6095 112.67 43.542C112.943 43.4575 114.141 42.6175 114.687 42.4485C115.123 42.3134 115.486 41.8885 115.612 41.693L117.191 40.2663L115.828 40.6886L112.012 41.8711L107.104 43.3914L103.998 44.8227L100.073 46.5073L96.1489 48.192L93.3404 48.8278L90.779 50.0901L88.7629 51.1835L85.7641 52.1126L85.3836 52.6993L83.7479 53.2061L78.0683 51.2157L85.6191 48.6418L89.2455 47.7527L90.989 46.7437L92.7326 45.7348L95.4019 43.9702L97.6083 42.5835C98.162 42.1775 99.324 41.3487 99.5421 41.2812C99.7602 41.2136 101.176 39.9937 101.856 39.3922L103.626 37.6722L104.849 36.1211L102.586 36.588L101.033 37.3036L99.6442 38.437L98.0654 39.8637L94.7685 41.5883L89.7536 43.6108L87.5472 44.9975L85.6389 45.5888L83.6227 46.6822L81.5241 47.5668L79.1275 49.2468L76.0208 50.6781L69.7136 48.6478L75.5464 46.3719L77.4802 45.0696L80.8595 43.5538L84.8095 41.1581L86.6609 39.647L88.5124 38.1358L90.307 35.7047L92.4566 33.3981L94.6885 31.3003L96.3242 30.7935L99.9505 29.9043L98.1756 29.2823L92.7234 30.9716L92.8881 31.3893L91.3348 32.1049L88.8558 33.5762L83.5995 37.3141L75.7564 43.0255L68.7311 48.4834L65.7266 47.0705L68.2311 44.8882L71.7438 42.1592L74.3562 39.4748L77.3179 34.5727L79.1322 29.0886L75.9235 33.3641L72.1127 36.8886L68.9295 40.453L66.8367 43.6796L64.4145 46.0707L62.2023 45.1154L63.4262 43.5643L66.5015 40.5021L68.6198 36.5645L71.6383 32.5823L67.1999 36.0669L64.2069 39.338L61.8671 41.938L60.1548 44.5779L51.1668 39.6281L34.5792 28.595Z" fill="#FF4500" stroke="#FF4500"/>
<rect y="1" width="66" height="400" fill="#FF4500"/>
</svg>
