<svg width="147" height="300" viewBox="0 0 147 300" fill="none" xmlns="http://www.w3.org/2000/svg">
<path d="M14.3134 298.586L13.4471 299.049L-6.19043 298.817V178.079H12.5807L16.9125 177.848L20.0891 178.079V181.324C20.0891 181.509 19.5116 182.946 19.2228 183.641L20.3779 183.178L22.1106 182.251L25.2873 180.165L27.02 178.079H30.4855V179.006L29.3303 180.629L27.02 184.105L23.8434 186.654V188.044L26.7312 187.581L29.9079 186.654L33.6621 185.263L36.8388 184.337L30.4855 189.203L20.6667 193.374L7.96011 196.387L2.18438 199.863L1.89559 200.327L2.76195 200.79L5.07224 200.095V200.79L1.89559 201.485V203.108L2.47317 203.339L4.78346 203.108L6.51618 201.717L9.11525 199.863V202.181L6.51618 204.498L4.78346 205.193L3.33953 206.12L4.20588 207.511L8.82647 206.816L8.2489 207.511L6.51618 208.438L3.62831 209.828L6.22739 210.523H13.7358L17.2013 209.365L20.9555 207.743L25.8649 204.73L24.9985 206.352L20.0891 210.755L16.0461 213.304L6.22739 216.085L5.64982 217.012L9.40404 217.244L7.96011 218.171L6.22739 219.561L7.96011 219.33L12.2919 217.012L11.7143 217.939L6.80496 221.879L9.40404 223.269L12.5807 224.196L17.2013 224.66L20.6667 223.733L24.4209 222.111L28.1752 219.33L33.3733 214.463L30.7742 218.634L26.1537 223.269L19.2228 227.672L12.0031 231.38L15.1798 231.612L20.9555 230.917L26.7312 228.831L33.9509 226.282L42.0369 222.342L35.9724 227.209L17.7789 236.015L19.8004 236.71L20.6667 238.333H15.7573L14.891 239.26L17.4901 239.723L22.3994 242.04L31.9294 246.212L41.4593 251.774L45.2136 255.482L44.636 257.335L38.5715 251.542L33.3733 249.224L25.2873 246.212L18.6452 243.894L13.7358 243.431L17.7789 245.748H20.3779C20.4742 246.135 20.609 246.907 20.3779 246.907H16.0461L11.4255 248.761L15.7573 249.224L20.9555 251.078L12.8695 251.31L16.6237 252.701L14.3134 253.396L16.9125 254.091L14.891 255.018L17.2013 255.945L11.7143 256.177V256.64L20.9555 260.58L13.4471 260.116L13.1583 260.812L16.6237 261.97H12.2919L11.4255 262.666L13.4471 263.593L15.7573 264.751H11.7143L12.5807 265.91L14.0246 267.069L17.4901 267.3L18.934 266.605L20.9555 266.373V267.3L18.934 267.996L16.9125 268.691L17.7789 269.154L18.934 270.081H17.7789L15.7573 270.545L14.3134 271.24L14.0246 272.167L15.4686 271.935L17.2013 271.472L23.5546 271.24L24.7097 271.703L25.2873 272.63L23.8434 272.167H19.8004L15.1798 272.862V273.557L17.2013 274.021L20.0891 274.948L20.9555 276.338L19.5116 275.875L15.1798 275.643L13.7358 276.107L11.4255 277.497L16.0461 277.729L15.7573 278.192L11.4255 279.814L16.3349 280.51L14.891 280.973L12.2919 282.132L19.2228 281.9L22.3994 282.364L22.1106 282.595H20.9555L17.4901 283.291L14.891 284.218L9.98162 286.767H13.7358L14.3134 286.072H16.9125L17.2013 286.535L14.0246 287.925L16.6237 288.157L16.3349 288.621L14.891 288.852L14.3134 289.548L16.3349 290.243L15.4686 290.475L13.4471 290.243L12.5807 291.402L14.891 291.633H16.9125L17.2013 290.706L18.0676 289.779L18.6452 288.621H19.2228L19.5116 289.316V290.243L18.934 290.706L18.8022 291.402H20.3779V292.56H18.934H17.4901L17.2013 293.487L15.4686 294.878L15.7573 296.036H19.5116L20.0891 296.5L19.5116 296.732L16.0461 296.5V297.195L16.6237 297.89L17.2013 297.659L18.0676 298.354L16.6237 298.586H14.3134Z" fill="#FF4500" stroke="#FF4500"/>
<path d="M21.2443 121.744L20.3779 122.207L0.740417 121.975V1.23751H19.5115L23.8433 1.00577L27.02 1.23751V4.48191C27.02 4.6673 26.4424 6.10411 26.1536 6.79933L27.3088 6.33585L29.0415 5.40888L32.2181 3.32319L33.9509 1.23751H37.4163V2.16448L36.2612 3.78668L33.9509 7.26282L30.7742 9.81199V11.2024L33.6621 10.739L36.8387 9.81199L40.593 8.42153L43.7696 7.49456L37.4163 12.3612L27.5976 16.5325L14.891 19.5452L9.11523 23.0213L8.82644 23.4848L9.6928 23.9483L12.0031 23.2531V23.9483L8.82644 24.6435V26.2657L9.40401 26.4975L11.7143 26.2657L13.447 24.8753L16.0461 23.0213V25.3387L13.447 27.6562L11.7143 28.3514L10.2704 29.2784L11.1367 30.6688L15.7573 29.9736L15.1797 30.6688L13.447 31.5958L10.5592 32.9863L13.1582 33.6815H20.6667L24.1321 32.5228L27.8863 30.9006L32.7957 27.8879L31.9294 29.5101L27.02 33.9132L22.977 36.4624L13.1582 39.2433L12.5807 40.1703L16.3349 40.402L14.891 41.329L13.1582 42.7194L14.891 42.4877L19.2228 40.1703L18.6452 41.0972L13.7358 45.0369L16.3349 46.4273L19.5115 47.3543L24.1321 47.8178L27.5976 46.8908L31.3518 45.2686L35.106 42.4877L40.3042 37.6211L37.7051 41.7925L33.0845 46.4273L26.1536 50.8304L18.934 54.5383L22.1106 54.7701L27.8863 54.0748L33.6621 51.9892L40.8817 49.44L48.9678 45.5004L42.9032 50.367L24.7097 59.1732L26.7312 59.8684L27.5976 61.4906H22.6882L21.8218 62.4176L24.4209 62.8811L29.3303 65.1985L38.8602 69.3699L48.3902 74.9317L52.1444 78.6396L51.5668 80.4935L45.5023 74.6999L40.3042 72.3825L32.2181 69.3699L25.5761 67.0524L20.6667 66.5889L24.7097 68.9064H27.3088C27.405 69.2926 27.5398 70.0651 27.3088 70.0651H22.977L18.3564 71.919L22.6882 72.3825L27.8863 74.2365L19.8003 74.4682L23.5546 75.8587L21.2443 76.5539L23.8433 77.2491L21.8218 78.1761L24.1321 79.103L18.6452 79.3348V79.7983L27.8863 83.7379L20.3779 83.2744L20.0891 83.9696L23.5546 85.1284H19.2228L18.3564 85.8236L20.3779 86.7506L22.6882 87.9093H18.6452L19.5115 89.068L20.9555 90.2267L24.4209 90.4584L25.8648 89.7632L27.8863 89.5315V90.4584L25.8648 91.1537L23.8433 91.8489L24.7097 92.3124L25.8648 93.2393H24.7097L22.6882 93.7028L21.2443 94.3981L20.9555 95.325L22.3994 95.0933L24.1321 94.6298L30.4854 94.3981L31.6406 94.8615L32.2181 95.7885L30.7742 95.325H26.7312L22.1106 96.0203V96.7155L24.1321 97.179L27.02 98.1059L27.8863 99.4964L26.4424 99.0329L22.1106 98.8012L20.6667 99.2647L18.3564 100.655L22.977 100.887L22.6882 101.35L18.3564 102.973L23.2658 103.668L21.8218 104.131L19.2228 105.29L26.1536 105.058L29.3303 105.522L29.0415 105.753H27.8863L24.4209 106.449L21.8218 107.376L16.9125 109.925H20.6667L21.2443 109.23H23.8433L24.1321 109.693L20.9555 111.084L23.5546 111.315L23.2658 111.779L21.8218 112.011L21.2443 112.706L23.2658 113.401L22.3994 113.633L20.3779 113.401L19.5115 114.56L21.8218 114.791H23.8433L24.1321 113.864L24.9985 112.937L25.5761 111.779H26.1536L26.4424 112.474V113.401L25.8648 113.864L25.733 114.56H27.3088V115.718H25.8648H24.4209L24.1321 116.645L22.3994 118.036L22.6882 119.195H26.4424L27.02 119.658L26.4424 119.89L22.977 119.658V120.353L23.5546 121.048L24.1321 120.817L24.9985 121.512L23.5546 121.744H21.2443Z" fill="#FF4500" stroke="#FF4500"/>
<path d="M25.576 172.456L1.31797 177.416L-42 136.872L-36.2243 135.363L-25.828 132.559L-18.8971 129.971L-3.88018 126.305L3.91705 123.286L12.0031 120.266L38.2826 104.954L46.3687 101.504L50.7005 100.21L57.6313 91.5834L61.0968 86.1918L67.1613 81.2316L66.8725 76.9184L72.6482 73.4678H74.9585L83.9109 68.7233L88.8203 67.8607L95.1736 66.998L100.949 67.8607L107.591 69.1546L116.833 72.8209L126.651 82.3099L125.496 89.4268L129.25 93.093L133.293 95.2496L140.224 99.5628L146 103.013L143.978 106.68L134.16 113.149H120.009L111.346 110.993L100.949 108.621L91.7081 110.993L88.5315 116.6L91.7081 119.619V126.089V130.402V136.441L100.949 141.185L108.747 150.027L113.945 154.988L126.651 167.712L129.828 175.26L120.009 177.416L113.945 175.26L106.147 170.515L97.1951 160.811H83.0445L68.3164 162.967L56.765 167.712L46.0799 170.515L25.576 172.456Z" fill="#FF4500" stroke="#FF4500"/>
<path d="M-15.3605 217.687L-22.5779 220.053L-21.9636 220.784L-18.3236 219.841L-11.3506 217.589L0.792281 214.186L1.98672 214.39L11.1048 223.611L12.5438 223.7L5.5074 214.522L14.8358 222.371L18.2655 222.799L7.77106 213.969L8.99386 213.396L18.0151 220.88L22.6735 222.77L12.4519 213.048L28.1565 224.018L24.9597 219.405L31.552 223.19L22.3997 212.712L30.7156 219.762L36.2955 222.748L31.2273 216.721L23.3095 209.738L27.8485 212.703L31.1305 214.984L34.6286 217.927L39.5032 220.479L43.8544 222.004L43.24 221.273L39.6793 217.85L35.2312 214.588L26.7959 208.613L30.2599 210.299L33.6954 212.762L37.8363 215.659L41.67 218.19L44.1841 219.557L46.5445 220.742L42.0907 215.446L37.2445 212.116L31.693 208.353L33.223 208.145L37.5174 211.224L41.5047 213.938L45.8275 216.24L48.8933 217.858L51.47 219.706L54.4732 220.844L51.0318 216.346L48.4551 214.499L46.9535 213.929L44.684 212.447L40.7593 210.213L36.772 207.499L40.7251 208.956L44.189 210.642L48.1763 213.356L51.4583 215.637L53.8188 216.822L57.3111 217.73L59.8535 218.321L56.9355 214.851L56.0766 214.235L53.1644 212.799L49.7914 210.816L45.3776 208.811L41.1174 206.989L40.1959 205.894L40.9296 205.549L41.6975 206.463L44.3935 207.236L47.2147 208.968L52.5784 211.292L58.0047 214.095L64.2272 217.034L64.7447 216.027L61.7073 213.631L58.3344 211.648L52.9707 209.325L45.0304 205.154L45.764 204.81L48.2781 206.178L54.9272 208.407L60.7516 211.278L67.0651 213.92L71.6267 214.073L69.6643 212.956L65.5861 210.539L58.4763 207.762L55.1659 206.258L52.1911 204.343L59.6081 207.485L65.3983 209.099L73.1792 211.053L77.2516 211.435L72.8662 208.653L64.8691 206.037L55.1884 203.446L56.1041 202.508L75.437 208.466L79.663 209.031L82.8765 208.797L78.8608 206.86L63.7539 201.467L83.1436 205.87L87.9497 205.908L84.2696 203.56L69.504 199.789L85.0316 202.438L89.1324 202.043L89.6499 201.036L77.2449 198.45L81.0101 198.467L85.1109 198.072L88.569 197.724L91.6573 196.53L82.6252 195.927L74.5772 196.9L79.3775 194.904L86.9589 191.348L86.009 191.03L81.1745 191.769L70.2886 195.855L75.1798 193.562L79.1212 190.949L82.1753 188.498L82.2946 187.424L65.5735 195.52L73.0238 188.97L74.8493 185.058L68.0358 189.527L55.3929 200.04L56.064 199.216L59.8175 195.164L65.1862 188.571L68.5983 182.897L66.5792 183.334L60.7215 190.156L54.9547 196.68L50.2229 201.191L50.4049 200.597L57.0531 191.876L61.5286 183.411L59.9986 183.619L56.6432 187.739L50.086 196.162L45.633 201.816L43.9494 201.841L48.4308 195.41L52.9063 186.945L53.7535 183.492L50.7904 185.645L49.7554 187.659L41.1341 202.143L39.6951 202.054L48.1971 188.644L48.157 185.352L45.4101 188.169L42.669 193.019L40.417 197.641L37.5508 201.532L35.964 203.294L36.1118 201.442L38.8245 197.369L40.3711 192.314L42.7483 188.653L41.7583 185.043L39.4947 185.595L39.0114 187.859L36.5775 193.075L33.808 198.703L30.6121 205.04L31.1237 201.999L32.6704 196.944L34.7061 191.661L35.4849 185.693L32.4024 188.921L30.0595 193.84L28.2115 200.564L25.8402 206.259L26.8067 201.732L27.5571 196.541L27.9435 192.54L27.1013 187.078L24.7868 191.219L24.0022 195.152L22.075 206.243L23.0239 195.611L22.2443 190.629L20.2995 195.616L18.7988 205.996L17.6103 207.827L19.0258 199.778L19.1961 195.114L18.2971 191.207L16.6537 194.524L15.9317 198.937L14.9485 208.312L13.754 208.108L15.1012 197.544L13.1613 193.615L11.5179 196.933L10.023 209.348L10.0789 196.844L9.31097 195.93L6.78111 210.359L6.91128 202.404L5.76776 198.611L4.28371 204.145L4.32379 207.437L3.97158 212.695L3.38563 211.188L3.18026 203.644L2.3439 200.216L0.63782 203.054L0.257228 209.089L0.911641 213.112L-4.6849 214.972L-15.3605 217.687Z" fill="#FF4500" stroke="#FF4500"/>
<path d="M-22.4208 8.24879L-28.8985 4.21314L-29.4692 4.95452L-25.8882 7.37668L-18.7005 11.622L-10.695 15.6537L1.51916 22.1413L-1.77193 25.5675L-4.51779 28.8513L-6.19294 34.4227L-5.21037 34.5611L-4.67094 32.4456L-2.95869 30.2215L0.630537 26.1252L1.7152 23.8674L2.74881 22.8077L4.08635 23.051L4.77078 23.8596L4.04109 26.2222L3.20931 30.9811L2.72671 33.8716L3.06195 36.5486L3.91689 39.6824L4.84262 39.0458L5.87044 36.013L7.14535 33.508L7.62795 30.6176L7.81241 28.3973L6.02595 23.9269L9.11285 25.2933L9.4423 25.9972L9.61282 28.3222L10.0304 31.1752L10.0107 33.7474L10.7833 36.7052L12.4305 40.2246L13.5012 42.5122L16.2645 45.1478L17.3039 46.0613L17.8491 45.919L17.0197 42.1861L16.1903 38.4533L15.855 35.7763L11.078 25.5702L15.775 27.1087L19.8363 35.132L22.8211 38.8946L27.4845 47.5506L28.6573 47.442L27.1632 40.3283L24.4452 34.5213L20.9152 30.9011L18.8051 27.7L23.6924 28.9913L26.1888 33.6713L29.0912 37.2579L33.2233 41.5109L36.0944 43.7235L37.8125 43.4725L34.163 36.329L26.5322 29.8298L31.1724 30.5932L31.7744 31.2259L34.2906 33.3337L36.7244 35.2655L40.9075 38.3203L46.5616 40.5963L50.2192 41.2213L51.8294 41.3934L54.5555 40.6818L49.7251 40.1655L46.3911 38.2712L37.3717 32.7269L36.2499 31.6374L41.3843 33.4567L52.7122 35.4364L65.6445 35.6151L57.9742 34.2604L41.2706 31.9066L44.0536 31.9701L54.4442 30.6401L60.9869 28.9322L62.4579 28.1533L63.6504 25.4725L61.7734 27.3447L57.8745 28.1649L51.0023 29.1689L46.0385 29.6748L40.5294 30.3229L36.2755 31.0384L30.133 29.6797L49.0512 24.3466L50.7947 23.4966L52.2657 22.7177L54.2818 21.7965C54.6538 21.5019 55.4523 20.8985 55.6704 20.8416C55.943 20.7704 57.1414 20.0627 57.6866 19.9204C58.1228 19.8065 58.4855 19.4486 58.6123 19.2838L60.1912 18.0818L58.8281 18.4376L55.0115 19.4339L50.1045 20.7147L46.9979 21.9206L43.0734 23.3399L39.1489 24.7593L36.3404 25.2949L33.779 26.3584L31.7629 27.2796L28.7641 28.0624L28.3836 28.5566L26.748 28.9836L21.0683 27.3067L28.6191 25.1382L32.2455 24.3891L33.989 23.5391L35.7326 22.689L38.4019 21.2024L40.6083 20.0341C41.162 19.6921 42.324 18.9938 42.5421 18.9369C42.7602 18.88 44.1759 17.8522 44.8564 17.3455L46.6255 15.8963L47.8494 14.5895L45.5861 14.9829L44.0328 15.5858L42.6442 16.5406L41.0654 17.7426L37.7685 19.1956L32.7536 20.8996L30.5472 22.0679L28.6389 22.566L26.6227 23.4872L24.5242 24.2325L22.1275 25.648L19.0208 26.8538L12.7137 25.1432L18.5464 23.2258L20.4802 22.1286L23.8595 20.8516L27.8095 18.8332L29.6609 17.5601L31.5124 16.2869L33.307 14.2387L35.4566 12.2954L37.6885 10.528L39.3242 10.101L42.9505 9.3519L41.1756 8.82787L35.7234 10.2511L35.8881 10.603L34.3348 11.2059L31.8558 12.4454L26.5995 15.5946L18.7564 20.4065L11.7311 25.0048L8.72656 23.8144L11.2311 21.9758L14.7438 19.6767L17.3562 17.415L20.3179 13.285L22.1322 8.66462L18.9235 12.2667L15.1127 15.2361L11.9295 18.2391L9.83675 20.9575L7.41454 22.9721L5.20233 22.1673L6.42619 20.8605L9.50151 18.2805L11.6198 14.9631L14.6383 11.6081L10.1999 14.5438L7.20693 17.2997L4.86709 19.4902L3.15484 21.7144L-5.83323 17.5441L-22.4208 8.24879Z" fill="#FF4500" stroke="#FF4500"/>
</svg>
