<svg width="147" height="300" viewBox="0 0 147 300" fill="none" xmlns="http://www.w3.org/2000/svg">
<path d="M132.687 298.586L133.553 299.049L153.19 298.817V178.079H134.419L130.088 177.848L126.911 178.079V181.324C126.911 181.509 127.488 182.946 127.777 183.641L126.622 183.178L124.889 182.251L121.713 180.165L119.98 178.079H116.515V179.006L117.67 180.629L119.98 184.105L123.157 186.654V188.044L120.269 187.581L117.092 186.654L113.338 185.263L110.161 184.337L116.515 189.203L126.333 193.374L139.04 196.387L144.816 199.863L145.104 200.327L144.238 200.79L141.928 200.095V200.79L145.104 201.485V203.108L144.527 203.339L142.217 203.108L140.484 201.717L137.885 199.863V202.181L140.484 204.498L142.217 205.193L143.66 206.12L142.794 207.511L138.174 206.816L138.751 207.511L140.484 208.438L143.372 209.828L140.773 210.523H133.264L129.799 209.365L126.044 207.743L121.135 204.73L122.001 206.352L126.911 210.755L130.954 213.304L140.773 216.085L141.35 217.012L137.596 217.244L139.04 218.171L140.773 219.561L139.04 219.33L134.708 217.012L135.286 217.939L140.195 221.879L137.596 223.269L134.419 224.196L129.799 224.66L126.333 223.733L122.579 222.111L118.825 219.33L113.627 214.463L116.226 218.634L120.846 223.269L127.777 227.672L134.997 231.38L131.82 231.612L126.044 230.917L120.269 228.831L113.049 226.282L104.963 222.342L111.028 227.209L129.221 236.015L127.2 236.71L126.333 238.333H131.243L132.109 239.26L129.51 239.723L124.601 242.04L115.071 246.212L105.541 251.774L101.786 255.482L102.364 257.335L108.429 251.542L113.627 249.224L121.713 246.212L128.355 243.894L133.264 243.431L129.221 245.748H126.622C126.526 246.135 126.391 246.907 126.622 246.907H130.954L135.574 248.761L131.243 249.224L126.044 251.078L134.131 251.31L130.376 252.701L132.687 253.396L130.088 254.091L132.109 255.018L129.799 255.945L135.286 256.177V256.64L126.044 260.58L133.553 260.116L133.842 260.812L130.376 261.97H134.708L135.574 262.666L133.553 263.593L131.243 264.751H135.286L134.419 265.91L132.975 267.069L129.51 267.3L128.066 266.605L126.044 266.373V267.3L128.066 267.996L130.088 268.691L129.221 269.154L128.066 270.081H129.221L131.243 270.545L132.687 271.24L132.975 272.167L131.531 271.935L129.799 271.472L123.445 271.24L122.29 271.703L121.713 272.63L123.157 272.167H127.2L131.82 272.862V273.557L129.799 274.021L126.911 274.948L126.044 276.338L127.488 275.875L131.82 275.643L133.264 276.107L135.574 277.497L130.954 277.729L131.243 278.192L135.574 279.814L130.665 280.51L132.109 280.973L134.708 282.132L127.777 281.9L124.601 282.364L124.889 282.595H126.044L129.51 283.291L132.109 284.218L137.018 286.767H133.264L132.687 286.072H130.088L129.799 286.535L132.975 287.925L130.376 288.157L130.665 288.621L132.109 288.852L132.687 289.548L130.665 290.243L131.531 290.475L133.553 290.243L134.419 291.402L132.109 291.633H130.088L129.799 290.706L128.932 289.779L128.355 288.621H127.777L127.488 289.316V290.243L128.066 290.706L128.198 291.402H126.622V292.56H128.066H129.51L129.799 293.487L131.531 294.878L131.243 296.036H127.488L126.911 296.5L127.488 296.732L130.954 296.5V297.195L130.376 297.89L129.799 297.659L128.932 298.354L130.376 298.586H132.687Z" fill="#FF4500" stroke="#FF4500"/>
<path d="M125.756 121.744L126.622 122.207L146.26 121.975V1.23751H127.488L123.157 1.00577L119.98 1.23751V4.48191C119.98 4.6673 120.558 6.10411 120.846 6.79933L119.691 6.33585L117.959 5.40888L114.782 3.32319L113.049 1.23751H109.584V2.16448L110.739 3.78668L113.049 7.26282L116.226 9.81199V11.2024L113.338 10.739L110.161 9.81199L106.407 8.42153L103.23 7.49456L109.584 12.3612L119.402 16.5325L132.109 19.5452L137.885 23.0213L138.174 23.4848L137.307 23.9483L134.997 23.2531V23.9483L138.174 24.6435V26.2657L137.596 26.4975L135.286 26.2657L133.553 24.8753L130.954 23.0213V25.3387L133.553 27.6562L135.286 28.3514L136.73 29.2784L135.863 30.6688L131.243 29.9736L131.82 30.6688L133.553 31.5958L136.441 32.9863L133.842 33.6815H126.333L122.868 32.5228L119.114 30.9006L114.204 27.8879L115.071 29.5101L119.98 33.9132L124.023 36.4624L133.842 39.2433L134.419 40.1703L130.665 40.402L132.109 41.329L133.842 42.7194L132.109 42.4877L127.777 40.1703L128.355 41.0972L133.264 45.0369L130.665 46.4273L127.488 47.3543L122.868 47.8178L119.402 46.8908L115.648 45.2686L111.894 42.4877L106.696 37.6211L109.295 41.7925L113.915 46.4273L120.846 50.8304L128.066 54.5383L124.889 54.7701L119.114 54.0748L113.338 51.9892L106.118 49.44L98.0322 45.5004L104.097 50.367L122.29 59.1732L120.269 59.8684L119.402 61.4906H124.312L125.178 62.4176L122.579 62.8811L117.67 65.1985L108.14 69.3699L98.6098 74.9317L94.8556 78.6396L95.4332 80.4935L101.498 74.6999L106.696 72.3825L114.782 69.3699L121.424 67.0524L126.333 66.5889L122.29 68.9064H119.691C119.595 69.2926 119.46 70.0651 119.691 70.0651H124.023L128.644 71.919L124.312 72.3825L119.114 74.2365L127.2 74.4682L123.445 75.8587L125.756 76.5539L123.157 77.2491L125.178 78.1761L122.868 79.103L128.355 79.3348V79.7983L119.114 83.7379L126.622 83.2744L126.911 83.9696L123.445 85.1284H127.777L128.644 85.8236L126.622 86.7506L124.312 87.9093H128.355L127.488 89.068L126.045 90.2267L122.579 90.4584L121.135 89.7632L119.114 89.5315V90.4584L121.135 91.1537L123.157 91.8489L122.29 92.3124L121.135 93.2393H122.29L124.312 93.7028L125.756 94.3981L126.045 95.325L124.601 95.0933L122.868 94.6298L116.515 94.3981L115.359 94.8615L114.782 95.7885L116.226 95.325H120.269L124.889 96.0203V96.7155L122.868 97.179L119.98 98.1059L119.114 99.4964L120.558 99.0329L124.889 98.8012L126.333 99.2647L128.644 100.655L124.023 100.887L124.312 101.35L128.644 102.973L123.734 103.668L125.178 104.131L127.777 105.29L120.846 105.058L117.67 105.522L117.959 105.753H119.114L122.579 106.449L125.178 107.376L130.088 109.925H126.333L125.756 109.23H123.157L122.868 109.693L126.045 111.084L123.445 111.315L123.734 111.779L125.178 112.011L125.756 112.706L123.734 113.401L124.601 113.633L126.622 113.401L127.488 114.56L125.178 114.791H123.157L122.868 113.864L122.002 112.937L121.424 111.779H120.846L120.558 112.474V113.401L121.135 113.864L121.267 114.56H119.691V115.718H121.135H122.579L122.868 116.645L124.601 118.036L124.312 119.195H120.558L119.98 119.658L120.558 119.89L124.023 119.658V120.353L123.445 121.048L122.868 120.817L122.002 121.512L123.445 121.744H125.756Z" fill="#FF4500" stroke="#FF4500"/>
<path d="M121.424 172.456L145.682 177.416L189 136.872L183.224 135.363L172.828 132.559L165.897 129.971L150.88 126.305L143.083 123.286L134.997 120.266L108.717 104.954L100.631 101.504L96.2995 100.21L89.3687 91.5834L85.9032 86.1918L79.8387 81.2316L80.1275 76.9184L74.3518 73.4678H72.0415L63.0891 68.7233L58.1797 67.8607L51.8264 66.998L46.0507 67.8607L39.4086 69.1546L30.1674 72.8209L20.3487 82.3099L21.5038 89.4268L17.7496 93.093L13.7066 95.2496L6.77574 99.5628L1 103.013L3.02151 106.68L12.8403 113.149H26.9908L35.6544 110.993L46.0507 108.621L55.2919 110.993L58.4685 116.6L55.2919 119.619V126.089V130.402V136.441L46.0507 141.185L38.2535 150.027L33.0553 154.988L20.3487 167.712L17.172 175.26L26.9908 177.416L33.0553 175.26L40.8525 170.515L49.8049 160.811H63.9555L78.6836 162.967L90.235 167.712L100.92 170.515L121.424 172.456Z" fill="#FF4500" stroke="#FF4500"/>
<path d="M162.36 217.687L169.578 220.053L168.964 220.784L165.324 219.841L158.351 217.589L146.208 214.186L145.013 214.39L135.895 223.611L134.456 223.7L141.493 214.522L132.164 222.371L128.734 222.799L139.229 213.969L138.006 213.396L128.985 220.88L124.327 222.77L134.548 213.048L118.843 224.018L122.04 219.405L115.448 223.19L124.6 212.712L116.284 219.762L110.705 222.748L115.773 216.721L123.691 209.738L119.152 212.703L115.87 214.984L112.371 217.927L107.497 220.479L103.146 222.004L103.76 221.273L107.321 217.85L111.769 214.588L120.204 208.613L116.74 210.299L113.305 212.762L109.164 215.659L105.33 218.19L102.816 219.557L100.455 220.742L104.909 215.446L109.756 212.116L115.307 208.353L113.777 208.145L109.483 211.224L105.495 213.938L101.172 216.24L98.1067 217.858L95.53 219.706L92.5268 220.844L95.9682 216.346L98.5449 214.499L100.047 213.929L102.316 212.447L106.241 210.213L110.228 207.499L106.275 208.956L102.811 210.642L98.8237 213.356L95.5417 215.637L93.1812 216.822L89.6889 217.73L87.1465 218.321L90.0645 214.851L90.9234 214.235L93.8356 212.799L97.2086 210.816L101.622 208.811L105.883 206.989L106.804 205.894L106.07 205.549L105.303 206.463L102.606 207.236L99.7853 208.968L94.4216 211.292L88.9953 214.095L82.7728 217.034L82.2553 216.027L85.2927 213.631L88.6656 211.648L94.0293 209.325L101.97 205.154L101.236 204.81L98.7219 206.178L92.0728 208.407L86.2484 211.278L79.9349 213.92L75.3733 214.073L77.3357 212.956L81.4139 210.539L88.5237 207.762L91.8341 206.258L94.8089 204.343L87.3919 207.485L81.6017 209.099L73.8208 211.053L69.7484 211.435L74.1338 208.653L82.1309 206.037L91.8116 203.446L90.8959 202.508L71.563 208.466L67.337 209.031L64.1235 208.797L68.1392 206.86L83.2461 201.467L63.8564 205.87L59.0503 205.908L62.7304 203.56L77.496 199.789L61.9684 202.438L57.8676 202.043L57.3501 201.036L69.7551 198.45L65.9899 198.467L61.8891 198.072L58.431 197.724L55.3427 196.53L64.3748 195.927L72.4228 196.9L67.6225 194.904L60.0411 191.348L60.991 191.03L65.8255 191.769L76.7114 195.855L71.8202 193.562L67.8788 190.949L64.8247 188.498L64.7054 187.424L81.4265 195.52L73.9762 188.97L72.1507 185.058L78.9642 189.527L91.6071 200.04L90.936 199.216L87.1825 195.164L81.8138 188.571L78.4017 182.897L80.4208 183.334L86.2785 190.156L92.0453 196.68L96.7771 201.191L96.5951 200.597L89.9469 191.876L85.4714 183.411L87.0014 183.619L90.3568 187.739L96.914 196.162L101.367 201.816L103.051 201.841L98.5692 195.41L94.0937 186.945L93.2465 183.492L96.2096 185.645L97.2446 187.659L105.866 202.143L107.305 202.054L98.8029 188.644L98.843 185.352L101.59 188.169L104.331 193.019L106.583 197.641L109.449 201.532L111.036 203.294L110.888 201.442L108.176 197.369L106.629 192.314L104.252 188.653L105.242 185.043L107.505 185.595L107.989 187.859L110.423 193.075L113.192 198.703L116.388 205.04L115.876 201.999L114.33 196.944L112.294 191.661L111.515 185.693L114.598 188.921L116.941 193.84L118.788 200.564L121.16 206.259L120.193 201.732L119.443 196.541L119.056 192.54L119.899 187.078L122.213 191.219L122.998 195.152L124.925 206.243L123.976 195.611L124.756 190.629L126.7 195.616L128.201 205.996L129.39 207.827L127.974 199.778L127.804 195.114L128.703 191.207L130.346 194.524L131.068 198.937L132.052 208.312L133.246 208.108L131.899 197.544L133.839 193.615L135.482 196.933L136.977 209.348L136.921 196.844L137.689 195.93L140.219 210.359L140.089 202.404L141.232 198.611L142.716 204.145L142.676 207.437L143.028 212.695L143.614 211.188L143.82 203.644L144.656 200.216L146.362 203.054L146.743 209.089L146.088 213.112L151.685 214.972L162.36 217.687Z" fill="#FF4500" stroke="#FF4500"/>
<path d="M169.421 8.24879L175.898 4.21314L176.469 4.95452L172.888 7.37668L165.701 11.622L157.695 15.6537L145.481 22.1413L148.772 25.5675L151.518 28.8513L153.193 34.4227L152.21 34.5611L151.671 32.4456L149.959 30.2215L146.369 26.1252L145.285 23.8674L144.251 22.8077L142.914 23.051L142.229 23.8596L142.959 26.2222L143.791 30.9811L144.273 33.8716L143.938 36.5486L143.083 39.6824L142.157 39.0458L141.13 36.013L139.855 33.508L139.372 30.6176L139.188 28.3973L140.974 23.9269L137.887 25.2933L137.558 25.9972L137.387 28.3222L136.97 31.1752L136.989 33.7474L136.217 36.7052L134.569 40.2246L133.499 42.5122L130.736 45.1478L129.696 46.0613L129.151 45.919L129.98 42.1861L130.81 38.4533L131.145 35.7763L135.922 25.5702L131.225 27.1087L127.164 35.132L124.179 38.8946L119.516 47.5506L118.343 47.442L119.837 40.3283L122.555 34.5213L126.085 30.9011L128.195 27.7L123.308 28.9913L120.811 33.6713L117.909 37.2579L113.777 41.5109L110.906 43.7235L109.188 43.4725L112.837 36.329L120.468 29.8298L115.828 30.5932L115.226 31.2259L112.709 33.3337L110.276 35.2655L106.092 38.3203L100.438 40.5963L96.7808 41.2213L95.1706 41.3934L92.4445 40.6818L97.2749 40.1655L100.609 38.2712L109.628 32.7269L110.75 31.6374L105.616 33.4567L94.2878 35.4364L81.3555 35.6151L89.0258 34.2604L105.729 31.9066L102.946 31.9701L92.5558 30.6401L86.0131 28.9322L84.5421 28.1533L83.3496 25.4725L85.2266 27.3447L89.1255 28.1649L95.9977 29.1689L100.962 29.6748L106.471 30.3229L110.725 31.0384L116.867 29.6797L97.9488 24.3466L96.2053 23.4966L94.7343 22.7177L92.7182 21.7965C92.3462 21.5019 91.5477 20.8985 91.3296 20.8416C91.057 20.7704 89.8586 20.0627 89.3134 19.9204C88.8772 19.8065 88.5145 19.4486 88.3877 19.2838L86.8088 18.0818L88.1719 18.4376L91.9885 19.4339L96.8955 20.7147L100.002 21.9206L103.927 23.3399L107.851 24.7593L110.66 25.2949L113.221 26.3584L115.237 27.2796L118.236 28.0624L118.616 28.5566L120.252 28.9836L125.932 27.3067L118.381 25.1382L114.755 24.3891L113.011 23.5391L111.267 22.689L108.598 21.2024L106.392 20.0341C105.838 19.6921 104.676 18.9938 104.458 18.9369C104.24 18.88 102.824 17.8522 102.144 17.3455L100.374 15.8963L99.1506 14.5895L101.414 14.9829L102.967 15.5858L104.356 16.5406L105.935 17.7426L109.231 19.1956L114.246 20.8996L116.453 22.0679L118.361 22.566L120.377 23.4872L122.476 24.2325L124.873 25.648L127.979 26.8538L134.286 25.1432L128.454 23.2258L126.52 22.1286L123.141 20.8516L119.191 18.8332L117.339 17.5601L115.488 16.2869L113.693 14.2387L111.543 12.2954L109.311 10.528L107.676 10.101L104.049 9.3519L105.824 8.82787L111.277 10.2511L111.112 10.603L112.665 11.2059L115.144 12.4454L120.4 15.5946L128.244 20.4065L135.269 25.0048L138.273 23.8144L135.769 21.9758L132.256 19.6767L129.644 17.415L126.682 13.285L124.868 8.66462L128.077 12.2667L131.887 15.2361L135.071 18.2391L137.163 20.9575L139.585 22.9721L141.798 22.1673L140.574 20.8605L137.498 18.2805L135.38 14.9631L132.362 11.6081L136.8 14.5438L139.793 17.2997L142.133 19.4902L143.845 21.7144L152.833 17.5441L169.421 8.24879Z" fill="#FF4500" stroke="#FF4500"/>
</svg>
