<?xml version="1.0" encoding="utf-8"?>
<!-- Generator: Adobe Illustrator 27.6.1, SVG Export Plug-In . SVG Version: 6.00 Build 0)  -->
<svg version="1.1" xmlns="http://www.w3.org/2000/svg" xmlns:xlink="http://www.w3.org/1999/xlink" x="0px" y="0px"
	 viewBox="0 0 1187.17 497.43" style="enable-background:new 0 0 1187.17 497.43;" xml:space="preserve">
<style type="text/css">
	.st0{fill:#362A2D;}
	.st1{fill:#E6E7E8;}
	.st2{fill:#D1D3D4;}
	.st3{fill:#6A575A;}
	.st4{fill:#544447;}
	.st5{fill:none;stroke:#A7A9AC;stroke-linecap:round;stroke-miterlimit:10;}
	.st6{fill:none;stroke:#601708;stroke-width:4;stroke-miterlimit:10;}
	.st7{fill:#47373A;}
	.st8{fill:none;stroke:#000000;stroke-linecap:round;stroke-linejoin:round;stroke-miterlimit:10;}
	.st9{fill:#78421B;}
	.st10{fill:#9D5627;}
	.st11{fill:#945024;}
	.st12{fill:#514244;}
	.st13{fill:#362A2C;}
	.st14{fill:#231F20;}
	.st15{fill:none;stroke:#000000;stroke-linecap:round;stroke-miterlimit:10;}
	.st16{fill:none;stroke:#231F20;stroke-width:2;stroke-miterlimit:10;}
	.st17{fill:#EAD2A8;}
	.st18{fill:#DFC69B;}
	.st19{fill:none;stroke:#C7AD7E;stroke-linecap:round;stroke-linejoin:round;stroke-miterlimit:10;}
	.st20{fill:#EFDDBD;}
	.st21{fill:#F1F2F2;}
	.st22{opacity:0.17;fill:#F1F2F2;}
	.st23{opacity:0.35;fill:#F1F2F2;}
</style>
<g id="BACKGROUND">
</g>
<g id="OBJECTS">
	<g>
		<g>
			<path class="st0" d="M1066.76,166.98c2.22-6.26,7.53-46.52,14.61-48.02c7.09-1.5,10.18,57.59,10.18,57.59L1066.76,166.98z"/>
			<path class="st1" d="M1187.17,261.45l-49.92-31.99l-6.98-25.16l-10.75-17.94l-57.97-37.33c0,0-3.84,4.85-32.82,17.47
				c-28.98,12.62-44.59,21.73-44.59,21.73s-28.23,11.02-34.3,21.47c-6.07,10.45,29.06,27.96,26.69,28.02
				c-2.37,0.06-27.67,5.97-51.36,20.64c-19.64,12.16-42.75,40.17-42.75,40.17s29.89,23,43.46,27.4
				c13.58,4.41,12.26,14.73,12.26,14.73l24.66,4.12l7.43,11.69l57,30.22l23.48,19.99c0,0,5.5-1.72,13.8-17.78
				c8.3-16.05,11.39-19.3,17.93-42.43c6.54-23.13,1.77-23.8,7.01-35.82c5.24-12.01,6.72-16.01,6.72-16.01s38.88,2.97,54.61-1.39
				c15.73-4.36,18.88-9.1,18.88-9.1L1187.17,261.45z"/>
			<path class="st2" d="M1140.23,289.84c-5.61-0.71-11.15-0.86-16.79-1c-5.85-0.15-11.75-0.67-17.29-2.66
				c-4.73-1.7-8.17-5.44-12.66-7.55c-1.65-0.77-3.19-0.02-4.86,0.4c-2.67,0.67-5.12,0.25-7.81-0.05c-3.3-0.37-6.6-0.87-9.77-1.81
				c2.4,12.37,6.25,24.46,8.04,36.95c0.18,1.25-0.61,2.21-1.66,2.67c0.15,2.47,0.14,4.95-0.02,7.4c-0.63,9.91-3.33,19.58-7.21,28.69
				c-3.55,8.33-8.2,16.53-14.43,23.16c-1.35,1.44-3.42,0.67-4.1-0.97c-0.87-2.1-1.72-4.2-2.47-6.33c-4,6.19-9.2,11.78-14.7,16.49
				c-1.49,1.28-3.05,2.52-4.66,3.7l20.86,17.76c0,0,5.5-1.72,13.8-17.78c8.3-16.05,11.39-19.3,17.93-42.43
				c6.54-23.13,1.77-23.8,7.01-35.82c5.24-12.01,6.72-16.01,6.72-16.01s38.88,2.97,54.61-1.39c1.65-0.46,3.21-0.92,4.71-1.39
				C1150.39,291.2,1145.31,290.49,1140.23,289.84z"/>
			<path class="st3" d="M1178.64,272.25c0.68,0.46-0.99,0.43-0.27,0.76l8.8-11.56l-19.44-12.46
				C1168.45,252.95,1174.9,269.73,1178.64,272.25z"/>
			<path class="st3" d="M938.14,340.66l24.66,4.12l7.43,11.69l18.72,9.93c8.94-4.25,17.19-10.17,22.69-18.53
				c1.68-2.55,5.55-1.65,5.89,1.05c1.53-1.5,2.88-3.19,3.99-5.09c1.53-2.62,5.38-1.69,5.76,1.18c3.58-3.75,6.71-8.06,8.18-13.02
				c0.62-2.07,2.57-2.68,4.44-1.94c0.42,0.16,1.53,0.29,2.41,0.46c0.8-5.89-0.61-11.94-1.75-17.72c-0.71-3.63-1.42-7.3-1.62-11.01
				c-0.19-3.6,0.33-7.04,1.21-10.52c1.39-5.47,4.49-10.41,4.01-16.21c-0.25-3.02-1.66-6.09-3.04-8.76
				c-1.28-2.49-2.83-4.83-4.06-7.34c-2.76-5.62-2.96-11.31-0.88-17.22c1.63-4.63,4.22-8.74,8.14-11.76
				c6.78-5.23,15.83-5.76,23.98-6.86c7.34-1,14.85-2.73,19.54-8.63c-0.88-1.08-0.28-3.05,1.12-3.65c4.57-1.95,9.3-3.5,13.9-5.38
				c-3.27-6.2-9.11-10.93-8.73-18.56c0.04-0.84,0.69-1.8,1.65-1.73c7.97,0.57,14.52,4.12,19.53,10.31
				c3.56,4.39,6.24,9.39,9.11,14.25c0.45-0.15,0.97-0.05,1.41,0.46c4.21,4.86,7.61,10.4,8.78,16.77c0.64,0.19,1.35,0.39,2.08,0.55
				l-6.43-23.18l-10.75-17.94l-57.97-37.33c0,0-3.84,4.85-32.82,17.47c-28.98,12.62-44.59,21.73-44.59,21.73
				s-28.23,11.02-34.3,21.47c-6.07,10.45-4.81,20.66-4.81,20.66s12.69-1.29,10.32-1.23l-8.49,13.53
				c-6.77,3.44-18.37,3.61-27.58,10.58c-18.43,13.93-36.86,45.29-36.86,45.29s29.89,23,43.46,27.4
				C939.46,330.33,938.14,340.66,938.14,340.66z"/>
			<path class="st4" d="M1130.27,204.3l-10.75-17.94l-57.97-37.33c0,0-2.72,3.44-20.89,12.06c0.09,0.49,0.14,0.99,0.13,1.51
				c-0.17,6.1-3.88,11.42-7.35,16.13c-1.96,2.66-4.03,5.25-6.02,7.89c-0.97,1.28-1.94,2.6-2.77,4c7.13,2.75,10.73,9.67,11.66,17.24
				c0.98,8.07-0.73,16.49-3.88,23.92c-1.48,3.49-3.41,6.82-5.86,9.72c-2.48,2.95-5.41,4.78-8.84,6.44
				c-3.26,1.58-6.93,3.07-9.44,5.68c-2.59,2.7-3.52,6.66-3.92,10.39c-0.3,2.76-0.46,5.54,0.24,8.25c0.63,2.48,1.72,4.77,2.94,7.01
				c2.65,4.86,5.68,9.58,6.72,15.11c0.38,2.03-0.7,3.42-2.69,3.73c-4.57,0.72-9.32-0.37-13.36-2.65
				c-2.05,7.94-7.29,15.26-14.44,19.22c-1.44,0.8-3.43,0.5-4.31-1.01c-1.02-1.75-2.58-3.07-4.11-4.41
				c-3.96,4.44-9.2,7.76-15.13,8.77c-2.19,0.37-3.98-0.74-4.21-3.04c-0.01-0.08-0.06-0.25-0.14-0.45c-3.7,2.23-7.49,4.29-11.38,6.19
				c-4.93,2.41-10.01,4.61-15.2,6.58c9.95,4.87,8.86,13.37,8.86,13.37l24.66,4.12l7.43,11.69l18.72,9.93
				c8.94-4.25,17.19-10.17,22.69-18.53c1.68-2.55,5.55-1.65,5.89,1.05c1.53-1.5,2.88-3.19,3.99-5.09c1.53-2.62,5.38-1.69,5.76,1.18
				c3.58-3.75,6.71-8.06,8.18-13.02c0.62-2.07,2.57-2.68,4.44-1.94c0.42,0.16,1.53,0.29,2.41,0.46c0.8-5.89-0.61-11.94-1.75-17.72
				c-0.71-3.63-1.42-7.3-1.62-11.01c-0.19-3.6,0.33-7.04,1.21-10.52c1.39-5.47,4.49-10.41,4.01-16.21
				c-0.25-3.02-1.66-6.09-3.04-8.76c-1.28-2.49-2.83-4.83-4.06-7.34c-2.76-5.62-2.96-11.31-0.88-17.22
				c1.63-4.63,4.22-8.74,8.14-11.76c6.78-5.23,15.83-5.76,23.98-6.86c7.34-1,14.85-2.73,19.54-8.63c-0.88-1.08-0.28-3.05,1.12-3.65
				c4.57-1.95,9.3-3.5,13.9-5.38c-3.27-6.2-9.11-10.93-8.73-18.56c0.04-0.84,0.69-1.8,1.65-1.73c7.97,0.57,14.52,4.12,19.53,10.31
				c3.56,4.39,6.24,9.39,9.11,14.25c0.45-0.15,0.97-0.05,1.41,0.46c4.21,4.86,7.61,10.4,8.78,16.77c0.64,0.19,1.35,0.39,2.08,0.55
				L1130.27,204.3z"/>
			<path class="st3" d="M1067.92,119.56c0,0-5.6-2.23-8.52,7.34s-27.31,46.97-27.21,51.15c0.11,4.18,10.45,37.18,10.45,37.18
				s15.67-6.77,27.25-18.53c11.58-11.76,5.04-19.74,5.04-19.74s-2.41-4.54,1.43-10.24C1080.2,161.04,1067.92,119.56,1067.92,119.56z
				"/>
			<path class="st1" d="M1059.13,145.55c0.17-0.58,0.66-1.07,1.24-1.24c-4.81,11.12-8.59,22.69-11.29,34.51
				c0.7-0.34,1.41-0.68,2.11-1.01c-2.42,8.49-1.4,17.54-0.35,26.31c0.39,3.31,1.46,7.39,4.74,8.01c7.47-2.86,14.53-6.81,20.88-11.67
				c0.75-0.58,1.52-1.2,1.93-2.06c0.4-0.84,0.4-1.81,0.38-2.74c-0.17-7.42-1.1-14.81-2.79-22.04c-0.22-0.93-0.06-2.34,0.89-2.25
				c-1.05-1.27-1.97-2.7-2.36-4.3c-0.83-3.39,0.52-7.71-2.16-9.94c0.5,0.48,0.99,0.95,1.49,1.43c-0.28-0.27-0.09-2.28-0.12-2.72
				c-0.05-0.95-0.12-1.9-0.21-2.85c-0.16-1.85-0.38-3.7-0.65-5.54c-0.55-3.72-1.32-7.42-2.31-11.05c-0.99-3.66-2.21-7.25-3.63-10.76
				c-0.31-0.75-0.68-1.46-1.16-0.46c-0.42,0.86-0.73,1.79-1.08,2.68c-0.69,1.77-1.35,3.56-1.96,5.36
				C1061.32,137.25,1060.12,141.38,1059.13,145.55z"/>
			<path class="st1" d="M1070.52,149.54c-0.24,0.52-0.47,1.06-0.71,1.58c0.35,0.16,0.7,0.31,1.06,0.46
				c-0.07-1.71-0.2-3.42-0.37-5.13c-0.43,1.43-0.87,2.85-1.25,4.29C1069.44,150.17,1069.93,149.7,1070.52,149.54z"/>
			<path class="st2" d="M1075.96,173.61c-0.22-0.93-0.06-2.34,0.89-2.25c-1.05-1.27-1.97-2.7-2.36-4.3
				c-0.83-3.39,0.52-7.71-2.16-9.94c0.5,0.48,0.99,0.95,1.49,1.43c-0.28-0.27-0.09-2.28-0.12-2.72c-0.05-0.95-0.12-1.9-0.21-2.85
				c-0.16-1.85-0.38-3.7-0.65-5.54c-0.55-3.72-1.32-7.42-2.31-11.05c-0.99-3.66-2.21-7.25-3.63-10.76
				c-0.31-0.75-0.68-1.46-1.16-0.46c-0.42,0.86-0.73,1.79-1.08,2.68c-0.54,1.37-1.03,2.76-1.52,4.15c0.07,0.22,0.14,0.44,0.21,0.66
				c1.63,5.67,2.62,11.6,2.84,17.5c0.08,2.13-2.13,3.14-3.89,2.37c-0.3-0.13-0.6-0.25-0.9-0.37c1.08,6.69,2.33,13.35,3.24,20.06
				c1.57,11.69,2.33,23.39-2.66,34.41c-0.56,1.23-1.19,2.43-1.86,3.6c5.79-2.62,11.29-5.9,16.33-9.76c0.75-0.58,1.52-1.2,1.93-2.06
				c0.4-0.84,0.4-1.81,0.38-2.74C1078.59,188.23,1077.65,180.83,1075.96,173.61z"/>
			<path class="st0" d="M1112.78,228.48c0.08,3.18-2.43,5.83-5.61,5.91c-3.18,0.08-5.83-2.43-5.91-5.61
				c-0.08-3.18,2.43-5.83,5.61-5.91C1110.05,222.78,1112.7,225.3,1112.78,228.48z"/>
			<g>
				<path d="M1105.67,191.56c-0.22,0-0.44-0.11-0.57-0.31l-4.8-7.51c-0.2-0.32-0.11-0.74,0.21-0.94c0.32-0.2,0.73-0.11,0.94,0.21
					l4.8,7.51c0.2,0.32,0.11,0.74-0.21,0.94C1105.92,191.53,1105.8,191.56,1105.67,191.56z"/>
			</g>
			<g>
				<path d="M1109.83,192.47c-0.28,0-0.54-0.17-0.64-0.44l-3.74-10.12c-0.13-0.35,0.05-0.74,0.4-0.87c0.35-0.13,0.74,0.05,0.87,0.4
					l3.74,10.12c0.13,0.35-0.05,0.74-0.4,0.87C1109.98,192.46,1109.91,192.47,1109.83,192.47z"/>
			</g>
			<g>
				<path d="M1114.46,196.46c-0.33,0-0.62-0.25-0.67-0.59l-1.19-8.64c-0.05-0.37,0.21-0.71,0.58-0.76c0.37-0.05,0.71,0.21,0.76,0.58
					l1.19,8.64c0.05,0.37-0.21,0.71-0.58,0.76C1114.52,196.45,1114.49,196.46,1114.46,196.46z"/>
			</g>
			<g>
				<path d="M1117.57,200.97c-0.37,0-0.67-0.29-0.68-0.66l-0.18-7.13c-0.01-0.37,0.29-0.69,0.66-0.7c0.42,0.03,0.69,0.29,0.7,0.66
					l0.18,7.13c0.01,0.37-0.29,0.69-0.66,0.7C1117.58,200.97,1117.58,200.97,1117.57,200.97z"/>
			</g>
			<path class="st5" d="M1104.38,274.9c7.67,6.17,24.17,6.37,33.75,8.64c11.86,2.81,12.94,3.75,23.21,6.37"/>
			<g>
				<path d="M1084.99,210.41c-0.37,0-0.67-0.29-0.68-0.66c-0.01-0.37,0.29-0.68,0.66-0.69c5.54-0.12,10.97-1.72,15.69-4.62
					c0.32-0.2,0.74-0.1,0.93,0.23c0.2,0.32,0.1,0.74-0.22,0.93c-4.93,3.02-10.59,4.68-16.37,4.82
					C1085,210.41,1084.99,210.41,1084.99,210.41z"/>
			</g>
			<g>
				<path d="M1083.91,213.63c-0.36,0-0.66-0.28-0.68-0.64c-0.02-0.37,0.26-0.7,0.64-0.72c2.95-0.18,5.89-1.02,8.48-2.44
					c0.33-0.18,0.74-0.06,0.92,0.27c0.18,0.33,0.06,0.74-0.27,0.92c-2.77,1.51-5.9,2.41-9.05,2.6
					C1083.94,213.63,1083.92,213.63,1083.91,213.63z"/>
			</g>
			<g>
				<path d="M1083.52,216.74c-0.24,0-0.48-0.13-0.6-0.36c-0.18-0.33-0.05-0.74,0.28-0.92c0.94-0.5,2-0.8,3.06-0.86
					c0.37-0.04,0.69,0.26,0.72,0.64c0.02,0.37-0.26,0.7-0.64,0.72c-0.87,0.05-1.73,0.29-2.5,0.7
					C1083.73,216.71,1083.62,216.74,1083.52,216.74z"/>
			</g>
			<g>
				<path d="M1032.75,172.82c-0.08,0-0.16-0.01-0.24-0.05c-0.35-0.14-0.52-0.53-0.39-0.88c0.72-1.87,2.06-3.43,3.25-4.81l5.83-6.79
					c0.25-0.28,0.67-0.31,0.96-0.07c0.28,0.24,0.32,0.67,0.07,0.96l-5.83,6.79c-1.17,1.36-2.38,2.77-3.01,4.42
					C1033.28,172.66,1033.02,172.82,1032.75,172.82z"/>
			</g>
			<g>
				<path d="M1030.83,178.85c-0.09,0-0.17-0.02-0.26-0.05c-0.35-0.14-0.51-0.54-0.37-0.88c1.25-3.04,3.17-5.83,5.57-8.08
					c0.27-0.25,0.7-0.24,0.96,0.03c0.26,0.27,0.24,0.7-0.03,0.96c-2.26,2.12-4.07,4.75-5.24,7.61
					C1031.35,178.7,1031.1,178.85,1030.83,178.85z"/>
			</g>
			<g>
				<path d="M1032.19,182.2c-0.06,0-0.12-0.01-0.18-0.02c-0.36-0.1-0.58-0.47-0.48-0.83c0.52-1.92,1.47-3.74,2.75-5.27
					c0.24-0.29,0.67-0.32,0.96-0.08c0.29,0.24,0.32,0.67,0.08,0.96c-1.15,1.38-2.01,3.02-2.48,4.75
					C1032.76,182,1032.49,182.2,1032.19,182.2z"/>
			</g>
			<g>
				<path d="M1033.26,182.98c-0.16,0-0.32-0.06-0.45-0.17c-0.28-0.25-0.31-0.68-0.06-0.96l0.52-0.58c0.25-0.28,0.68-0.31,0.96-0.06
					c0.28,0.25,0.31,0.68,0.06,0.96l-0.52,0.58C1033.63,182.91,1033.44,182.98,1033.26,182.98z"/>
			</g>
			<g>
				<path d="M949.21,231.49c-0.01,0-0.02,0-0.02,0c-0.37-0.01-0.67-0.33-0.66-0.7c0.32-9.69,4.59-19.03,11.72-25.6
					c0.28-0.25,0.7-0.24,0.96,0.04c0.25,0.28,0.24,0.7-0.04,0.96c-6.86,6.33-10.98,15.32-11.28,24.65
					C949.88,231.2,949.58,231.49,949.21,231.49z"/>
			</g>
			<g>
				<path d="M952.14,231.4c-0.03,0-0.06,0-0.09-0.01c-0.37-0.05-0.63-0.39-0.58-0.77c1.14-8.1,4.48-15.73,9.68-22.05
					c0.24-0.29,0.67-0.33,0.95-0.09c0.29,0.24,0.33,0.67,0.09,0.96c-5.04,6.13-8.28,13.52-9.38,21.38
					C952.76,231.15,952.47,231.4,952.14,231.4z"/>
			</g>
			<g>
				<path d="M954.85,229.94c-0.05,0-0.09,0-0.14-0.01c-0.37-0.08-0.6-0.44-0.52-0.8c0.62-2.96,1.67-5.8,3.11-8.45
					c0.18-0.33,0.59-0.45,0.92-0.27c0.33,0.18,0.45,0.59,0.27,0.92c-1.38,2.54-2.38,5.26-2.98,8.08
					C955.45,229.72,955.17,229.94,954.85,229.94z"/>
			</g>
			<g>
				<path d="M957.48,229.08c-0.05,0-0.11-0.01-0.17-0.02c-0.36-0.09-0.58-0.46-0.49-0.82l0.77-3.05c0.09-0.36,0.46-0.58,0.82-0.49
					c0.36,0.09,0.58,0.46,0.49,0.82l-0.77,3.05C958.06,228.88,957.78,229.08,957.48,229.08z"/>
			</g>
			<g>
				<path d="M1011.03,303c-0.07,0-0.15-0.01-0.22-0.04c-0.35-0.12-0.55-0.5-0.43-0.86c0.93-2.75,0.52-5.79,0-8.39
					c-1.1-5.49-3.02-10.77-5.69-15.7c-0.18-0.33-0.06-0.74,0.27-0.92c0.33-0.18,0.74-0.06,0.92,0.27c2.74,5.04,4.7,10.45,5.83,16.07
					c0.56,2.78,0.99,6.04-0.04,9.09C1011.57,302.82,1011.31,303,1011.03,303z"/>
			</g>
			<g>
				<path d="M1007.9,301.75c-0.01,0-0.02,0-0.03,0c-0.37-0.02-0.67-0.33-0.65-0.71c0.27-6.46-0.94-13-3.5-18.94
					c-0.15-0.34,0.01-0.74,0.35-0.89c0.34-0.15,0.74,0.01,0.89,0.35c2.64,6.12,3.89,12.88,3.61,19.53
					C1008.56,301.47,1008.26,301.75,1007.9,301.75z"/>
			</g>
			<g>
				<path d="M1003.57,301.55c-0.04,0-0.08,0-0.13-0.01c-0.37-0.07-0.61-0.43-0.54-0.79c0.63-3.34,0.62-6.88-0.03-10.22
					c-0.07-0.37,0.17-0.72,0.54-0.8c0.36-0.08,0.72,0.17,0.8,0.53c0.69,3.51,0.7,7.22,0.03,10.73
					C1004.18,301.33,1003.89,301.55,1003.57,301.55z"/>
			</g>
			<g>
				<path d="M1000.93,298.9c-0.03,0-0.06,0-0.09-0.01c-0.37-0.05-0.63-0.39-0.58-0.76l0.5-3.59c0.05-0.37,0.39-0.63,0.76-0.58
					c0.37,0.05,0.63,0.39,0.58,0.76l-0.5,3.59C1001.55,298.65,1001.26,298.9,1000.93,298.9z"/>
			</g>
			<g>
				<path d="M1085.22,331.83c-0.05,0-0.09-0.01-0.14-0.01c-0.37-0.08-0.6-0.44-0.52-0.81c1.98-9.28,1.17-19.25-2.28-28.09
					c-0.14-0.35,0.04-0.74,0.38-0.88c0.35-0.14,0.74,0.04,0.88,0.39c3.55,9.08,4.38,19.33,2.35,28.87
					C1085.81,331.61,1085.53,331.83,1085.22,331.83z"/>
			</g>
			<g>
				<path d="M1083.51,325.49c0,0-0.01,0-0.01,0c-0.38-0.01-0.67-0.32-0.67-0.69c0.13-6.75-0.89-13.41-3.03-19.81
					c-0.12-0.36,0.07-0.74,0.43-0.86c0.36-0.12,0.74,0.07,0.86,0.43c2.19,6.55,3.23,13.37,3.1,20.27
					C1084.18,325.19,1083.88,325.49,1083.51,325.49z"/>
			</g>
			<g>
				<path d="M1079.09,324.19c-0.09,0-0.18-0.02-0.27-0.06c-0.34-0.15-0.5-0.55-0.35-0.89c1.08-2.44,0.62-5.43,0.26-7.83l-1.32-8.61
					c-0.06-0.37,0.2-0.72,0.57-0.77c0.37-0.06,0.72,0.2,0.77,0.57l1.32,8.61c0.39,2.58,0.89,5.79-0.36,8.59
					C1079.6,324.04,1079.35,324.19,1079.09,324.19z"/>
			</g>
			<g>
				<path d="M1076.64,320.71c-0.02,0-0.04,0-0.07,0c-0.37-0.04-0.65-0.37-0.61-0.74c0.31-3.24-0.06-6.58-1.08-9.68
					c-0.12-0.36,0.08-0.74,0.43-0.86c0.36-0.11,0.74,0.08,0.86,0.43c1.07,3.27,1.47,6.81,1.14,10.23
					C1077.28,320.45,1076.98,320.71,1076.64,320.71z"/>
			</g>
			<g>
				<path d="M1073.12,318.3c-0.01,0-0.02,0-0.03,0c-0.37-0.02-0.66-0.33-0.65-0.71c0.08-1.79-0.06-3.58-0.43-5.33
					c-0.08-0.37,0.16-0.73,0.53-0.8c0.36-0.09,0.73,0.16,0.8,0.53c0.38,1.86,0.54,3.77,0.45,5.67
					C1073.78,318.02,1073.48,318.3,1073.12,318.3z"/>
			</g>
			<g>
				<path d="M1069.26,316.73c-0.24,0-0.48-0.13-0.6-0.36c-0.49-0.93-0.57-2.04-0.23-3.04c0.12-0.36,0.51-0.54,0.86-0.42
					c0.35,0.12,0.54,0.51,0.42,0.86c-0.22,0.63-0.17,1.37,0.15,1.96c0.17,0.33,0.05,0.74-0.29,0.92
					C1069.47,316.7,1069.37,316.73,1069.26,316.73z"/>
			</g>
			<g>
				<path d="M1034.4,249.07c-0.02,0-0.03,0-0.05,0c-0.37-0.03-0.65-0.36-0.63-0.73c0.68-8.93,6.61-17.43,14.76-21.14
					c0.34-0.16,0.74-0.01,0.9,0.34c0.16,0.34,0,0.74-0.34,0.9c-7.71,3.51-13.33,11.55-13.97,20
					C1035.04,248.8,1034.75,249.07,1034.4,249.07z"/>
			</g>
			<g>
				<path d="M1033.21,240.25c-0.07,0-0.14-0.01-0.21-0.03c-0.36-0.12-0.55-0.5-0.43-0.86c1.74-5.3,5.81-9.85,10.89-12.16
					c0.34-0.15,0.74-0.01,0.9,0.34c0.16,0.34,0.01,0.74-0.34,0.9c-4.74,2.16-8.54,6.41-10.16,11.35
					C1033.76,240.07,1033.5,240.25,1033.21,240.25z"/>
			</g>
			<g>
				<path d="M1030.53,235.77c-0.09,0-0.18-0.02-0.27-0.06c-0.34-0.15-0.5-0.55-0.35-0.89c1.72-3.92,5-7.06,9-8.6
					c0.35-0.14,0.74,0.04,0.88,0.39c0.13,0.35-0.04,0.74-0.39,0.88c-3.66,1.41-6.67,4.28-8.25,7.87
					C1031.04,235.62,1030.79,235.77,1030.53,235.77z"/>
			</g>
			<g>
				<path d="M1029.64,229.69c-0.14,0-0.27-0.04-0.39-0.13c-0.3-0.22-0.37-0.64-0.16-0.95c1.97-2.74,4.98-4.79,8.25-5.6
					c0.36-0.09,0.73,0.13,0.82,0.49c0.09,0.36-0.13,0.73-0.49,0.82c-2.97,0.74-5.7,2.59-7.48,5.08
					C1030.06,229.59,1029.85,229.69,1029.64,229.69z"/>
			</g>
			<g>
				<path d="M1028.63,224.6c-0.19,0-0.38-0.08-0.51-0.23c-0.25-0.28-0.22-0.71,0.06-0.96c2.12-1.86,5.06-2.78,7.86-2.44
					c0.37,0.04,0.64,0.38,0.59,0.75c-0.04,0.37-0.38,0.65-0.75,0.59c-2.43-0.28-4.97,0.5-6.81,2.12
					C1028.95,224.54,1028.79,224.6,1028.63,224.6z"/>
			</g>
			<g>
				<path d="M1030.2,220.9c-0.18,0-0.36-0.07-0.49-0.21c-0.26-0.27-0.24-0.7,0.03-0.96c0.86-0.81,2.06-1.17,3.22-0.99
					c0.37,0.06,0.62,0.41,0.56,0.78c-0.06,0.37-0.41,0.62-0.78,0.56c-0.74-0.12-1.54,0.13-2.08,0.64
					C1030.53,220.84,1030.37,220.9,1030.2,220.9z"/>
			</g>
			<g>
				<path d="M979.35,317.67c-0.24,0-0.48-0.13-0.6-0.36c-0.18-0.33-0.05-0.74,0.28-0.92c5.39-2.9,9.89-7.49,12.69-12.93
					c0.17-0.33,0.58-0.47,0.91-0.29c0.33,0.17,0.46,0.58,0.29,0.91c-2.92,5.68-7.62,10.48-13.25,13.51
					C979.56,317.65,979.45,317.67,979.35,317.67z"/>
			</g>
			<g>
				<path d="M977.53,313.89c-0.28,0-0.54-0.17-0.64-0.45c-0.12-0.35,0.06-0.74,0.41-0.87c3.14-1.1,5.84-3.57,7.22-6.6
					c0.16-0.34,0.56-0.49,0.9-0.34c0.34,0.15,0.49,0.56,0.34,0.9c-1.53,3.36-4.52,6.09-8,7.32
					C977.69,313.88,977.61,313.89,977.53,313.89z"/>
			</g>
			<g>
				<path d="M976.43,310.34c-0.22,0-0.44-0.11-0.57-0.32c-0.2-0.32-0.11-0.74,0.21-0.94c1.93-1.22,3.5-2.94,4.52-4.98
					c0.17-0.34,0.57-0.47,0.91-0.3c0.33,0.17,0.47,0.58,0.3,0.91c-1.14,2.26-2.87,4.17-5.01,5.52
					C976.68,310.31,976.55,310.34,976.43,310.34z"/>
			</g>
		</g>
		<g>
			<g>
				<path d="M1158.43,306.74"/>
			</g>
		</g>
		<g>
			<path class="st6" d="M1045.12,276.69"/>
			<path class="st6" d="M951.2,235.73"/>
		</g>
	</g>
	<g>
		<g>
			<path class="st4" d="M526.36,124.42c-11.48-1.97-31.9-3.31-37.46,4.88c-5.57,8.18-39.45,30.64-41.76,35.51
				c-2.31,4.86-3.51,18.84-0.03,21.43c9.17,6.83,25.64-4.03,29.92-18.08c3.98,2.49,12.45,8.09,12.45,8.09L526.36,124.42z"/>
			<path class="st7" d="M478.58,148.08c-1.87,6.38-1.71,13.13-3.2,19.56c0.53,0.42,0.98,0.84,1.39,1.26
				c0.08-0.25,0.17-0.49,0.25-0.75c3.98,2.49,12.45,8.09,12.45,8.09l30.97-43.52C504.85,128.82,483.94,129.84,478.58,148.08z"/>
			<path class="st4" d="M591.26,124.42c11.48-1.97,31.9-3.31,37.46,4.88c5.57,8.18,39.45,30.64,41.76,35.51
				c2.31,4.86,3.51,18.84,0.03,21.43c-9.17,6.83-25.64-4.03-29.92-18.08c-3.98,2.49-12.45,8.09-12.45,8.09L591.26,124.42z"/>
			<path class="st7" d="M640.4,167c-1.68-12.08-3.65-22.85-14.55-29.9c-0.85-0.55-1.74-1.05-2.63-1.52
				c-5.21-2.16-10.68-3.64-16.26-4.32c-3.44-0.16-6.89,0.14-10.23,0.84l31.42,44.15c0,0,8.46-5.6,12.45-8.09
				C640.53,167.76,640.45,167.4,640.4,167z"/>
			<path class="st4" d="M645.47,287.7c-4.9-6.14-10.68-11.62-14.78-18.31c-5.15-8.41-7.4-18.57-6.27-28.37l-65.61,36.23
				l-65.61-36.23c1.13,9.8-1.12,19.96-6.27,28.37c-4.1,6.7-9.88,12.18-14.78,18.31c-12.88,16.15-19.22,39.76-8.82,57.6
				c4.85,8.32,12.77,14.47,21.2,19.13c16.01,8.85,56.02,13.22,74.28,12.06c18.26,1.15,58.26-3.21,74.28-12.06
				c8.43-4.66,16.35-10.8,21.2-19.13C664.69,327.45,658.35,303.84,645.47,287.7z"/>
			<path class="st7" d="M653.19,299.89c-0.7,1.37-1.5,2.67-2.4,3.84c-1.09,1.41-2.8,1.5-4.07,0.89c0.41,3.94-0.7,7.38-2.8,10.34
				c-1.73,4.36-4.39,8.26-8.47,11.12c-7.2,5.03-16.19,5.37-24.59,4.27c-0.41-0.05-0.74-0.19-1.04-0.37
				c-1.21,4.08-4.04,6.85-7.6,8.31c-0.16,0.07-0.32,0.13-0.48,0.19c-0.09,0.03-0.18,0.07-0.28,0.1c-0.59,0.22-1.21,0.41-1.86,0.54
				c-0.4,0.08-0.81,0.15-1.22,0.2c-5.4,0.79-11.53-0.82-15.99-4.75c-0.33-0.29-0.55-0.61-0.7-0.95c-6.98,1.03-14.01,1.71-21.03,2.01
				c-9.25,0.4-18.72,0.55-27.92-0.72c-6.01-0.83-11.99-2.26-17.79-4.26c-0.39,0.52-0.91,1-1.63,1.4
				c-16.39,9.04-31.62-7.96-32.66-23.79c-2.17-2.63-4.09-5.47-5.58-8.54c-1.79-3.65-2.89-7.51-3.37-11.45
				c-12.58,16.13-18.65,39.39-8.37,57.02c4.85,8.32,12.77,14.47,21.2,19.13c16.01,8.85,56.02,13.22,74.28,12.06
				c18.26,1.15,58.26-3.21,74.28-12.06c8.43-4.66,16.35-10.8,21.2-19.13C662.29,331.57,660.37,314.43,653.19,299.89z"/>
			<path class="st4" d="M629.17,167.26c-2.84-13.34-23.49-34.62-30.93-42.84c-6.45-7.14-22.16-8.39-34.47-6.77
				c-3.5,0.46-7.03,0.56-10.55,0.29c-11.34-0.86-25.56,2.29-33.86,6.48c-5.83,2.95-28.09,29.51-30.93,42.84
				c-2.02,9.49-5.67,46.25-1.85,66.39c1.62,8.53,7.53,29.71,13.48,45.11c4.98,12.9,20.48,23.75,34.31,31.23
				c15.24,8.25,33.6,8.25,48.84,0c13.83-7.48,29.33-18.33,34.31-31.23c5.95-15.4,11.86-36.58,13.48-45.11
				C634.85,213.5,631.19,176.75,629.17,167.26z"/>
			<path class="st7" d="M607.18,217.27c-7.48,1.1-14.87-0.57-22.22-1.75c-8.23-1.32-59.77-0.29-68.06,0.51
				c-20.05,1.94-27.17-5.18-31.81-13.82c-0.38,11.23-0.12,22.84,1.51,31.44c1.62,8.53,7.53,29.71,13.48,45.11
				c4.98,12.9,20.48,23.75,34.31,31.23c15.24,8.25,33.6,8.25,48.84,0c13.83-7.48,29.33-18.33,34.31-31.23
				c5.95-15.4,11.86-36.58,13.48-45.11c1.35-7.08,1.76-16.21,1.65-25.49C623.84,214.62,617.76,215.71,607.18,217.27z"/>
			<path class="st8" d="M617.54,278.76c5.95-15.4,11.86-36.58,13.48-45.11"/>
			<path class="st9" d="M592.86,252.6c-11.74-13.53-34.05-16.46-34.05-16.46s-22.31,2.93-34.05,16.46
				c-9.36,52.1,1.6,63.57,11.1,73.52c12.45,13.05,11.71,38.02,22.95,38.02c11.25,0,10.5-24.97,22.95-38.02
				C591.26,316.17,602.22,304.7,592.86,252.6z"/>
			<path class="st0" d="M540.17,255.78c14.04,5.42,26.28,4.8,37.29,0l-18.64-24.26l-16.6,22.13"/>
			<path class="st10" d="M589.45,214.61c-5.52-24.28-19.29-26.44-30.64-26.44c-11.35,0-24.79,2.24-30.64,26.44
				c-5.43,22.44-7.94,44.29-3.97,48.26c3.97,3.97,11.03,0,16.58-3.4c5.55-3.4,14.63-21.56,18.04-21.56
				c3.4,0,12.48,18.16,18.04,21.56c5.55,3.4,12.61,7.38,16.58,3.4C597.4,258.9,594.88,238.47,589.45,214.61z"/>
			<g>
				<path class="st11" d="M540.85,151.96c-0.95-1.85-2.69-3.28-4.68-3.88c-1.11-0.34-2.33-0.42-3.44-0.06
					c-0.42,0.13-0.91,0.51-1.41,1.02c-2.22,2.27-1.46,6.08,1.38,7.5l5.49,2.73c0.78,0.3,1.75,0.38,2.39-0.16
					c0.33-0.28,0.52-0.68,0.67-1.09C541.96,156.06,541.8,153.81,540.85,151.96z"/>
				<path class="st11" d="M576.77,151.96c0.95-1.85,2.69-3.28,4.68-3.88c1.11-0.34,2.33-0.42,3.44-0.06
					c0.42,0.13,0.91,0.51,1.41,1.02c2.22,2.27,1.46,6.08-1.38,7.5l-5.49,2.73c-0.78,0.3-1.75,0.38-2.39-0.16
					c-0.33-0.28-0.52-0.68-0.67-1.09C575.66,156.06,575.82,153.81,576.77,151.96z"/>
			</g>
			<g>
				<path class="st12" d="M573.69,195.58c-0.93-0.56-1.96-1.06-3.03-1.52c-7.54-3.18-16.15-3.18-23.69,0
					c-1.08,0.45-2.11,0.96-3.03,1.52c-1.79,1.08-4.98,11.68-3.28,16.8c1.1,3.3,5.73,7.42,10.56,10.22c4.69,2.72,10.51,2.72,15.2,0
					c4.83-2.8,9.46-6.92,10.56-10.22C578.67,207.26,575.48,196.66,573.69,195.58z"/>
				<path class="st13" d="M547.75,212.17c-2.31,0-4.31,1.27-5.39,3.15c2.03,2.58,5.38,5.27,8.84,7.28c0.25,0.14,0.51,0.25,0.76,0.37
					c1.23-1.14,2.02-2.76,2.02-4.57C553.99,214.96,551.2,212.17,547.75,212.17z"/>
				<path class="st13" d="M569.87,212.17c2.31,0,4.31,1.27,5.39,3.15c-2.03,2.58-5.38,5.27-8.84,7.28
					c-0.25,0.14-0.51,0.25-0.76,0.37c-1.23-1.14-2.02-2.76-2.02-4.57C563.63,214.96,566.43,212.17,569.87,212.17z"/>
			</g>
			<g>
				<path class="st14" d="M530.68,169.09c0.15,3.27-2.39,6.04-5.65,6.18c-3.27,0.15-6.04-2.39-6.18-5.65
					c-0.15-3.27,2.39-6.04,5.65-6.18C527.77,163.29,530.53,165.82,530.68,169.09z"/>
				<path class="st14" d="M598.78,168.88c0.15,3.27-2.39,6.04-5.65,6.18c-3.27,0.15-6.04-2.39-6.18-5.65
					c-0.15-3.27,2.39-6.04,5.65-6.18C595.87,163.08,598.63,165.61,598.78,168.88z"/>
			</g>
			<path class="st15" d="M520.95,335.36c-4.63-5.39-7.42-12.33-7.79-19.43"/>
			<path class="st15" d="M585.45,350.38c4.44-3.26,7.75-8.04,9.25-13.34"/>
			<path class="st15" d="M593.28,347.96c4.26-6.21,7.51-13.11,9.58-20.35"/>
			<path class="st15" d="M600.99,346c4.25-8.15,7.6-16.77,9.95-25.66"/>
			<path class="st15" d="M610.2,340c2.12-7.3,4.25-14.6,6.37-21.9"/>
			<path class="st15" d="M554.71,144.09c-1.96-2.87-4.02-5.84-7.04-7.57c-3.01-1.73-7.27-1.83-9.62,0.73"/>
			<path class="st15" d="M496.41,257.68c0.52,5.31,2.01,10.52,4.39,15.3"/>
			<path class="st15" d="M500.82,262.77c0.01,4.6,1.22,9.19,3.47,13.2"/>
			<path class="st15" d="M504.44,267.15c1.96,5.33,3.92,10.67,5.88,16"/>
			<path class="st15" d="M512.17,161.28c-3.37,3.22-5.07,8.09-4.45,12.7"/>
			<path class="st8" d="M612.61,141.4c3.19,3.26,5.38,7.48,6.23,11.97"/>
			<path class="st8" d="M619.17,149.49c2.54,3.2,3.41,7.65,2.28,11.57"/>
			<path class="st8" d="M511.73,135.58c-2.72,2.14-5.05,4.78-6.85,7.75"/>
			<path class="st8" d="M508.06,143.29c-3.87,2.84-7.02,6.65-9.1,10.98"/>
			<path class="st8" d="M554.19,137.35c1.97,2.21,3.65,4.69,4.96,7.34"/>
			<path class="st15" d="M584.24,142.02c1.96-1,4.45-0.23,6.07,1.26c1.62,1.49,2.57,3.55,3.47,5.56"/>
			<path class="st15" d="M595.21,146.46c2.64,1.34,4.31,4.4,4,7.34"/>
			<path class="st15" d="M605.13,152.91c0.14,1.67,0.28,3.35,0.43,5.02"/>
			<path class="st15" d="M515.06,159.7c-0.7-2.17-0.33-4.65,0.97-6.53"/>
			<path class="st15" d="M518.05,152.89c0.52-2.67,2.03-5.14,4.16-6.84"/>
			<path class="st15" d="M617.53,267.81c-0.07,3.84-1.19,7.66-3.2,10.94"/>
			<path class="st15" d="M611.67,276.5c-0.77,2.12-1.54,4.25-2.31,6.37"/>
			<path class="st15" d="M607.04,279.67c-0.62,1.67-1.24,3.34-1.85,5.01"/>
			<path class="st15" d="M513.07,329.39c-2.37-4.86-3.83-10.15-4.29-15.54"/>
			<path class="st15" d="M507.12,323.01c-1.28-3.83-2.02-7.84-2.2-11.88"/>
			<path class="st15" d="M502.1,316.62c-0.61-3.19-1.21-6.39-1.81-9.58"/>
			<path class="st15" d="M533.36,282.74c-1.49,5.28-0.57,11.19,2.45,15.76"/>
			<path class="st15" d="M536.36,291.72c-0.17,3.35,1.57,6.73,4.39,8.55"/>
			<path class="st15" d="M540.83,293.66c0.83,2.59,2.16,5.02,3.88,7.12"/>
			<path class="st15" d="M573.14,312.4c3.22-4.94,4.85-10.9,4.59-16.8"/>
			<path class="st15" d="M581.01,303.39c0.7-2.08,0.89-4.32,0.54-6.49"/>
			<path class="st15" d="M585.43,300.77c0.35-1.73,0.16-3.57-0.52-5.2"/>
			<path class="st15" d="M454.81,170.1c0.5-4.09,2.32-8.01,5.12-11.04"/>
			<path class="st15" d="M460.75,163.63c0-3.15,1.6-6.26,4.16-8.09"/>
			<path class="st15" d="M524.92,263.63c2.05,0.79,4.36,0.4,6.47-0.21c6.26-1.84,11.89-5.72,15.83-10.92"/>
			<path class="st15" d="M548.6,249.94c2.19-2.86,4.37-5.73,6.56-8.59"/>
			<path class="st15" d="M564.41,243.62c2.28,3.18,4.56,6.36,6.83,9.54c1.04,1.45,2.1,2.92,3.51,4c2.28,1.74,5.78,4.72,8.1,5.81"/>
			<path class="st15" d="M592.03,264.01c2.45-1.78,3.92-4.84,3.78-7.86"/>
		</g>
		<g>
			<g>
				<path class="st16" d="M596.81,249.82"/>
				<path class="st16" d="M520.81,249.82"/>
				<path class="st16" d="M596.81,228.08"/>
				<path class="st16" d="M520.81,228.08"/>
			</g>
		</g>
		<path class="st8" d="M487.84,173.33c-1.03-8.82,2.34-18.05,8.81-24.13"/>
	</g>
	<g>
		<g>
			<path class="st17" d="M2.57,216.5c1.18-0.51,2.59-0.39,3.68,0.29c-1.72,2.42-0.81,5.67-1.08,8.52
				c0,60.19,36.57,111.83,88.7,133.93c10.73-17.07,15.45-38.4,27.99-54.52c1.74-2.25,3.73-4.44,6.34-5.54
				c1.74-0.74,3.7-0.95,5.3-1.96c1.77-1.11,2.85-3.02,3.84-4.86c3.65-6.79,7.47-14.17,14.34-17.68c4.5-2.3,9.71-2.61,14.75-2.88
				c13.5-0.71,27-1.42,40.49-2.13c9.66-0.51,19.8-1.16,27.99-6.31c8.07-5.08,13.13-13.98,15.55-23.21
				c2.42-9.23,2.48-18.89,2.52-28.43c-14.27-3.3-28.35-7.41-42.16-12.31c-3.32-1.18-6.67-2.43-9.45-4.59c-4.75-3.7-7.18-9.54-9.7-15
				c-3.27-7.11-7.1-14.18-12.9-19.44c-1.13-1.03-2.33-1.98-3.56-2.84c-9-8.73-20.26-15.15-32.48-18.02
				c-18.37-4.31-38.37-0.48-54.17,9.77c-3.64,1.15-7.17,2.64-10.55,4.57c-8.66,4.93-17.93,12.81-27.23,9.23
				c1.76,1.8,3.51,3.6,5.28,5.4c-2.17,1.41-4.12,3.13-5.79,5.1c1.81,0.33,3.62,0.64,5.43,0.97c-0.47,2.89,2.59,5.68,5.43,5
				c-1.73,3.03-4.05,4.1-6.63,4.19c-9.65,0.36-19.31,1.21-28.55,4.01c-1.14,0.35-2.29,0.67-3.44,0.98c0.79,1.64,2.05,3.01,3.67,3.85
				c-0.84,0.78-2.08,1.55-3.12,2.04c-4.08,1.9-8.27,3.55-12.55,4.93c0.56,2.28,1.52,4.62,3.25,6.21c-2.82,0.72-6.03,3.07-8.29,4.92
				C3.77,212.08,2.8,214.33,2.57,216.5z"/>
			<path class="st18" d="M210.83,199.42c-3.32-1.18-6.67-2.43-9.45-4.59c-4.75-3.7-7.18-9.54-9.7-15
				c-3.27-7.11-7.1-14.18-12.9-19.44c-1.13-1.03-2.33-1.98-3.56-2.84c-5.3-5.15-11.4-9.48-18.01-12.77
				c-0.54,2.35-1.21,4.66-1.99,6.92c-2.1,6.07-9.95,7.99-14.33,3.29c-1.01-1.09-2.41-2.1-4.36-3c-6.59-2.75-17.88,0.86-24.1,2.96
				c-7.67,2.64-19.57-0.94-23.15,7.96c-0.76,11.08-6.51,30.37-4.94,44.29c-7.88,1.18-15.83,1.27-23.55,0.1
				c1.99,5.24,4.98,10.74,8.97,14.74c-1.51,5.53-6.11,9.72-9.72,10.92c-6.96,3.98-16.61,5.24-23.92,2.43
				c0.76,14.02-14.25,19.44-25.99,27.61c11.64,43.47,42.92,78.92,83.76,96.23c10.73-17.07,15.45-38.4,27.99-54.52
				c1.74-2.25,3.73-4.44,6.34-5.54c1.74-0.74,3.7-0.95,5.3-1.96c1.77-1.11,2.85-3.02,3.84-4.86c3.65-6.79,7.47-14.17,14.34-17.68
				c4.5-2.3,9.71-2.61,14.75-2.88c13.5-0.71,27-1.42,40.49-2.13c9.66-0.51,19.8-1.16,27.99-6.31c8.07-5.08,13.13-13.98,15.55-23.21
				c2.42-9.23,2.48-18.89,2.52-28.43C238.72,208.43,224.63,204.32,210.83,199.42z"/>
			<path class="st19" d="M221.89,259.39c9.42,0.4,18.91-4.12,24.54-11.68"/>
			<g>
				<path class="st20" d="M135.85,149.1c10.91,5.02-0.11,8.41,2.98,19.89c3.87,14.38-20.7,63.9-40.18,47.84
					c-13.45-10.25-8.26-40.14-7.2-55.73c3.58-8.89,16.83-6.28,24.51-8.92C122.18,150.08,129.26,146.34,135.85,149.1z"/>
			</g>
			<path class="st3" d="M247.17,224.08c3.12,2.35,7.59,0.32,7.95-3.57c0.36-4.01-0.42-8.62-2.6-9.77
				c-3.5-1.93-20.26-7.32-22.34-5.03C233.33,211.14,240.78,219.28,247.17,224.08z"/>
			<path class="st14" d="M180.28,191.01c0.13,2.92-2.14,5.4-5.06,5.53c-2.92,0.13-5.4-2.14-5.53-5.06c-0.13-2.92,2.14-5.4,5.06-5.53
				C177.67,185.82,180.15,188.09,180.28,191.01z"/>
			<path class="st8" d="M91.15,285.52c-1.86,7.72-4.64,15.23-8.25,22.3"/>
			<path class="st8" d="M88.52,309.87c-1.71,3.03-3.43,6.07-5.14,9.1"/>
			<path class="st8" d="M125.01,281.82c-6.24,2.88-12.03,6.76-17.06,11.45"/>
			<path class="st8" d="M165.23,162.32c0.92,2.68,1.83,5.37,2.75,8.05"/>
			<path class="st8" d="M169.83,165.36c1.2,2.76,2.1,5.65,2.65,8.6"/>
			<path class="st8" d="M175.44,170.93c0.87,1.55,1.41,3.29,1.57,5.07"/>
			<path class="st8" d="M143.81,226.74c0.73-2.91,1.67-5.77,2.83-8.54"/>
			<path class="st8" d="M140.44,223.75c1-2.21,1.99-4.42,2.99-6.63"/>
			<path class="st8" d="M137.37,216.12c1.35-2.03,2.71-4.06,4.06-6.09"/>
			<path class="st8" d="M83.54,299.32c2.35-7.6,3.83-15.47,4.41-23.41"/>
			<path class="st8" d="M82.58,287.59c0.68-6.44,0.91-12.93,0.68-19.4"/>
			<path class="st8" d="M137.47,164.68c0.14,2.87,0.82,5.68,1.05,8.54c0.58,7.23-1.85,14.65-6.59,20.13"/>
			<path class="st8" d="M38.7,207.54c6.55-2.6,13.59-3.97,20.64-4.03"/>
			<path class="st8" d="M29.6,213.89c4.82-3.1,10.42-4.95,16.14-5.34"/>
			<path class="st8" d="M28.93,264.95c3.8-3.11,7.09-6.84,9.72-10.99"/>
			<path class="st8" d="M37.35,261.08c2.91-3.03,4.94-6.9,5.8-11.01"/>
			<path class="st8" d="M44.88,254.5c1.16-2.55,2.31-5.1,3.47-7.66"/>
			<path class="st8" d="M102.72,218.26c-5.64-2.06-9.54-8.13-9.07-14.12"/>
			<path class="st8" d="M105.01,165.18c4.33-7.25,11.14-12.99,19.01-16.04"/>
			<path class="st8" d="M25.01,191.96c5.36,1.99,11.15,2.83,16.86,2.45"/>
			<path class="st8" d="M180.8,216.98c2.92-4.32,7.43-7.53,12.46-8.89"/>
			<path class="st8" d="M188.84,212.77c2.48-1.47,4.96-2.94,7.45-4.41"/>
			<path class="st8" d="M195.79,212.47c1.93-0.89,3.86-1.77,5.79-2.66"/>
			<path class="st8" d="M106.46,318.6c-1.7,3.62-2.33,7.72-1.81,11.68"/>
			<path class="st8" d="M102.02,334.82c-1.28-3.95-1.72-8.17-1.28-12.29"/>
		</g>
	</g>
	<path class="st14" d="M37.21,217.35l-16.04-18.74c-2.77-3.24-2.4-8.11,0.84-10.89l5.42-4.64c3.24-2.77,8.11-2.4,10.89,0.84
		l17.16,20.04c0.17,0.2,0.15,0.5-0.05,0.67l-15.13,12.96C39.37,218.37,37.99,218.27,37.21,217.35z"/>
	<g id="coleira">
		<path class="st14" d="M132.4,297.93l-93.46-75.55c-3.58-2.9-4.14-8.15-1.24-11.74l8.72-10.79c2.9-3.58,8.15-4.14,11.74-1.24
			l93.46,75.55c3.58,2.9,4.14,8.15,1.24,11.74l-8.72,10.79C141.24,300.27,135.99,300.83,132.4,297.93z"/>
		<circle class="st21" cx="55.86" cy="218.32" r="3.81"/>
		<circle class="st21" cx="92.53" cy="247.73" r="3.81"/>
		<circle class="st21" cx="130.28" cy="278.03" r="3.81"/>
		<circle class="st22" cx="55.52" cy="218.71" r="7.11"/>
		<circle class="st22" cx="130.28" cy="278.03" r="7.11"/>
		<circle class="st22" cx="92.7" cy="247.88" r="7.11"/>
		<circle class="st23" cx="55.52" cy="218.71" r="5.48"/>
		<circle class="st23" cx="92.53" cy="247.73" r="5.48"/>
		<circle class="st23" cx="130.28" cy="278.03" r="5.48"/>
	</g>
	<g id="coleira_00000060016206672807514910000014134597030243270335_">
		<path class="st14" d="M1077.69,334.57l-97.39-56.23c-5.84-3.37-11.54-8.56-8.17-14.4l1.72,1.16
			c-66.61-51.92,18.19-10.77,21.74-13.24l97.39,56.23c5.84,3.37,7.84,10.83,4.47,16.67l-3.08,5.34
			C1091,335.94,1083.53,337.94,1077.69,334.57z"/>
		<circle class="st21" cx="1036.95" cy="293.95" r="3.81"/>
		<circle class="st21" cx="995.7" cy="269.42" r="3.81"/>
		<circle class="st21" cx="1073.82" cy="315.1" r="3.81"/>
		<circle class="st22" cx="1036.95" cy="293.95" r="7.11"/>
		<circle class="st22" cx="1073.82" cy="315.1" r="7.11"/>
		<circle class="st22" cx="995.7" cy="269.42" r="7.11"/>
		<circle class="st23" cx="1036.95" cy="293.95" r="5.48"/>
		<circle class="st23" cx="995.7" cy="269.42" r="5.48"/>
		<circle class="st23" cx="1073.82" cy="315.1" r="5.48"/>
	</g>
	<g id="coleira_00000019646116153627190720000008556401142069036695_">
		<path class="st14" d="M617.04,324.68l-112.4,3.47c-6.14,0.19-11.36-4.19-12.4-10.07c-0.21-1.17-0.78-2.24-1.7-3l-21.71-17.81
			c-1.56-1.28-2.16-3.39-1.51-5.29c2.21-6.45,11.14-12.89,32.92,4.94c0.92,0.75,2.07,1.15,3.25,1.11l118.43-4.28
			c1.36-0.05,2.67-0.63,3.55-1.68c8.63-10.27,25.6-13.31,21.16,5.15c-0.09,0.38-7.66,5.6-7.95,5.86l-8.36,7.68
			c-0.88,0.81-1.4,1.92-1.53,3.11C628.12,319.8,623.18,324.49,617.04,324.68z"/>
		<circle class="st21" cx="513.39" cy="310.06" r="3.81"/>
		<circle class="st21" cx="560.37" cy="308.42" r="3.81"/>
		<circle class="st21" cx="608.74" cy="306.76" r="3.81"/>
		<circle class="st22" cx="513.39" cy="310.57" r="7.11"/>
		<circle class="st22" cx="608.74" cy="306.76" r="7.11"/>
		<circle class="st22" cx="560.59" cy="308.42" r="7.11"/>
		<circle class="st23" cx="513.39" cy="310.57" r="5.48"/>
		<circle class="st23" cx="560.37" cy="308.42" r="5.48"/>
		<circle class="st23" cx="608.74" cy="306.76" r="5.48"/>
	</g>
</g>
</svg>
