<?xml version="1.0" encoding="utf-8"?>
<!-- Generator: Adobe Illustrator 27.6.1, SVG Export Plug-In . SVG Version: 6.00 Build 0)  -->
<svg version="1.1" id="PRINT" xmlns="http://www.w3.org/2000/svg" xmlns:xlink="http://www.w3.org/1999/xlink" x="0px" y="0px"
	 viewBox="0 0 595.28 841.89" style="enable-background:new 0 0 595.28 841.89;" xml:space="preserve">
<style type="text/css">
	
		.st0{clip-path:url(#SVGID_00000106860508610096118330000003312161790155015316_);fill:url(#SVGID_00000087401628443835806110000002840087130003809927_);}
	.st1{clip-path:url(#SVGID_00000106860508610096118330000003312161790155015316_);}
	.st2{fill:url(#SVGID_00000149351097379839932950000017074434055087585448_);}
	.st3{fill:url(#SVGID_00000109727151899605102420000017804052402787317158_);}
	.st4{fill:url(#SVGID_00000146466818351114464140000009064111519002602635_);}
	.st5{clip-path:url(#SVGID_00000106860508610096118330000003312161790155015316_);fill:#FDBC63;}
	.st6{fill:#7B3118;}
	.st7{fill:#B04425;}
	.st8{fill:#4B1E12;}
	.st9{fill:#371611;}
</style>
<g>
	<g>
		<defs>
			<rect id="SVGID_1_" x="-14.17" y="-14.17" width="623.62" height="870.24"/>
		</defs>
		<clipPath id="SVGID_00000160168368638113704780000005853985855828587175_">
			<use xlink:href="#SVGID_1_"  style="overflow:visible;"/>
		</clipPath>
		
			<linearGradient id="SVGID_00000069394497587039491410000014216096369572044709_" gradientUnits="userSpaceOnUse" x1="297.6378" y1="-144.306" x2="297.6378" y2="566.3397">
			<stop  offset="0.0748" style="stop-color:#6F479C"/>
			<stop  offset="0.1228" style="stop-color:#7D4E95"/>
			<stop  offset="0.2451" style="stop-color:#9A5F86"/>
			<stop  offset="0.3698" style="stop-color:#B56E76"/>
			<stop  offset="0.4947" style="stop-color:#CC7B68"/>
			<stop  offset="0.6199" style="stop-color:#DE8559"/>
			<stop  offset="0.7454" style="stop-color:#EB8D4B"/>
			<stop  offset="0.8717" style="stop-color:#F39242"/>
			<stop  offset="1" style="stop-color:#F7943E"/>
		</linearGradient>
		
			<rect x="-44.71" y="-41.14" style="clip-path:url(#SVGID_00000160168368638113704780000005853985855828587175_);fill:url(#SVGID_00000069394497587039491410000014216096369572044709_);" width="684.69" height="939.69"/>
		<g style="clip-path:url(#SVGID_00000160168368638113704780000005853985855828587175_);">
			
				<linearGradient id="SVGID_00000034069980103052669780000017261745023901282451_" gradientUnits="userSpaceOnUse" x1="265.7106" y1="549.1837" x2="265.7106" y2="148.8939">
				<stop  offset="0" style="stop-color:#6F479C"/>
				<stop  offset="0.0688" style="stop-color:#7E4F94"/>
				<stop  offset="0.2793" style="stop-color:#A56580"/>
				<stop  offset="0.4696" style="stop-color:#C7786B"/>
				<stop  offset="0.6331" style="stop-color:#E08757"/>
				<stop  offset="0.7635" style="stop-color:#EF9046"/>
				<stop  offset="0.8444" style="stop-color:#F7943E"/>
			</linearGradient>
			<path style="fill:url(#SVGID_00000034069980103052669780000017261745023901282451_);" d="M527.53,290.78
				c-19.73,7.33-42.59,5.7-61.09-4.33c-11.82-6.41-24.34-16.44-37.07-12.13c-5.41,1.83-10.68,6.23-16.13,4.52
				c-7.96-2.51-7.52-14.97-14.45-19.61c-8.24-5.52-20.92,3.49-28.81-2.52c-2.3-1.75-3.63-4.46-4.86-7.09
				c-13.01-27.83-26.56-59.94-55.48-70.31c-27.59-9.89-61.74,8.59-68.55,37.09c-11.34-12.62-32.87-12.33-46.17-1.8
				c-13.3,10.53-18.84,28.74-17.47,45.65c-18.33-4.29-38.98,4.94-48.01,21.46c-3.66,6.69-7.02,15.5-14.61,16.27
				c-5.05,0.51-9.47-3.02-13.8-5.67c-16.28-9.96-37.73-8.45-54.87-0.06c-17.15,8.38-30.63,22.72-42.27,37.85v568.79h523.63V290.78z"
				/>
		</g>
		<g style="clip-path:url(#SVGID_00000160168368638113704780000005853985855828587175_);">
			
				<linearGradient id="SVGID_00000049944788493466204840000009423758884296427940_" gradientUnits="userSpaceOnUse" x1="489.6998" y1="602.7273" x2="489.6998" y2="249.0862">
				<stop  offset="0.1154" style="stop-color:#6F479C"/>
				<stop  offset="0.1264" style="stop-color:#71499A"/>
				<stop  offset="0.3078" style="stop-color:#975D88"/>
				<stop  offset="0.481" style="stop-color:#B87075"/>
				<stop  offset="0.6414" style="stop-color:#D27E63"/>
				<stop  offset="0.7864" style="stop-color:#E58A52"/>
				<stop  offset="0.9107" style="stop-color:#F19144"/>
				<stop  offset="1" style="stop-color:#F7943E"/>
			</linearGradient>
			<path style="fill:url(#SVGID_00000049944788493466204840000009423758884296427940_);" d="M347.84,453.26
				c12.1-6.14,15.98-21.12,19.99-34.09c4.01-12.96,12.04-27.54,25.59-28.28c8-0.44,17.6,3.87,23.13-1.94
				c1.76-1.85,2.6-4.39,3.14-6.9c2.01-9.37,0.51-19.18,2.1-28.63c1.59-9.45,7.95-19.43,17.51-20.02c3.08-0.19,6.37,0.6,9.14-0.77
				c6.31-3.11,3.93-13.39,8.71-18.55c4.6-4.97,13.46-2.86,18.66-7.21c3.55-2.97,4.31-8.02,6.06-12.31
				c6.72-16.51,32.84-20.14,43.81-6.1c-6.3-26.58,8.35-56.61,33.18-68.01c24.83-11.39,57.15-2.92,73.19,19.2v698.32H347.36V453.26"
				/>
		</g>
		<g style="clip-path:url(#SVGID_00000160168368638113704780000005853985855828587175_);">
			
				<linearGradient id="SVGID_00000124867344795407606430000017377010297498332563_" gradientUnits="userSpaceOnUse" x1="100.8393" y1="669.1483" x2="100.8393" y2="350.1671">
				<stop  offset="0" style="stop-color:#6F479C"/>
				<stop  offset="4.626930e-03" style="stop-color:#6F489C"/>
				<stop  offset="0.501" style="stop-color:#B46E77"/>
				<stop  offset="0.8424" style="stop-color:#E38854"/>
				<stop  offset="1" style="stop-color:#F7943E"/>
			</linearGradient>
			<path style="fill:url(#SVGID_00000124867344795407606430000017377010297498332563_);" d="M-101.94,264.71
				c21.77-19.7,52.47-29.13,81.55-25.04c29.08,4.08,55.99,21.6,71.5,46.53c13.09,21.05,17.94,46.01,23.17,70.23
				c1.05,4.85,2.58,10.31,7.01,12.53c8.03,4.02,15.65-5.62,23.43-10.1c13.41-7.72,33.22,4.39,32.46,19.85
				c1.44-3.91,7.29-4.4,10.58-1.84c3.29,2.56,4.61,6.86,5.61,10.91c3.36-13.4,16.56-23.65,30.37-23.58s26.91,10.45,30.13,23.88
				c0.64,2.68,1.16,5.8,3.52,7.23c2.46,1.49,5.59,0.35,8.47,0.35c6.07,0.01,10.91,5.33,13.25,10.93c2.34,5.61,3.02,11.8,5.44,17.38
				c4.51,10.4,14.67,17.48,25.46,20.95c10.79,3.47,22.29,3.81,33.62,4.13v449.84h-405.56V264.71z"/>
		</g>
		
			<circle style="clip-path:url(#SVGID_00000160168368638113704780000005853985855828587175_);fill:#FDBC63;" cx="239.17" cy="476.32" r="60.21"/>
		<g style="clip-path:url(#SVGID_00000160168368638113704780000005853985855828587175_);">
			<polygon class="st6" points="87.98,530.25 64.83,518.62 55.93,497.46 45.93,497.46 41.48,455.17 0.54,440.35 -7.44,518.62 
				-19.46,520.73 -34.13,566.21 -43.8,566.21 -43.8,541.89 -61.59,530.25 -69.38,503.28 -144.98,489 -144.98,937.28 712.67,937.28 
				712.67,522.09 691.14,493.18 675.1,492.78 659.48,469.08 645.97,468.68 640.06,457.44 632.04,459.45 632.04,470.69 628.24,473.9 
				617.68,442.58 584.89,448.23 574.91,464.74 568.32,466.68 564.51,494.99 546.04,513.85 539.94,562.67 534.56,563.57 
				531.95,522.62 521.97,516.84 517.5,460.22 512.72,457.38 502.97,340 487.88,345.5 487.88,399.32 483.28,404.95 483.28,414.96 
				479.99,422.47 474.91,532.66 467.67,536.42 462.91,465.75 458.39,464.14 449.15,414.71 438.99,412.56 438.99,425.45 
				435.03,425.45 424.48,364.75 417.14,362.06 410.06,306.93 357.84,311.56 354.9,323.54 328.36,327.33 328.36,339.16 
				317.48,342.85 311.16,411.58 297.18,417.49 278.13,511.16 266.61,518.69 253.67,532.65 247.92,516.2 227.47,520.35 
				220.07,550.76 216.91,550.89 209.1,532.76 182.11,532.76 175.8,549.47 170.42,550.91 159.61,566.77 124.75,568.92 119.67,575.39 
				112.28,575.35 107.05,603.2 92.61,603.4 			"/>
			<g>
				<polygon class="st7" points="41.48,455.17 45.93,497.46 47.82,540.02 39.4,535.75 38.13,509.69 31.45,502.82 28.13,450.33 				
					"/>
				<polygon class="st7" points="87.98,530.25 92.61,603.4 92.61,603.4 75.65,599.88 75.65,582.58 81.65,569.5 81.45,548.12 
					77.68,536.93 78.73,525.6 				"/>
				<polygon class="st7" points="55.93,497.46 64.83,518.62 67.57,549.19 67.57,578.68 59.19,575.02 58.65,565.86 61.75,555.96 
					60.82,544.45 58.83,519.9 51.71,497.46 				"/>
				<polygon class="st7" points="366.43,310.8 357.84,311.56 354.9,323.54 354.9,418.15 358.89,423.83 358.89,489.71 367.03,475.66 
					367.03,337.11 365.46,331.72 				"/>
				<polygon class="st7" points="328.36,327.33 328.36,339.16 328.36,365.22 334.13,376.86 334.13,408.31 343.14,415.88 
					343.14,359.1 335.75,345.71 335.75,326.28 				"/>
				<polygon class="st7" points="317.48,342.85 311.16,411.58 314.32,424.51 314.32,441.39 311.16,535.75 320.42,528.1 
					320.42,472.72 324.1,464.5 324.1,418.42 317.63,404.93 322.47,341.16 				"/>
				<polygon class="st7" points="297.18,417.49 278.13,511.16 278.13,559.78 273.25,565.46 273.25,599.88 283.84,590.54 
					283.84,570.86 291.12,563.38 290.31,518.11 297.18,493.31 292.75,490.16 305.18,414.1 				"/>
				<polygon class="st7" points="227.47,520.35 220.07,550.76 220.07,581.39 223.77,585.29 223.77,612.03 229.56,606.02 
					229.56,574.18 226.77,568.47 227.08,549.84 235.78,518.66 				"/>
				<polygon class="st7" points="196.71,532.76 186.79,535.75 179.66,567.87 177.8,596.41 165.72,612.03 167.89,572.71 
					175.01,557.65 175.8,549.47 182.11,532.76 				"/>
				<polygon class="st7" points="170.42,550.91 159.61,566.77 155.71,593.64 161.74,586.1 164.05,566.57 175.8,549.47 				"/>
				<polygon class="st7" points="438.99,412.56 438.99,425.45 438.99,456.69 435.47,464.58 435.47,498.29 442.29,485.18 
					442.29,471.45 447.28,459.49 444.39,413.7 				"/>
				<polygon class="st7" points="401.74,383.91 403.13,408.37 400.07,413.58 400.07,531.36 407.02,519.84 406.75,421.95 
					413.98,411.7 413.98,400.74 408.97,395.24 408.42,377.7 				"/>
				<polygon class="st7" points="487.88,399.32 483.28,404.95 483.28,414.96 479.99,422.47 474.91,532.66 481.58,538.36 
					483.79,513.42 484.84,464.88 487.88,452.65 				"/>
				<polygon class="st7" points="492.68,377.7 492.68,343.75 487.88,345.5 487.88,388.09 490.65,393.43 				"/>
				<polygon class="st7" points="508.44,492.84 504.84,502.01 504.84,552.24 510.7,546.57 510.7,526.1 508.74,520.31 				"/>
				<polygon class="st7" points="584.89,448.23 574.91,464.74 571.67,495.92 576.24,505.63 575,521.32 579.87,519 582.77,500.77 
					578.28,491.49 580.16,469.13 592.64,446.89 				"/>
				<polygon class="st7" points="568.32,466.68 564.51,494.99 564.51,494.99 557.89,554.89 561.69,552.72 566.71,506.33 
					568.32,500.39 571.67,465.69 				"/>
				<polygon class="st7" points="546.04,513.85 539.94,562.67 539.94,575.57 546.04,572.89 546.04,556.55 554.48,505.24 				"/>
				<polygon class="st7" points="343.14,428.98 343.14,455.43 338.12,463.03 338.12,423.83 				"/>
				<polygon class="st7" points="242.92,544 239.7,549.47 239.7,571.56 242.92,576.29 242.92,589.32 248.17,583.94 248.17,570.34 
					243.94,566.66 				"/>
			</g>
		</g>
		<g style="clip-path:url(#SVGID_00000160168368638113704780000005853985855828587175_);">
			<polygon class="st8" points="-67.48,659.92 -50.69,655.4 -41.65,641.84 -22.85,641.84 -6.78,625.27 8.99,625.27 16.47,637.96 
				36.49,642.59 47.82,617.83 71.4,613.42 103.82,647.65 117.21,646.36 129.48,636.67 141.1,636.67 147.56,627.91 166.93,627.91 
				185.41,683.92 195.49,683.92 200.9,689.08 208.9,689.08 208.9,663.25 241.77,661.48 250.23,682.62 250.23,682.62 273.23,675.85 
				279.49,663.33 329.45,658.31 332.39,640.71 332.39,634.25 349.99,627.49 353.26,638.07 363.99,633.98 366.26,607.92 
				378.77,601.04 390.52,638.07 409.52,640.71 423.11,667.77 457.31,673.81 466.35,684.14 488.51,680.04 488.51,666.48 
				507.57,646.46 524.53,647.11 530.39,675.52 540.81,675.52 545.33,636.78 556.96,633.2 571.16,680.04 591.36,678.1 601.84,663.25 
				601.84,646.46 627.34,624.65 648.65,623.44 648.65,647.11 657.05,651.91 660.92,669.71 685.46,677.46 685.46,954.93 
				-67.48,954.93 			"/>
			<g>
				<path class="st8" d="M427.19,583.15c5.89,0,4.39,40.07,5.17,50.41c0.54,7.09,7.97,9.94,7.97,9.94v12.24c0,0-15.73-5.23-17-19.72
					C422.5,626.43,421.05,583.15,427.19,583.15z"/>
				<path class="st8" d="M462.26,573.08c-5.89,0-3.41,34.73-4.19,45.06c-0.54,7.09-7.69,10.55-7.69,10.55v12.24
					c0,0,15.73-5.23,17-19.72C468.22,611.62,467.38,573.08,462.26,573.08z"/>
				<path class="st8" d="M444.53,556.16c-9.24,0.05-6.02,103.89-5.45,123.96h12.9C451.98,680.12,456.29,556.1,444.53,556.16z"/>
			</g>
			<g>
				<path class="st8" d="M324.38,590.11c-4.76,0-2.33,19.68-2.96,28.03c-0.43,5.73-6.21,8.52-6.21,8.52v9.89
					c0,0,12.7-4.22,13.72-15.92C329.62,612.88,328.51,590.11,324.38,590.11z"/>
				<path class="st8" d="M310.49,568.1c-7.46,0.04-4.86,83.88-4.4,100.08h10.42C316.51,668.18,319.98,568.05,310.49,568.1z"/>
			</g>
			<path class="st8" d="M189.67,595.79c9.64,0.04,6.28,75.66,5.68,90.28H181.9C181.9,686.07,177.41,595.75,189.67,595.79z"/>
			<path class="st8" d="M349.14,661.21c0,0-9.54-1.1-17.14-1.13c4.77-1.63,11.11-3.47,11.11-3.47s-3.78,0.59-8.36,1.39
				c4.66-2.29,10.21-5.4,10.21-5.4s-3.72,1.32-7.13,2.37c2.01-1.58,4.63-3.31,4.63-3.31s-3.72,1.23-8.15,2.96
				c3.72-2.72,10.27-9.3,10.27-9.3s-5.4,2.78-11.25,6.74c-0.19,0.13-2.63,2.03-2.82,2.16c3.82-5.41,11.45-13.01,11.45-13.01
				s-5.99,2.59-11.31,7.65c1.83-3.22,3.33-6.04,3.33-6.04s-2.95,3.41-6.26,7.39c1.97-6.28,4.06-15.4,4.06-15.4
				s-2.54,4.62-6.45,10.44c1.43-4.45,2.66-9.11,2.66-9.11s-1.77,2.91-3.93,6.62c1.35-6.84,2.45-14.49,2.45-14.49
				s-3.28,7.81-6.41,15.83c-0.43-7.78-2.2-19.36-2.2-19.36s-1.24,11.64-2.56,21.37c-2.06-6.82-4.46-17.9-4.46-17.9
				s0.44,7.6,1.18,14.49c-1.72-3.89-3.13-6.93-3.13-6.93s0.86,5.8,1.92,10.74c-3.65-6.86-5.97-12.48-5.97-12.48
				s2.36,10.74,3.69,17.19c-0.9-1-2.62-2.53-3.57-3.37c-2.22-3.34-4.39-5.79-4.39-5.79s1.59,4.3,2.54,6.59
				c-4.2-3.18-8.86-7.42-8.86-7.42s6.8,7.37,10.63,12.78c-0.19-0.13-0.38-0.26-0.57-0.39c-5.84-3.96-12.53-8.34-12.53-8.34
				s9.33,8.33,13.05,11.04c-4.43-1.73-11.08-4.65-11.08-4.65s1.45,1.16,3.46,2.74c-3.41-1.05-5.96-1.81-5.96-1.81
				s5.56,3.12,10.21,5.4c-4.58-0.79-8.36-1.39-8.36-1.39s7.24,2.63,12,4.26c-7.6,0.03-18.03,0.34-18.03,0.34s9.86,1.81,15.67,2.98
				c-5.71,0.75-13.59,1.57-13.59,1.57s15.78,2.88,18.37,2.94c2.21,0.05,7.19,0.55,10.55,0.07c3.35,0.48,8.34-0.03,10.55-0.07
				c2.59-0.06,18.37-2.94,18.37-2.94s-5.21-1.07-10.93-1.82C341.94,662.77,349.14,661.21,349.14,661.21z"/>
			<path class="st8" d="M152.54,642.36c0,0-12.18-1.4-21.88-1.44c6.09-2.08,14.18-4.43,14.18-4.43s-4.82,0.76-10.67,1.77
				c5.95-2.92,13.04-6.9,13.04-6.9s-4.75,1.69-9.11,3.03c2.56-2.02,5.92-4.22,5.92-4.22s-4.75,1.57-10.41,3.77
				c4.75-3.47,13.11-11.87,13.11-11.87s-6.9,3.55-14.36,8.61c-0.24,0.16-3.36,2.59-3.6,2.76c4.88-6.9,14.62-16.61,14.62-16.61
				s-7.65,3.31-14.43,9.76c2.34-4.11,4.26-7.71,4.26-7.71s-3.76,4.35-8,9.43c2.51-8.01,5.19-19.67,5.19-19.67s-3.25,5.9-8.23,13.33
				c1.82-5.68,3.4-11.63,3.4-11.63s-2.26,3.72-5.02,8.45c1.72-8.73,3.12-18.5,3.12-18.5s-4.19,9.97-8.19,20.21
				c-0.54-9.94-2.8-24.71-2.8-24.71s-1.59,14.87-3.28,27.28c-2.63-8.71-5.69-22.85-5.69-22.85s0.56,9.7,1.51,18.5
				c-2.19-4.96-3.99-8.85-3.99-8.85s1.1,7.4,2.45,13.71c-4.67-8.76-7.63-15.93-7.63-15.93s3.01,13.72,4.72,21.95
				c-1.15-1.27-3.35-3.23-4.56-4.3c-2.84-4.26-5.61-7.4-5.61-7.4s2.03,5.49,3.25,8.41c-5.36-4.06-11.32-9.47-11.32-9.47
				s8.69,9.41,13.57,16.32c-0.24-0.17-0.48-0.33-0.72-0.5c-7.46-5.06-16-10.65-16-10.65s11.91,10.63,16.66,14.1
				c-5.66-2.2-14.14-5.94-14.14-5.94s1.85,1.48,4.41,3.5c-4.36-1.35-7.6-2.31-7.6-2.31s7.09,3.98,13.04,6.9
				c-5.85-1.01-10.67-1.77-10.67-1.77s9.24,3.36,15.33,5.44c-9.7,0.04-23.02,0.44-23.02,0.44s12.59,2.32,20.01,3.8
				c-7.29,0.96-17.35,2-17.35,2s20.15,3.68,23.46,3.75c2.82,0.06,9.18,0.7,13.47,0.09c4.28,0.61,10.64-0.03,13.47-0.09
				c3.31-0.07,23.46-3.75,23.46-3.75s-6.66-1.36-13.95-2.32C143.36,644.36,152.54,642.36,152.54,642.36z"/>
			<path class="st8" d="M234.12,686.51c0,0-12.18-1.4-21.88-1.44c6.09-2.08,14.18-4.43,14.18-4.43s-4.82,0.76-10.67,1.77
				c5.95-2.92,13.04-6.9,13.04-6.9s-4.75,1.69-9.11,3.03c2.56-2.02,5.92-4.22,5.92-4.22s-4.75,1.57-10.41,3.77
				c4.75-3.47,13.11-11.87,13.11-11.87s-6.9,3.55-14.36,8.61c-0.24,0.16-3.36,2.59-3.6,2.76c4.88-6.9,14.62-16.61,14.62-16.61
				s-7.65,3.31-14.43,9.76c2.34-4.11,4.26-7.71,4.26-7.71s-3.76,4.35-8,9.43c2.51-8.01,5.19-19.67,5.19-19.67s-3.25,5.9-8.23,13.33
				c1.82-5.68,3.4-11.63,3.4-11.63s-2.26,3.72-5.02,8.45c1.72-8.73,3.12-18.5,3.12-18.5s-4.19,9.97-8.19,20.21
				c-0.54-9.94-2.8-24.71-2.8-24.71s-1.59,14.87-3.27,27.28c-2.63-8.71-5.69-22.86-5.69-22.86s0.56,9.7,1.51,18.5
				c-2.19-4.96-3.99-8.85-3.99-8.85s1.1,7.4,2.45,13.71c-4.67-8.76-7.63-15.93-7.63-15.93s3.01,13.72,4.72,21.95
				c-1.15-1.27-3.35-3.23-4.56-4.3c-2.84-4.26-5.6-7.4-5.6-7.4s2.03,5.49,3.25,8.41c-5.36-4.06-11.32-9.47-11.32-9.47
				s8.69,9.41,13.57,16.32c-0.24-0.17-0.48-0.33-0.72-0.5c-7.46-5.06-16-10.65-16-10.65s11.91,10.63,16.66,14.1
				c-5.66-2.2-14.14-5.94-14.14-5.94s1.85,1.48,4.41,3.5c-4.36-1.35-7.6-2.31-7.6-2.31s7.09,3.98,13.04,6.9
				c-5.85-1.01-10.67-1.77-10.67-1.77s9.24,3.36,15.33,5.44c-9.7,0.04-23.02,0.44-23.02,0.44s12.59,2.32,20.01,3.8
				c-7.29,0.96-17.35,2-17.35,2s20.15,3.68,23.46,3.75c2.82,0.06,9.18,0.71,13.47,0.09c4.28,0.61,10.64-0.03,13.47-0.09
				c3.31-0.07,23.46-3.75,23.46-3.75s-6.66-1.36-13.95-2.32C224.94,688.5,234.12,686.51,234.12,686.51z"/>
			<path class="st8" d="M514.89,675.26c0,0-12.97-1.49-23.3-1.53c6.48-2.22,15.1-4.72,15.1-4.72s-5.14,0.81-11.36,1.88
				c6.33-3.11,13.89-7.34,13.89-7.34s-5.06,1.8-9.7,3.23c2.73-2.15,6.3-4.5,6.3-4.5s-5.06,1.67-11.08,4.02
				c5.06-3.7,13.96-12.64,13.96-12.64s-7.35,3.78-15.29,9.17c-0.26,0.18-3.57,2.76-3.83,2.94c5.2-7.35,15.57-17.68,15.57-17.68
				s-8.15,3.52-15.37,10.4c2.49-4.38,4.53-8.21,4.53-8.21s-4.01,4.64-8.51,10.04c2.68-8.53,5.52-20.94,5.52-20.94
				s-3.46,6.28-8.77,14.19c1.94-6.04,3.62-12.38,3.62-12.38s-2.4,3.96-5.34,9c1.83-9.3,3.33-19.7,3.33-19.7s-4.46,10.61-8.72,21.52
				c-0.58-10.58-2.98-26.32-2.98-26.32s-1.69,15.83-3.49,29.05c-2.8-9.27-6.06-24.34-6.06-24.34s0.59,10.33,1.61,19.7
				c-2.34-5.28-4.25-9.43-4.25-9.43s1.17,7.88,2.61,14.6c-4.97-9.33-8.12-16.97-8.12-16.97s3.21,14.61,5.02,23.38
				c-1.22-1.35-3.56-3.44-4.86-4.58c-3.02-4.54-5.97-7.88-5.97-7.88s2.16,5.85,3.46,8.96c-5.7-4.32-12.05-10.09-12.05-10.09
				s9.25,10.02,14.45,17.37c-0.25-0.18-0.51-0.35-0.77-0.53c-7.94-5.39-17.04-11.34-17.04-11.34s12.68,11.32,17.75,15.02
				c-6.02-2.35-15.06-6.32-15.06-6.32s1.97,1.57,4.7,3.73c-4.64-1.43-8.1-2.46-8.1-2.46s7.55,4.24,13.89,7.34
				c-6.23-1.08-11.36-1.88-11.36-1.88s9.84,3.57,16.32,5.79c-10.33,0.04-24.52,0.46-24.52,0.46s13.4,2.47,21.31,4.05
				c-7.77,1.02-18.48,2.13-18.48,2.13s21.45,3.92,24.98,4c3,0.06,9.78,0.75,14.34,0.1c4.56,0.65,11.34-0.03,14.34-0.1
				c3.53-0.08,24.98-4,24.98-4s-7.09-1.45-14.86-2.47C505.11,677.39,514.89,675.26,514.89,675.26z"/>
		</g>
		<g style="clip-path:url(#SVGID_00000160168368638113704780000005853985855828587175_);">
			<g>
				<path class="st9" d="M133.79,337.12c-22.49,0-16.76,152.96-19.74,192.4c-2.04,27.08-30.43,37.93-30.43,37.93v46.74
					c0,0,60.03-19.96,64.89-75.26C151.72,502.32,157.25,337.12,133.79,337.12z"/>
				<path class="st9" d="M-0.05,298.67c22.49-0.01,13.03,132.54,16.01,171.99C18,497.74,45.3,510.92,45.3,510.92v46.74
					c0,0-60.03-19.96-64.89-75.26C-22.79,445.78-19.58,298.67-0.05,298.67z"/>
				<path class="st9" d="M67.63,234.08c35.27,0.18,22.99,396.55,20.8,473.15H39.18C39.18,707.23,22.76,233.85,67.63,234.08z"/>
			</g>
			<g>
				<path class="st9" d="M533.93,485.72c19.02-0.01,9.3,78.68,11.82,112.03c1.73,22.89,24.81,34.04,24.81,34.04v39.51
					c0,0-50.75-16.87-54.86-63.63C512.99,576.72,517.42,485.72,533.93,485.72z"/>
				<path class="st9" d="M589.44,397.73c29.82,0.16,19.43,335.26,17.58,400.02h-41.64C565.38,797.75,551.5,397.54,589.44,397.73z"/>
			</g>
			<polygon class="st9" points="-27.85,680.57 74.11,685.83 82.59,698.49 196.33,706.73 203.46,727.15 217.9,727.15 237.53,784.17 
				281.67,784.17 308.99,761.87 358.79,760.68 362.4,784.17 371.19,784.17 385.09,749.24 407.78,746.27 417.3,762.41 439.21,763.14 
				465.1,807.26 505.6,806.72 518.31,791.98 518.31,773.24 537.77,770.65 537.77,753.16 610.54,733.4 664.12,733.4 664.12,739.58 
				664.12,960.32 -20,960.32 			"/>
			<path class="st9" d="M267.9,562.46c22.83,0.09,14.88,197.97,13.46,236.21h-31.88C249.48,798.67,238.85,562.34,267.9,562.46z"/>
			<path class="st9" d="M477.45,699.57c49.2,0.05,32.07,98.98,29.01,118.11h-68.72C437.75,817.68,414.84,699.51,477.45,699.57z"/>
			<path class="st9" d="M302.81,790.57c0,0-34.28-3.94-61.61-4.06c17.14-5.86,39.93-12.49,39.93-12.49s-13.58,2.14-30.05,4.98
				c16.74-8.22,36.72-19.42,36.72-19.42s-13.38,4.75-25.65,8.54c7.21-5.69,16.66-11.89,16.66-11.89s-13.38,4.42-29.3,10.62
				c13.39-9.78,36.91-33.42,36.91-33.42S267,743.45,246,757.69c-0.68,0.46-9.45,7.3-10.12,7.77c13.74-19.44,41.17-46.76,41.17-46.76
				s-21.54,9.31-40.64,27.49c6.58-11.58,11.98-21.71,11.98-21.71s-10.59,12.26-22.51,26.55c7.08-22.56,14.6-55.38,14.6-55.38
				s-9.15,16.61-23.18,37.52c5.13-15.98,9.57-32.75,9.57-32.75s-6.35,10.47-14.13,23.8c4.84-24.59,8.8-52.09,8.8-52.09
				s-11.8,28.06-23.05,56.9c-1.53-27.98-7.89-69.59-7.89-69.59s-4.47,41.86-9.22,76.83c-7.4-24.51-16.03-64.36-16.03-64.36
				s1.57,27.32,4.25,52.09c-6.18-13.97-11.25-24.93-11.25-24.93s3.09,20.84,6.89,38.61c-13.14-24.67-21.47-44.87-21.47-44.87
				s8.48,38.63,13.28,61.81c-3.23-3.58-9.42-9.09-12.84-12.12c-7.99-11.99-15.78-20.83-15.78-20.83s5.71,15.47,9.14,23.69
				c-15.08-11.43-31.87-26.67-31.87-26.67s24.46,26.51,38.21,45.94c-0.67-0.47-1.35-0.93-2.03-1.4c-21-14.24-45.05-30-45.05-30
				s33.54,29.93,46.92,39.71c-15.92-6.2-39.82-16.72-39.82-16.72s5.21,4.16,12.42,9.86c-12.27-3.79-21.41-6.5-21.41-6.5
				s19.97,11.2,36.72,19.42c-16.47-2.84-30.05-4.98-30.05-4.98s26.02,9.45,43.16,15.32c-27.32,0.11-64.83,1.23-64.83,1.23
				s35.44,6.52,56.35,10.71c-20.53,2.7-48.86,5.63-48.86,5.63s56.73,10.37,66.05,10.57c7.94,0.17,25.86,1.99,37.92,0.26
				c12.06,1.72,29.97-0.09,37.92-0.26c9.32-0.2,66.05-10.57,66.05-10.57s-18.75-3.83-39.28-6.53
				C276.95,796.2,302.81,790.57,302.81,790.57z"/>
			<path class="st9" d="M161.03,712.25c0,0-41.81-4.81-75.13-4.95c20.9-7.15,48.7-15.23,48.7-15.23s-16.56,2.6-36.65,6.07
				c20.42-10.02,44.78-23.68,44.78-23.68s-16.32,5.79-31.28,10.41c8.8-6.94,20.32-14.51,20.32-14.51s-16.32,5.39-35.74,12.96
				c16.33-11.92,45.02-40.75,45.02-40.75s-23.7,12.2-49.31,29.57c-0.83,0.57-11.53,8.91-12.35,9.48
				c16.76-23.7,50.21-57.03,50.21-57.03s-26.28,11.36-49.57,33.53c8.03-14.12,14.61-26.47,14.61-26.47S81.73,646.6,67.2,664.03
				C75.83,636.52,85,596.49,85,596.49s-11.15,20.26-28.27,45.76c6.25-19.49,11.67-39.94,11.67-39.94s-7.75,12.77-17.23,29.03
				c5.91-29.99,10.73-63.53,10.73-63.53s-14.39,34.23-28.11,69.39c-1.87-34.12-9.63-84.87-9.63-84.87s-5.45,51.06-11.25,93.69
				c-9.02-29.9-19.55-78.49-19.55-78.49s1.91,33.32,5.19,63.52c-7.53-17.04-13.72-30.4-13.72-30.4s3.77,25.41,8.4,47.08
				c-16.02-30.08-26.19-54.72-26.19-54.72s10.34,47.11,16.19,75.39c-3.94-4.37-11.49-11.09-15.66-14.78
				c-9.75-14.63-19.25-25.4-19.25-25.4s6.97,18.87,11.15,28.89c-18.4-13.94-38.87-32.53-38.87-32.53s29.83,32.33,46.6,56.03
				c-0.82-0.57-1.65-1.14-2.48-1.7c-25.61-17.37-54.95-36.58-54.95-36.58s40.9,36.5,57.23,48.43
				c-19.42-7.57-48.56-20.39-48.56-20.39s6.36,5.08,15.15,12.02c-14.96-4.62-26.11-7.93-26.11-7.93s24.36,13.66,44.78,23.68
				c-20.09-3.47-36.65-6.07-36.65-6.07s31.74,11.53,52.64,18.68c-33.32,0.14-79.07,1.5-79.07,1.5s43.23,7.96,68.72,13.07
				c-25.04,3.29-59.59,6.87-59.59,6.87s69.18,12.64,80.55,12.89c9.69,0.21,31.54,2.42,46.25,0.32c14.71,2.1,36.56-0.11,46.24-0.32
				c11.37-0.24,80.55-12.89,80.55-12.89s-22.86-4.67-47.91-7.96C129.49,719.11,161.03,712.25,161.03,712.25z"/>
			<path class="st9" d="M731.2,783.64c0,0-41.81-4.81-75.13-4.95c20.9-7.15,48.7-15.23,48.7-15.23s-16.56,2.6-36.65,6.07
				c20.42-10.02,44.78-23.68,44.78-23.68s-16.32,5.79-31.28,10.41c8.79-6.94,20.32-14.51,20.32-14.51s-16.32,5.39-35.74,12.96
				c16.33-11.92,45.02-40.75,45.02-40.75s-23.7,12.2-49.31,29.57c-0.83,0.57-11.53,8.91-12.35,9.48
				c16.76-23.7,50.21-57.03,50.21-57.03s-26.28,11.36-49.57,33.53c8.03-14.12,14.61-26.47,14.61-26.47s-12.92,14.95-27.46,32.38
				c8.63-27.51,17.81-67.54,17.81-67.54s-11.15,20.26-28.27,45.76c6.25-19.49,11.67-39.94,11.67-39.94s-7.75,12.77-17.23,29.03
				c5.91-29.99,10.73-63.53,10.73-63.53s-14.39,34.23-28.11,69.39c-1.87-34.12-9.63-84.87-9.63-84.87s-5.45,51.06-11.25,93.69
				c-9.02-29.9-19.55-78.49-19.55-78.49s1.91,33.32,5.19,63.53c-7.53-17.04-13.72-30.4-13.72-30.4s3.77,25.41,8.4,47.08
				c-16.02-30.08-26.19-54.72-26.19-54.72s10.34,47.11,16.19,75.39c-3.94-4.37-11.49-11.09-15.66-14.78
				c-9.75-14.63-19.25-25.4-19.25-25.4s6.97,18.87,11.15,28.89c-18.4-13.94-38.87-32.53-38.87-32.53s29.83,32.33,46.6,56.03
				c-0.82-0.57-1.65-1.14-2.48-1.7c-25.61-17.37-54.95-36.58-54.95-36.58s40.9,36.5,57.23,48.43
				c-19.42-7.57-48.56-20.39-48.56-20.39s6.36,5.08,15.15,12.02c-14.96-4.62-26.11-7.93-26.11-7.93s24.36,13.66,44.78,23.68
				c-20.09-3.47-36.65-6.07-36.65-6.07s31.74,11.53,52.63,18.68c-33.32,0.14-79.07,1.5-79.07,1.5s43.23,7.96,68.72,13.07
				c-25.04,3.29-59.59,6.87-59.59,6.87s69.18,12.64,80.55,12.89c9.69,0.21,31.54,2.42,46.25,0.32c14.71,2.1,36.56-0.11,46.24-0.32
				c11.37-0.24,80.55-12.89,80.55-12.89s-22.86-4.67-47.91-7.96C699.66,790.5,731.2,783.64,731.2,783.64z"/>
		</g>
	</g>
</g>
</svg>
