<?xml version="1.0" encoding="utf-8"?>
<!-- Generator: Adobe Illustrator 27.6.1, SVG Export Plug-In . SVG Version: 6.00 Build 0)  -->
<svg version="1.1" xmlns="http://www.w3.org/2000/svg" xmlns:xlink="http://www.w3.org/1999/xlink" x="0px" y="0px"
	 viewBox="0 0 750 500" style="enable-background:new 0 0 750 500;" xml:space="preserve">
<style type="text/css">
	.st0{fill:url(#SVGID_1_);}
	.st1{clip-path:url(#SVGID_00000007413467058171935430000002060800384452095649_);}
	.st2{opacity:0.7;fill:url(#SVGID_00000090998001303481261670000013858803275376999323_);}
	.st3{fill:#FFD45A;}
	.st4{fill:#FF933B;}
	.st5{fill:#E5451A;}
	.st6{opacity:0.3;fill:#FF933B;}
	.st7{fill:#EF4316;}
	.st8{fill:#C63109;}
	.st9{fill:#C11010;}
	.st10{fill:#AB1409;}
	.st11{fill:#891A0E;}
	.st12{fill:#60100A;}
	.st13{fill:#59140B;}
	.st14{fill:#440F08;}
	.st15{fill:#77130E;}
	.st16{fill:#961411;}
	.st17{fill:#BC1511;}
	.st18{fill:#C93311;}
</style>
<g id="BACKGROUND">
	<linearGradient id="SVGID_1_" gradientUnits="userSpaceOnUse" x1="375" y1="500" x2="375" y2="-9.094947e-13">
		<stop  offset="0.3172" style="stop-color:#FF7E00"/>
		<stop  offset="0.5018" style="stop-color:#FE7B01"/>
		<stop  offset="0.6437" style="stop-color:#FC7103"/>
		<stop  offset="0.7713" style="stop-color:#F96107"/>
		<stop  offset="0.8898" style="stop-color:#F44A0C"/>
		<stop  offset="1" style="stop-color:#EE2D13"/>
	</linearGradient>
	<rect class="st0" width="750" height="500"/>
</g>
<g id="OBJECTS">
	<g>
		<defs>
			<rect id="SVGID_00000111152638198891365050000002116108969711611267_" width="750" height="500"/>
		</defs>
		<clipPath id="SVGID_00000100354017329500256260000017159150248414958472_">
			<use xlink:href="#SVGID_00000111152638198891365050000002116108969711611267_"  style="overflow:visible;"/>
		</clipPath>
		<g style="clip-path:url(#SVGID_00000100354017329500256260000017159150248414958472_);">
			<g>
				
					<radialGradient id="SVGID_00000126323752681478793560000013031817354812029885_" cx="188.4106" cy="147.8682" r="205.8787" gradientUnits="userSpaceOnUse">
					<stop  offset="0" style="stop-color:#FFFFFF"/>
					<stop  offset="0.8813" style="stop-color:#FFFFFF;stop-opacity:0.1187"/>
					<stop  offset="1" style="stop-color:#FFFFFF;stop-opacity:0"/>
				</radialGradient>
				
					<circle style="opacity:0.7;fill:url(#SVGID_00000126323752681478793560000013031817354812029885_);" cx="188.41" cy="147.87" r="205.88"/>
				
					<ellipse transform="matrix(0.9988 -0.0498 0.0498 0.9988 -7.132 9.569)" class="st3" cx="188.41" cy="147.87" rx="116.24" ry="116.24"/>
			</g>
			<g>
				<g>
					<path class="st4" d="M750,305.72c-8.54-0.65-32.41,2.38-32.41,2.38s-2.25,21.75-2.7,31.48c-2.9-2.75-7.19-6.68-8.99-11.77
						c-5.02,1.1-13.37,4.28-18.12,6.7c-8.75,4.45-3.8,7.34-9.14,15.33c-4.03,6.02-9.99,6.47-17.59,6.35
						c-9.58-0.15-5.78-3.41-11.94,5.69c-5.93,8.75-2.89,7.3-13.49,7.42c-7.33,0.09-9.89-1.92-16.25-3.34
						c-3.14-0.7-8.24,1.49-11.02,0.29c-3.69-1.59-2.22-3.54-5.34-6.81c-3.32-3.48,0.74-3.26-5.07-5.53
						c-1.2-0.47-7.06,2.12-8.99,2.06c-3.17-8.46,1.45-53.33-12.25-45.64c-0.96,7.56-1.93,14.47-2.34,22.67
						c-2.3,0.64-6.56,0.64-8.86,0c-0.84-17.8-0.8-34.06-4.46-51.29c-6.67-31.43-15.63,10.15-19.98,10.81
						c-0.45-8.48,0.04-17.51-3.47-24.88c-4.54,2.32-9.74,4.68-14.84,5.47c-5.68,20.09-8.42,41.73-14.43,60.71
						c-0.23-2.38-1.95-5.36-2.19-8.15c-8.45-2.31-12.1,7.64-13.24,15c-8.59,0.47-17.68,0.67-26.33,0.17
						c-6.84-0.4-16.13-6.25-20.11-5.64c-0.62-2.54-2.97-4.99-3.03-7.6c-17.96,10.7-12.34,38.55-31.85,48.28l231.17,43.8
						c3.84-6.75,12.02-5.51,18.54-5.23c29.22,1.25,59.65,2.86,88.72-2.19V305.72z"/>
					<path class="st5" d="M750,305.72c-3.45-0.26-8.14,0.38-12.5,1.24c-1.36,0.27-5.25,40.95-6.5,41.24
						c-1.06,0.25,0.5-39.9-0.42-39.67c-3.12,0.79-5.25,1.44-5.25,1.44s-2.05,26.72-2.5,36.45c-2.9-2.75-15.13-13.52-16.93-18.61
						c-2.58,0.56-5.1,2.34-7.59,4.26c-0.99,0.76-1.97,1.55-2.96,2.29c-0.59,0.45-1.21,11.8-1.8,12.2
						c-0.45,0.3-0.86-10.32-1.31-10.06c-0.31,0.18-0.61,0.35-0.92,0.51c-8.75,4.45-0.83,9.79-6.17,17.78
						c-4.03,6.03-16.52,1.54-24.12,1.42c-9.58-0.15-3.72,2.82-9.88,11.92c-5.93,8.75-4.95,1.07-15.55,1.2
						c-7.33,0.09-9.89-1.92-16.25-3.34c-3.14-0.7-8.24,1.49-11.02,0.29c-3.69-1.59-2.22-3.54-5.34-6.81
						c-3.32-3.48,0.74-3.26-5.07-5.53c-1.2-0.47-7.06,2.12-8.99,2.06c-3.17-8.46,3.14-51.07-9.88-46.48
						c-0.96,7.56-0.16,15.75-0.57,23.95c-2.3,0.64-10.7,0.2-13-0.44c-0.84-17.8-0.8-34.06-4.46-51.29
						c-6.67-31.43-14.02,24.22-18.38,24.88c-0.45-8.48-1.56-31.58-5.07-38.95c-4.54,2.32-5.49,6.88-10.59,7.67
						c-5.68,20.09-5.66,53.55-11.67,72.53c-0.23-2.38-8.96-19.38-9.2-22.17c-8.45-2.31-9.99,12.99-11.13,20.35
						c-8.59,0.47-19.79-4.67-28.43-5.18c-6.84-0.4-16.13-6.25-20.11-5.64c-0.62-2.54-1.99-4.29-1.99-4.29
						c-17.96,10.7-1.89,37.41-21.4,47.14l219.68,41.62c3.84-6.75,12.02-5.51,18.54-5.23c29.22,1.25,59.65,2.86,88.72-2.19V305.72z"
						/>
					<polygon class="st6" points="434.33,371.31 446.5,354.78 462.83,349.27 474.67,355.67 496.83,351.93 506,354.6 471.5,361.18 
						459,357.62 448.83,365.09 446.83,361.36 					"/>
					<path class="st6" d="M530.33,283.85L527,312.47l3.33,5.69L527,349.27h2.5l6-35.91c0,0-2.17-1.96-2.33-2.49s0.5-8,0.5-8
						l-2.42-1.24l1.25-22.22L530.33,283.85z"/>
					<polygon class="st6" points="546.17,355.49 544.5,336.29 551.33,322.6 551.33,308.02 554.33,293.09 554.33,284.56 
						555.33,281.89 555.33,296.47 553.67,308.73 554.5,318.69 557.17,311.93 558.5,312.65 555.67,330.42 549,342.69 					"/>
					<polygon class="st6" points="544.5,370.16 571.5,363.76 583.75,370.16 599.5,374.16 580.79,374.16 569.25,368.96 					"/>
					<path class="st7" d="M750,379.36c-12.5-1.3-27.87,1.5-36.99,1c-19.52-1.05-38.22-3.8-57.48-2.78
						c-68.59,3.65-131.48-3.93-197.56-14.9c-31.78-5.28-63.56-8.59-95.22-14.21c-27.03-4.79-64.82-5.97-89.32-18.51
						c-7.6-27.67-10.82-57.98-20.62-85.1c-8.38,0.63-18.36,2.47-26.27,5.63c0.07-9.86-1.31-18.86-6.92-26.64
						c-3.93,3.58-7.68,1.75-11.41,3.85c0.73-13.72,0.99-44.74-6.37-54.5c-2.03,0.58-8.32,3.93-9.92,5.22
						c-1.84,12.52-1.98,24.65-2.65,37.9c-1.06-0.11-4.51-0.16-5.52,0.01c-10.5-36.91-7.61-90.26-8.85-129.01
						c-6.69,2.13-16.58,1.71-22.59,5.93c-7.56,5.3,4.56,18.81-11.32,16.24c-0.07-5.09-2.73-8.03-2.69-13.14
						c-8.15,8.65-24.74,13.82-36,16.09c1.43,29.64-1.27,62.42-2.65,92.52c-3.01,0.75-6.56,0.73-9.57,0
						c-1.66-21.18-1.75-52.49-4.58-70.02c-14.17-0.74-18.39,2.65-23.78,13.54c-5.78,11.68,4.73,21.29-16.45,20.79
						c-6.68,23.36-1.79,50.16-6.41,74.69c-3.52,18.68-0.38,14.51-16.25,20.4c-7.77,2.88-14.98,3.92-22.61,4.33V500h750V379.36z"/>
					<path class="st8" d="M750,379.36c-12.5-1.3-27.87,1.5-36.99,1c-19.52-1.05-38.22-3.8-57.48-2.78
						c-68.59,3.65-131.48-3.93-197.56-14.9c-31.78-5.28-63.56-8.59-95.22-14.21c-27.03-4.79-84.91-14.95-109.41-27.49
						c-0.83-13.93-5.08-55.18-7.15-75.4c-8.38,0.63-11.73,1.76-19.64,4.91c0.07-9.86-1.31-18.86-6.92-26.64
						c-3.93,3.58-11.56,2.38-15.29,4.48c0.73-13.72-0.83-45.77-2.49-55.13c-2.03,0.58-8.32,3.93-9.92,5.22
						c-1.84,12.52-1.98,24.65-2.65,37.9c-1.06-0.11-4.51-0.16-5.52,0.01c-4.09-2.03-10.14-15.52-13.92-46.32
						c-1.2-11.06-2.19-81.18-2.19-81.18c-5.42,0.83-11.26,1.56-15.33,4.42c-7.56,5.3,4.56,18.81-11.32,16.24
						c-0.07-5.09-2.73-8.03-2.69-13.14c-8.15,8.65-24.74,13.82-36,16.09c1.43,29.64-1.27,62.42-2.65,92.52
						c-3.01,0.75-15.14-1.28-18.15-2.01c-1.66-21.18-4.67-50.99-4-66.99c-7.12-0.37-10.39,1.63-15.78,12.52
						c-5.78,11.68,4.73,21.29-16.45,20.79c-6.68,23.36-1.79,50.16-6.41,74.69c-3.52,18.68-0.38,14.51-16.25,20.4
						c-7.77,2.88-14.98,3.92-22.61,4.33V500h750V379.36z"/>
					<path class="st7" d="M149.67,128.31l6,88.96c0,0,14.67,18.09,16.67,19.19c2,1.11,8.67,81.39,8.67,81.39l-12-67.55l-22.5-11.07
						l-4-48.17l5.67-0.74l-2.83-32.67l1.67-0.37l-1.62-33.36L149.67,128.31z"/>
					<polygon class="st7" points="72.33,147.87 76.67,189.02 72.33,190.32 72.33,236.09 67.67,186.44 72.17,183.49 					"/>
					<polygon class="st7" points="76.67,256.76 131.67,243.84 152.67,256.76 165.67,284.44 148.33,284.44 148,261.92 128.67,262.66 
						125,254.91 					"/>
					<polygon class="st7" points="190.75,308.99 231.25,308.99 245.5,332.14 275.75,335.56 298.25,357.43 274.25,341.93 
						236.5,338.33 227.5,317.84 					"/>
					<path class="st9" d="M750,375.63c-31.86,1.77-63.52,5.66-95.49,5.66c-49.41,0-96.17,8.37-145.42,10.7
						c-25.79,1.22-50.54,5.73-76.62,3.16c-21.41-2.11-54.78,1.56-73.48-9.25c-4.32-2.5-8.01-9.81-12.48-10.89
						c-6.82-1.65-11.02,3.93-17.24,4.81c-12.39,1.76-27.05-0.07-39.09-1.61c-12.92-1.66-24.59-5.04-35.58-8.08
						c-10.94-3.03-19.77-4.42-29.75-10.2c-1.89,4.05-5.75,7.44-6.87,11.85c-13.89,2.13-26.2-3.41-38.59-6.11
						c-1.66-6.88-2.52-14.37-5.19-21.07c-22.44-1.29-52.34-10.82-68.56,5.77c-3.49-3.9-6.9-13.21-12.44-15.4
						c-5.62-2.22-17.07,0.2-23.22-0.15c-1.66-6.2-3.37-11.89-5.2-17.98c-14.11,0.67-28.08,4.2-41.99,7.51
						c-6.7,1.6-14.99,1.71-22.81,2.58v120.45c0.28,0.04,0.56,0.07,0.84,0.11c47.91,6.01,98.85,2.65,147.42,3.12
						c77.12,0.75,157.44,7.83,234.11-1.5c77.67-9.46,157.71-8.75,236.1-3.2c29.83,2.11,58.7,6.23,88.78,6.24
						c13.15,0,28.54,2.56,42.75,2.33V375.63z"/>
					<path class="st10" d="M750,375.63c-31.86,1.77-63.52,5.66-95.49,5.66c-49.41,0-96.17,8.37-145.42,10.7
						c-25.79,1.22-50.54,5.73-76.62,3.16c-21.41-2.11-54.78,1.56-73.48-9.25c-4.32-2.5-8.01-9.81-12.48-10.89
						c-6.82-1.65-11.02,3.93-17.24,4.81c-24.68,3.5-32.11,7.18-42.61,5.84c-12.92-1.66-31.18-9.62-42.17-12.66
						c-10.94-3.03-9.65-7.29-19.63-13.08c-1.89,4.05-5.75,7.44-6.87,11.85c-13.89,2.13-36.59,2.17-48.99-0.53
						c-1.66-6.88,7.88-19.96,5.21-26.66c-22.44-1.29-56.54-12.76-81.04,11.74c-3.49-3.9-1.76-19.37-4.17-20.83
						c-5.16-3.14-21.85,0.35-28,0c1.25-6,3.58-13.49,3.8-18.67c-14.11,0.67-28.08,4.2-41.99,7.51c-6.7,1.6-14.99,1.71-22.81,2.58
						v120.45c0.28,0.04,0.56,0.07,0.84,0.11c47.91,6.01,98.85,2.65,147.42,3.12c77.12,0.75,157.44,7.83,234.11-1.5
						c77.67-9.46,157.71-8.75,236.1-3.2c29.83,2.11,58.7,6.23,88.78,6.24c13.15,0,28.54,2.56,42.75,2.33V375.63z"/>
					<path class="st11" d="M750,431.09c-8.79-0.49-17.59-1.17-25.96-2.41c-7.91-1.18-15.41-3.09-23.48-3.87
						c-8.15-0.8-18.74,0.5-26.57-2c-10.51-3.36-11.76-5.12-22.64-2.11c-12.19,3.37-15.78,1.88-26.57-2.85
						c-7.45-3.26-14.53-7.12-22.46-4.62c-6.99,2.2-11.45,6.97-19.17,7.75c-14.97,1.51-8.32-7.88-18.1-13.93
						c-7.03-4.35-18.79,1.77-25.8,3.15c-9.32,1.83-16.39,2.26-24.78,6.13c-8.17,3.77-16.31,9.29-25.02,12.31
						c-14.85,5.16-33.36-3.37-48.21-6.92c-16.61-3.98-30.25-14.46-47.98-10.06c-8.84,2.19-16.11,4.78-25.53,4.93
						c-10.11,0.16-12.85-5.4-21.44-7.18c-8.22-1.71-14.39,4.67-21.44,6.15c-7.68,1.62-17.71-0.38-24.73-1.82
						c-15.79-3.23-32.34,0.52-46.99-2.02c-6.74-1.17-14.4-6.77-22.21-5.44c-4,0.68-7.36,4.1-11.23,5.18
						c-4.67,1.3-10.23,0.81-15.11,1.26c-16.44,1.5-35.99-1.37-51.25-8.7c-8.57-4.12-10.18-6.46-19.63-4.08
						c-8.79,2.21-16.26,7.12-24.25,11.26C74.61,429.22,36.96,415.7,0,415.24v84.58h750V431.09z"/>
					<path class="st12" d="M750,431.09c-8.79-0.49-17.59-1.17-25.96-2.41c-7.91-1.18-15.41-3.09-23.48-3.87
						c-8.15-0.8-17.4,6.36-25.23,3.86c-10.51-3.36-13.1-10.98-23.98-7.97c-12.19,3.37-20.31,8.03-31.1,3.3
						c-7.45-3.26-10-13.26-17.93-10.77c-6.99,2.2-22.1,13.99-29.82,14.77c-14.97,1.51-6.22-8.45-16-14.5
						c-7.03-4.35-10.24-4.67-17.25-3.3c-9.32,1.83-16.39,2.26-24.78,6.13c-8.17,3.77-16.31,9.29-25.02,12.31
						c-14.85,5.16-37.75,5.57-52.61,2.02c-16.61-3.98-26.88-17.73-44.61-13.33c-8.84,2.19-15.09-0.89-24.5-0.74
						c-10.11,0.16-12.85-5.4-21.44-7.18c-8.22-1.71-14.39,4.67-21.44,6.15c-7.68,1.62-19.57,4.54-26.59,3.1
						c-15.79-3.23-33.6,3.55-48.25,1.01c-6.74-1.17-11.29-14.72-19.09-13.39c-4,0.68-7.36,4.1-11.23,5.18
						c-4.67,1.3-10.23,0.81-15.11,1.26c-16.44,1.5-40.57,8.11-55.82,0.78c-8.57-4.12-5.6-15.94-15.06-13.56
						c-8.79,2.21-16.26,7.12-24.25,11.26C74.61,429.22,36.96,415.7,0,415.24v84.58h750V431.09z"/>
					<path class="st13" d="M750,400.59c-5.56-0.39-11.04-0.75-15.74-1.6c-13.9-2.5-27.88-3.45-41.99-3.95
						c-1.82,4.59-3.53,33.38-5.2,38.06c-6.15,0.27-17.6-1.56-23.22,0.12c-5.54,1.65-8.95,8.67-12.44,11.61
						c-16.23-12.51-46.12-5.33-68.56-4.35c-2.67,5.05-3.53,10.7-5.19,15.89c-12.4,2.04-24.7,6.21-38.59,4.61
						c-1.12-3.33-4.98-5.88-6.87-8.94c-9.98,4.36-18.81,5.41-29.75,7.69c-10.99,2.29-22.66,4.84-35.58,6.09
						c-12.04,1.17-26.7,2.54-39.09,1.22c-6.22-0.67-10.41-4.87-17.24-3.63c-4.47,0.81-8.16,6.33-12.48,8.21
						c-18.7,8.14-52.08,5.38-73.48,6.97c-26.08,1.94-50.82-1.46-76.62-2.38c-49.24-1.75-96.01-8.07-145.42-8.07
						c-34.33,0-68.3-3.39-102.56-4.54V500h750V400.59z"/>
					<path class="st14" d="M750,400.59c-5.56-0.39-11.04-0.75-15.74-1.6c-13.9-2.5-16.65,1.14-30.76,0.64
						c-1.82,4.59-1.49,28.03-3.15,32.7c-6.15,0.27-30.87-0.8-36.49,0.88c-5.54,1.65-3.21,12.18-6.69,15.12
						c-16.33-14.83-45.56-5.98-68-5c-2.67,5.05,1.33,12.98-0.33,18.17c-12.4,2.04-35.86,1.07-49.76-0.54
						c-1.12-3.33-4.98-5.88-6.87-8.94c-9.98,4.36-18.26,10.36-29.2,12.64c-10.99,2.29-27.25,3.91-40.17,5.17
						c-12.04,1.17-22.65-1.48-35.04-2.81c-6.22-0.67-10.41-4.87-17.24-3.63c-4.47,0.81-8.16,6.33-12.48,8.21
						c-18.7,8.14-52.08,5.38-73.48,6.97c-26.08,1.94-50.82-1.46-76.62-2.38c-49.24-1.75-96.01-8.07-145.42-8.07
						c-34.33,0-68.3-3.39-102.56-4.54V500h750V400.59z"/>
				</g>
				<path class="st15" d="M666,351.5c-0.36-6.66-2.85-19.56-12.51-11.9c-5.18,4.11-5.01,15.12-4.99,21.4
					c0.03,8.21,0.49,17.34-4.14,24.39c-6.11,9.29-12.92,5.71-13.87-3.88c-0.78-7.85-0.5-16.36-0.5-24.5c0-4.42,0.02-8.72,0.5-13
					c0.59-5.34,1.37-5.51,6-7.5c11.94-5.14,27.6-16.89,21.99-32.48c-6.07-16.88-22.83,15.46-27.89,18.93
					c-0.38-5.76-0.03-11.65-0.1-17.45c-0.08-6.79,0.74-18.07-5-22.53c-7.07-5.49-14.45,3.54-17,9.53c-2.64,6.19-1.35,18.04-1,25
					c0.49,9.66,0.9,19.24,1,29.11c0.04,3.84,0.34,7.62,0.71,11.37c-2.08,2.62-7.52,1.43-10.54-0.23c-4.87-2.68-4.42-9.91-4.67-15.08
					c-0.55-11.25,0.33-22.57,1-33.67c0.69-11.55,0.89-23.73,0.33-35.33c-0.3-6.21-0.89-11.1-2.43-16.98
					c-1.25-4.77-6.16-11.58-11.57-7.02c-3.72,3.13-3.33,11.18-3.33,15.67c0,5.54,0.19,11.14-0.07,16.65
					c-0.58,12.02-0.86,24.31-0.26,36.37c0.54,11,1.08,23.37,3.65,34c2.61,10.79,13.06,14.74,23.02,15.72
					c2.1,0.21,4.06,0.7,5.85,0.18c0.13,1.57,0.24,3.15,0.31,4.74c0.35,7.8,1.33,16.74,2.5,24.5c1.15,7.63,1.14,15.38,1.53,23
					c0.21,4.23,1.04,8.26,1.45,12.47c0.25,2.62,0.12,11.62,1.53,11.53l18.5,9c0.52-0.2,0.94-1.07,1.92-1.09
					c0.36-5.01-3.95-10.64-4.45-15.91c-0.56-5.92-0.27-12.55,0.03-18.5c0.23-4.62-0.8-13.52,4.03-16.4
					c4.88-2.92,11.61,0.65,16.6-3.48C665.21,388.95,666.72,364.7,666,351.5z"/>
				<path class="st14" d="M666,351.5c-0.36-6.66-1.83-15.5-11.5-7.84c-5.18,4.11-3.02,13.82-3,20.1c0.03,8.21,1.13,14.86-3.5,21.9
					c-6.11,9.29-16.55,5.45-17.5-4.15c-0.78-7.85-0.5-16.36-0.5-24.5c0-4.42,0.02-8.72,0.5-13c0.59-5.34,1.37-5.51,6-7.5
					c11.94-5.14,27.94-17.02,21.99-32.48c-3.99-10.35-22.83,15.46-27.89,18.93c-0.38-5.76-0.03-11.65-0.1-17.45
					c-0.08-6.79,0.74-18.07-5-22.53c-7.07-5.49-11.29,7.04-13.83,13.03c-2.64,6.19-1.02,19.21-0.67,26.17
					c0.49,9.66,0.52,13.1,0.63,22.98c0.04,3.84,0.34,7.62,0.71,11.37c-2.08,2.62-10.64,2.9-13.66,1.23
					c-4.87-2.68-4.42-9.91-4.67-15.08c-0.55-11.25,0.33-22.57,1-33.67c0.69-11.55,0.89-23.73,0.33-35.33
					c-0.3-6.21-0.89-11.1-2.43-16.98c-1.25-4.77-2.7-8.93-8.12-4.38c-3.72,3.13-3.33,11.18-3.33,15.67c0,5.54,0.19,11.14-0.07,16.65
					c-0.58,12.02-0.86,24.31-0.26,36.37c0.54,11-2.38,20.72,0.19,31.35c2.61,10.79,13.06,14.74,23.02,15.72
					c2.1,0.21,6.7,0.7,8.49,0.19c0.13,1.57,0.24,3.15,0.31,4.74c0.35,7.8,1.33,16.74,2.5,24.5c1.15,7.63,1.14,15.38,1.53,23
					c0.21,4.23,1.92,10.12,2.33,14.33c0.25,2.62,0.84,22.01,2.24,21.91L636,453.5c0.52-0.2,0.94-1.07,1.92-1.09
					c0.36-5.01-3.95-10.64-4.45-15.91c-0.56-5.92-0.27-12.55,0.03-18.5c0.23-4.62-0.8-13.52,4.03-16.4
					c4.88-2.92,11.61,0.65,16.6-3.48C665.21,388.95,666.72,364.7,666,351.5z"/>
				<path class="st15" d="M97.67,390.5c7.93-3.64,15.45,2.9,22.5-4.74c10.96-11.86,7.23-35.42,9.49-50.38
					c1.34-8.86,5.01-47.41-14.98-34.14c-6.75,4.48-6.04,16.26-6.01,23.64c0.03,8.64-1.04,17.56-2.49,26
					c-0.87,5.1-5.03,20.54-13.53,13.01c-4.27-3.78-0.98-18.11-0.99-23.51c0-3.87,0.73-8.31-1.36-11.61
					c-2.2-3.47-5.62-3.55-8.76-5.27c-7.18-3.93-9.42-10.92-9.76-18.62c-0.22-5,1.1-21.2-8.64-16c-5.68,3.03-3.34,16.56-2.97,22.5
					c0.6,9.78,6,12.39,12.89,18.13c6.96,5.78,5.11,13.81,5.11,22.37c0,16.86-0.48,33.73-2.03,50c-0.62,6.55-0.16,19.55-9.84,11.38
					c-6.55-5.53-4.42-14.15-3.63-21.88c0.59-5.73,1.87-19.83-8.01-17.89c-7.49,1.47-6.72,15.32-7,20.89
					c-0.41,8.06-0.22,16.82,1.53,24.5c2.34,10.32,9.8,9.84,18.5,11.99c9,2.21,7.89,8.64,7.48,17.02c-0.41,8.39-1,16.35-1.5,24.5
					l-2.5,10.5c7.55,0.05,15.18,0.85,22.92,0.42c0.77-5.23-0.69-10.99-0.42-16.42c0.38-7.99,2.55-7.18,9.5-6.5
					c20.73,2.04,19-19.72,19-34.5c0-5.32,0.19-19.99-8.97-14.4c-7.05,4.3-5.87,16.87-7.51,23.9c-0.99,4.26-1.71,8.33-6.51,9
					c-5.39,0.75-6.33-2.5-6.5-7c-0.31-8.46,0.17-16.84,0.97-25.03C94.19,406.83,91.83,393.18,97.67,390.5z"/>
				<path class="st14" d="M97.67,390.5c7.93-3.64,15.45,2.9,22.5-4.74c10.96-11.86,7.23-35.42,9.49-50.38
					c1.34-8.86,6.59-43.41-13.4-30.14c-6.75,4.48-3.03,20.58-3,27.96c0.03,8.64-2.81,15.79-4.25,24.22c-0.87,5.1-7.85,14-16.35,6.47
					c-4.27-3.78-3.5-16.5-3.51-21.9c0-3.87,0.44-5.49-1.65-8.79c-2.2-3.47-4.61-4.24-7.75-5.96c-7.18-3.93-7.63-14.65-7.97-22.36
					c-0.22-5,1.1-21.2-8.64-16c-5.68,3.03-0.76,16.67-0.39,22.61c0.6,9.78,3.41,12.28,10.31,18.02c6.96,5.78,5.11,13.81,5.11,22.37
					c0,16.86-0.48,33.73-2.03,50c-0.62,6.55-0.16,19.55-9.84,11.38c-6.55-5.53-9.6-7.44-8.8-15.16c0.59-5.73,7.04-26.54-2.83-24.6
					c-7.49,1.47-6.72,15.32-7,20.89c-0.41,8.06-0.22,16.82,1.53,24.5c2.34,10.32,9.8,9.84,18.5,11.99c9,2.21,7.89,8.64,7.48,17.02
					c-0.41,8.39-1,16.35-1.5,24.5l-2.5,10.5c7.55,0.05,15.18,0.85,22.92,0.42c0.77-5.23-0.69-10.99-0.42-16.42
					c0.38-7.99,2.55-7.18,9.5-6.5C123.9,462.43,118,446.28,118,431.5c0-5.32,4.36-25.6-4.81-20.01c-7.05,4.3-5.87,16.87-7.51,23.9
					c-0.99,4.26-1.71,8.33-6.51,9c-5.39,0.75-9.62,0.86-9.79-3.64c-0.31-8.46,0.81-25.32,1.62-33.5
					C91.55,401.71,91.83,393.18,97.67,390.5z"/>
				<path class="st16" d="M321,327.5c-0.21-3.98-0.13-8.86-5-9.51c-4.78-0.64-6.6,3.47-7,7.01c-0.78,6.88,3.48,18.29-2,23.89
					c-2.36,2.41-8.05,3.27-10.15,0.14c-1.66-2.47-0.35-9.54-0.35-12.52c0-8.23-1.5-15.74-1.5-24c0-5.66,0.33-19.28-9.5-15.01
					c-7.23,3.14-5.13,15.31-4.5,21.51c1.71,16.91,5.84,33.36,6,50.5c0.09,9.71-0.15,19.43-0.5,29.01
					c-0.18,4.78,0.26,9.29,0.03,13.99c-0.21,4.11-3.64,10.78-1.53,14l15.5,5c0.36-10.77-3.18-21.98-1.41-32.44
					c0.13-0.04,0.27-0.08,0.4-0.13c1.34-0.55,6.88,3.77,9.51,3.56c3.89-0.32,6.02-2.02,7.49-5.49c3.27-7.72-0.9-19.03-8.11-9.62
					c-2.27,2.96-1.98,7.09-7.38,5.12c-4.54-1.65-3.5-6.04-3.5-10.01c0-5.22-2.57-20.58,0.47-24.53c4.05-5.25,15.89,1.4,20.91-5.59
					C322.99,346.68,321.36,334.29,321,327.5z"/>
				<path class="st12" d="M321,327.5c-0.21-3.98-0.13-8.86-5-9.51c-4.78-0.64-4.47,5.22-4.87,8.76c-0.78,6.88,3.48,17.15-2,22.75
					c-2.36,2.41-10.17,2.65-12.27-0.48c-1.66-2.47-0.35-9.54-0.35-12.52c0-8.23-1.5-15.74-1.5-24c0-5.66,1.58-17.68-8.25-13.42
					c-7.23,3.14-4.29,16.63-3.67,22.83c1.71,16.91,6.26,32.61,6.42,49.75c0.09,9.71,0.18,18.38-0.17,27.96
					c-0.17,4.78-0.26,9.01-0.5,13.71c-0.21,4.11-5.95,9.94-3.83,13.16l15.5,5c0.36-10.77-3.18-21.98-1.41-32.44
					c0.13-0.04,0.27-0.08,0.4-0.13c1.34-0.55,6.88,3.77,9.51,3.56c3.89-0.32,6.02-2.02,7.49-5.49c3.27-7.72,0.39-15.74-6.82-6.34
					c-2.27,2.96-3.27,3.8-8.67,1.84c-4.54-1.65-3.5-6.04-3.5-10.01c0-5.22-2.57-20.58,0.47-24.53c4.05-5.25,15.89,1.4,20.91-5.59
					C322.99,346.68,321.36,334.29,321,327.5z"/>
				<path class="st17" d="M472,350c-1.18-4.94-3.69-6.13-5.5-1c-0.69,1.95,0.49,8.96-3.1,9.41c-4.24,0.53-2.9-8.43-2.9-10.91
					c0.01-6.68,1.32-20.72-8.92-15.91c-0.54,10.66,0.93,21.6,0.92,32.41c0,3.65,1.23,9.86-4.39,8.39c-4.45-1.17-3.07-6.25-3.11-9.89
					c-0.04-3.94-0.29-9.43-5.61-7.61c-3.98,1.36-2.98,5.89-2.42,9.63c0.5,3.36,1.22,7.82,3.5,10.47c2.85,3.32,7.82,3.03,10.9,5.63
					c5.59,4.72,3.7,14.68,5.13,21.37l8,0.5c0.5-0.08,0.93,0.05,1.42-0.08c0.26-4.16-2.61-9.23-3.45-13.4
					c-0.93-4.59-2.15-8.83-1.95-13.53c0.22-5.1-0.61-7.41,3.97-9c4.1-1.42,6.58,0.56,8.01-4.49C473.34,359.08,472.69,352.88,472,350
					z"/>
				<path class="st10" d="M472,350c-1.18-4.94-2.52-4.13-4.33,1c-0.69,1.95,1.75,8.22-1.83,8.67c-4.24,0.53-5.34-9.68-5.33-12.17
					c0.01-6.68,3.41-18.14-6.83-13.33c-0.54,10.66,1.67,21.57,1.67,32.38c0,3.65-1.6,7.31-7.22,5.83c-4.45-1.17-3.07-6.25-3.11-9.89
					c-0.04-3.94,0.32-7.15-5-5.33c-3.98,1.36-1.23,4.92-0.67,8.67c0.5,3.36,2.05,5.66,4.33,8.32c2.85,3.32,6.92,2.58,10,5.18
					c5.59,4.72,1.4,15.97,2.83,22.67l8,0.5c0.5-0.08,0.93,0.05,1.42-0.08c0.26-4.16-2.61-9.23-3.45-13.4
					c-0.93-4.59-2.15-8.83-1.95-13.53c0.22-5.1-0.61-7.41,3.97-9c4.1-1.42,6.58,0.56,8.01-4.49C473.34,359.08,472.69,352.88,472,350
					z"/>
			</g>
			<g>
				<path class="st18" d="M417.56,193.14c0,0-2.15,2.51-3.67,2.94c-1.53,0.44-3.38,0.6-4.85,0.27c-1.47-0.33-2.4-0.53-2.94,0.17
					c-1.96,0.26-2.51,0.97-2.45,1.79c0.05,0.82,0.98,1.25,0.98,1.25s0.11-0.63,0.84-0.41c0.74,0.22,3.3,1.99,3.95,2.1
					c-1.91,0.98-7.11,1.96-8.99,3.6c-1.88,1.63-3.8,3.76-4.33,4.7c-0.53,0.94-0.53,0.94-0.53,0.94s1.06-0.08,1.43,0
					c-0.12,1.27-0.12,2.33-0.12,2.33s1.31-0.25,1.63-0.41c0.08,1.68,0.41,2.21,1.27,3.15c0.86-0.04,0.74-1.31,0.74-1.31
					s0.21,2.62,1.1,3.02c0.7-0.57,0.86-2.86,0.86-2.86s0.9,2.86,1.59,3.56c1.1-1.19,0.82-3.64,0.82-3.64s1.28,2.78,1.68,3.47
					c0.98,0,1.26-2.98,1.26-2.98l1.23,0.29l0.16-0.82c0,0,0.78,0,1.43-0.08c0.65-0.08-0.04-0.53-0.04-0.53l1.8,0.08l-0.04-0.74h1.19
					l-0.37-1.23c0,0,2.29,0.12,1.92-0.57c1.27,0.37,1.92,0.08,1.59-0.49c0.98-0.25,1.43-0.82,1.43-0.82s0.94-0.37,1.23-0.53
					c0.29-0.16,2.41-2.33,3.52-2.37c1.1-0.04,4.21,0.45,5.03,0.45c0.82,0,5.78,4.03,6.98,4.96c1.2,0.93,1.58-0.93,2.4-1.09
					c0.82-0.16,2.83,0.71,3.38-0.65c1.69-0.6,1.96-1.74,1.91-2.34c0.82-0.16,0.23-1.85,0.01-2.34c0.32-1.42,0.42-2.78,0.42-2.78
					s-2.87,0.27-6.61-0.22c-3.73-0.49-4.28-0.68-4.52-0.95c-0.25-0.27,0.55-0.3,0.55-0.3l-0.35-1.14c0,0,1.42,0.27,0.74-1.23
					c1.04-0.33,1.04-1.36,1.04-1.36s1.42-0.05,1.14-1.2c0.76-0.68,0.6-1.63,0.6-1.63s1.06-0.22,0.82-1.04
					c0.98-0.46,1.28-0.71,0.82-1.01c0.44-0.33,1.5-2.4,2.26-2.83c0.76-0.44,1.2-1.25,1.14-1.58c-0.05-0.33,0.11-1.04,0.65-1.58
					c0.55-0.54,0.65-0.98,0.76-2.07c0.11-1.09,1.04-2.07,1.2-2.07c0.16,0,1.14-0.16,0.82-1.63c1.58-0.33,1.63-1.85,1.63-1.85
					l-0.54-0.22l1.74-1.25l-0.65-0.65c0,0,1.53-1.04,1.96-1.31c-0.55-0.6-2.02-0.6-2.02-0.6s4.02-0.42,4.39-1.16
					c-0.61-0.45-5.23-0.41-8.17,0.65c4.33-1.51,7.77-2.33,8.17-2.49c0.41-0.16-3.07-0.98-8.3,0.86c2.17-0.82,7.4-2.29,7.56-3.8
					c-2.13,0.04-9.85,2.9-9.85,2.9s7.28-2.62,7.56-5.27c-2.37,1.06-8.46,4.5-8.46,4.5s5.35-3.11,5.64-5.68
					c-3.6,2.9-7.19,4.66-7.19,4.66s2.29-1.96,2.45-4.37c-2.21,2.33-9.55,9.59-12.44,11.45s-4.91,3.22-6.1,6.98
					C420.21,188.45,418.67,191.39,417.56,193.14z"/>
				<path class="st18" d="M597.2,112.86c0,0-0.52,1.54-1.13,2.03c-0.62,0.48-1.43,0.9-2.16,1.02c-0.73,0.12-1.19,0.2-1.31,0.62
					c-0.85,0.48-0.96,0.91-0.79,1.27c0.18,0.36,0.68,0.39,0.68,0.39s-0.07-0.31,0.31-0.34c0.38-0.04,1.88,0.3,2.19,0.23
					c-0.69,0.8-2.88,2.22-3.44,3.31c-0.56,1.1-1.04,2.42-1.11,2.95c-0.07,0.53-0.07,0.53-0.07,0.53s0.47-0.23,0.65-0.27
					c0.18,0.6,0.38,1.09,0.38,1.09s0.55-0.35,0.67-0.49c0.35,0.75,0.6,0.93,1.16,1.2c0.38-0.18,0.09-0.73,0.09-0.73
					s0.58,1.16,1.06,1.18c0.21-0.39-0.14-1.47-0.14-1.47s0.94,1.14,1.39,1.33c0.28-0.75-0.3-1.81-0.3-1.81s1.1,1.03,1.41,1.27
					c0.45-0.18,0.02-1.6,0.02-1.6l0.61-0.1l-0.08-0.4c0,0,0.35-0.14,0.64-0.3c0.28-0.16-0.12-0.23-0.12-0.23l0.84-0.3l-0.16-0.33
					l0.54-0.22l-0.4-0.49c0,0,1.07-0.37,0.77-0.62c0.65-0.07,0.89-0.32,0.64-0.52c0.4-0.29,0.5-0.64,0.5-0.64s0.36-0.34,0.46-0.47
					c0.1-0.13,0.67-1.51,1.17-1.74c0.5-0.22,2.01-0.58,2.38-0.73c0.37-0.15,3.39,0.77,4.11,0.97c0.72,0.2,0.55-0.72,0.89-0.94
					c0.34-0.23,1.42-0.2,1.42-0.93c0.66-0.59,0.57-1.16,0.44-1.42c0.34-0.23-0.24-0.89-0.43-1.07c-0.12-0.71-0.33-1.35-0.33-1.35
					s-1.26,0.66-3.06,1.13c-1.8,0.47-2.08,0.48-2.24,0.4c-0.16-0.08,0.19-0.24,0.19-0.24l-0.38-0.46c0,0,0.7-0.14,0.11-0.7
					c0.41-0.34,0.22-0.81,0.22-0.81s0.64-0.29,0.3-0.76c0.22-0.45-0.03-0.86-0.03-0.86s0.45-0.3,0.18-0.62
					c0.36-0.39,0.45-0.56,0.19-0.61c0.14-0.23,0.24-1.37,0.51-1.71c0.27-0.34,0.32-0.79,0.23-0.93c-0.08-0.14-0.14-0.49,0-0.84
					c0.15-0.35,0.12-0.57-0.04-1.09c-0.15-0.52,0.09-1.14,0.16-1.17c0.07-0.03,0.49-0.29,0.07-0.9c0.66-0.44,0.4-1.15,0.4-1.15
					l-0.29,0l0.56-0.9l-0.42-0.18c0,0,0.5-0.76,0.65-0.96c-0.36-0.17-1.03,0.1-1.03,0.1s1.76-0.94,1.79-1.34
					c-0.36-0.09-2.47,0.78-3.61,1.82c1.7-1.49,3.11-2.5,3.27-2.66c0.16-0.15-1.58,0.12-3.63,1.93c0.84-0.78,2.95-2.42,2.75-3.14
					c-0.96,0.41-3.96,3.15-3.96,3.15s2.84-2.54,2.47-3.81c-0.89,0.93-3.03,3.62-3.03,3.62s1.87-2.41,1.52-3.64
					c-1.1,1.99-2.42,3.46-2.42,3.46s0.68-1.32,0.31-2.45c-0.58,1.47-2.58,6.15-3.56,7.54c-0.98,1.38-1.64,2.38-1.49,4.32
					C597.54,110.23,597.39,111.86,597.2,112.86z"/>
				<path class="st18" d="M701.81,252.07c0,0-0.52,1.54-1.13,2.03c-0.62,0.48-1.43,0.9-2.17,1.02c-0.73,0.12-1.19,0.21-1.31,0.62
					c-0.85,0.48-0.96,0.91-0.79,1.27c0.18,0.36,0.68,0.39,0.68,0.39s-0.07-0.31,0.31-0.34c0.38-0.04,1.88,0.3,2.19,0.23
					c-0.69,0.8-2.88,2.21-3.44,3.31c-0.56,1.1-1.04,2.42-1.11,2.95c-0.07,0.53-0.07,0.53-0.07,0.53s0.47-0.23,0.65-0.27
					c0.18,0.6,0.38,1.09,0.38,1.09s0.55-0.36,0.67-0.49c0.35,0.75,0.6,0.93,1.16,1.2c0.38-0.18,0.09-0.73,0.09-0.73
					s0.58,1.16,1.06,1.18c0.21-0.39-0.14-1.47-0.14-1.47s0.94,1.14,1.39,1.33c0.28-0.75-0.3-1.81-0.3-1.81s1.1,1.03,1.41,1.28
					c0.45-0.18,0.02-1.6,0.02-1.6l0.61-0.1l-0.08-0.4c0,0,0.35-0.14,0.64-0.3c0.28-0.16-0.12-0.24-0.12-0.24l0.84-0.3l-0.16-0.33
					l0.54-0.22l-0.4-0.49c0,0,1.07-0.37,0.77-0.62c0.65-0.07,0.89-0.32,0.64-0.52c0.4-0.29,0.5-0.64,0.5-0.64s0.36-0.34,0.46-0.47
					c0.1-0.13,0.67-1.51,1.17-1.74s2.01-0.58,2.38-0.73c0.37-0.15,3.39,0.77,4.11,0.97c0.72,0.2,0.55-0.72,0.89-0.94
					c0.34-0.23,1.42-0.2,1.42-0.93c0.66-0.59,0.57-1.16,0.44-1.42c0.34-0.23-0.24-0.89-0.43-1.07c-0.12-0.71-0.33-1.35-0.33-1.35
					s-1.26,0.66-3.06,1.13c-1.8,0.47-2.08,0.48-2.24,0.4c-0.16-0.08,0.19-0.24,0.19-0.24l-0.38-0.46c0,0,0.7-0.14,0.11-0.7
					c0.41-0.34,0.22-0.81,0.22-0.81s0.64-0.29,0.3-0.76c0.22-0.45-0.03-0.86-0.03-0.86s0.45-0.3,0.18-0.62
					c0.36-0.39,0.45-0.56,0.19-0.61c0.14-0.23,0.24-1.37,0.51-1.71c0.27-0.34,0.32-0.79,0.23-0.93c-0.09-0.14-0.14-0.49,0-0.84
					c0.15-0.35,0.12-0.57-0.04-1.09c-0.15-0.52,0.09-1.14,0.16-1.17c0.07-0.03,0.49-0.29,0.07-0.9c0.66-0.44,0.4-1.15,0.4-1.15
					l-0.29,0l0.56-0.9l-0.42-0.18c0,0,0.5-0.76,0.65-0.96c-0.36-0.17-1.03,0.1-1.03,0.1s1.76-0.94,1.79-1.34
					c-0.36-0.09-2.47,0.78-3.61,1.82c1.7-1.49,3.11-2.5,3.27-2.66c0.16-0.15-1.58,0.12-3.63,1.93c0.84-0.78,2.95-2.42,2.75-3.14
					c-0.96,0.41-3.96,3.15-3.96,3.15s2.84-2.54,2.47-3.81c-0.89,0.93-3.03,3.62-3.03,3.62s1.87-2.41,1.52-3.64
					c-1.1,1.99-2.42,3.46-2.42,3.46s0.68-1.32,0.31-2.45c-0.58,1.47-2.58,6.15-3.56,7.54c-0.98,1.38-1.64,2.38-1.49,4.32
					C702.15,249.44,702,251.07,701.81,252.07z"/>
			</g>
		</g>
	</g>
</g>
<g id="DESIGNED_BY_FREEPIK">
</g>
</svg>
