<svg width="261" height="243" viewBox="0 0 261 243" fill="none" xmlns="http://www.w3.org/2000/svg">
<ellipse cx="130.993" cy="99.2771" rx="66.9927" ry="68.2771" fill="black"/>
<path d="M130.612 210.796L186.652 137.114H74.5725L130.612 210.796Z" fill="black"/>
<ellipse cx="130.422" cy="94.915" rx="51.5768" ry="47.9836" fill="white"/>
<path d="M128.899 105.536V115.208V115.398H125.854L124.141 115.208L121.857 114.639L119.764 113.881L116.528 112.364L114.054 110.277L112.341 107.622L111.39 104.967L111.009 103.45V99.0874L111.199 96.8115L111.77 95.4839L111.199 95.2943L109.677 95.1046L107.774 93.9667L106.251 92.2597L105.49 90.1735V88.4666L106.441 85.432L107.964 82.3975L109.867 79.9319L111.58 77.8457L113.483 76.1387L114.815 75.1905L116.148 74.2422L117.861 73.8628H119.383L120.715 74.2422L121.857 74.6215L122.619 74.0525L123.761 73.4835L125.093 72.9145L126.806 72.5352L128.138 72.1559H132.325L134.038 72.5352L135.751 72.9145L137.654 73.6732L139.176 74.8111L139.747 74.4318L140.889 74.0525L142.222 73.8628L144.125 74.2422L145.838 75.1905L148.312 76.8974L150.025 78.6043L151.738 80.6906L153.26 82.7768L154.783 85.6217L155.354 87.3286V90.9321L154.592 92.4494L153.45 93.777L152.118 94.7253L150.405 95.2943H149.263L149.644 96.6219L150.025 98.7081V102.691L149.834 104.019L149.073 106.484L147.551 109.708L145.267 111.984L140.509 114.26L137.844 115.019L134.989 115.398H132.135V105.536L133.086 104.777L134.228 103.829L134.989 102.881L135.56 102.122L135.941 101.174V100.605V99.2771L135.56 98.5185L134.989 97.9495L134.038 97.5702L133.086 97.1909H127.948L126.806 97.5702L125.854 97.9495L125.283 98.7081L125.093 99.4668V100.794L125.283 101.553L126.044 102.881L127.186 104.208L128.899 105.536Z" fill="black" stroke="black"/>
<ellipse cx="125.283" cy="90.1735" rx="2.28384" ry="2.2759" fill="white"/>
<ellipse cx="135.56" cy="90.1735" rx="2.28384" ry="2.2759" fill="white"/>
<path d="M256 121.29C256 185.177 200.163 237.58 130.5 237.58C60.8373 237.58 5 185.177 5 121.29C5 57.4031 60.8373 5 130.5 5C200.163 5 256 57.4031 256 121.29Z" stroke="black" stroke-width="10"/>
</svg>
