<?xml version="1.0" encoding="utf-8"?>
<!-- Generator: Adobe Illustrator 27.6.1, SVG Export Plug-In . SVG Version: 6.00 Build 0)  -->
<svg version="1.1" xmlns="http://www.w3.org/2000/svg" xmlns:xlink="http://www.w3.org/1999/xlink" x="0px" y="0px"
	 viewBox="0 0 1.29 1.29" style="enable-background:new 0 0 1.29 1.29;" xml:space="preserve">
<style type="text/css">
	.st0{fill:url(#SVGID_1_);}
	.st1{fill:#783320;}
	.st2{fill:#4A1F19;}
	.st3{fill:#3B1A14;}
	.st4{fill:#291013;}
	.st5{fill:#1F090C;}
	.st6{fill:#190609;}
	.st7{fill:#11000D;}
	.st8{opacity:0;fill:#AD3A17;}
	.st9{opacity:0.0308;fill:#AF3D18;}
	.st10{opacity:0.0615;fill:#B14119;}
	.st11{opacity:0.0923;fill:#B3441A;}
	.st12{opacity:0.1231;fill:#B6481B;}
	.st13{opacity:0.1538;fill:#B84B1C;}
	.st14{opacity:0.1846;fill:#BA4F1D;}
	.st15{opacity:0.2154;fill:#BC521E;}
	.st16{opacity:0.2462;fill:#BE561F;}
	.st17{opacity:0.2769;fill:#C05920;}
	.st18{opacity:0.3077;fill:#C35D21;}
	.st19{opacity:0.3385;fill:#C56022;}
	.st20{opacity:0.3692;fill:#C76423;}
	.st21{opacity:0.4;fill:#C96724;}
	.st22{opacity:0.0308;fill:#B33D18;}
	.st23{opacity:0.0615;fill:#BA4119;}
	.st24{opacity:0.0923;fill:#C0441A;}
	.st25{opacity:0.1231;fill:#C6481B;}
	.st26{opacity:0.1538;fill:#CD4B1C;}
	.st27{opacity:0.1846;fill:#D34F1D;}
	.st28{opacity:0.2154;fill:#D9521E;}
	.st29{opacity:0.2462;fill:#DF561F;}
	.st30{opacity:0.2769;fill:#E65920;}
	.st31{opacity:0.3077;fill:#EC5D21;}
	.st32{opacity:0.3385;fill:#F26022;}
	.st33{opacity:0.3692;fill:#F96423;}
	.st34{opacity:0.4;fill:#FF6724;}
	.st35{opacity:0.0308;fill:#B34118;}
	.st36{opacity:0.0615;fill:#BA4719;}
	.st37{opacity:0.0923;fill:#C04E1A;}
	.st38{opacity:0.1231;fill:#C6551B;}
	.st39{opacity:0.1538;fill:#CD5B1C;}
	.st40{opacity:0.1846;fill:#D3621D;}
	.st41{opacity:0.2154;fill:#D9691E;}
	.st42{opacity:0.2462;fill:#DF701F;}
	.st43{opacity:0.2769;fill:#E67620;}
	.st44{opacity:0.3077;fill:#EC7D21;}
	.st45{opacity:0.3385;fill:#F28422;}
	.st46{opacity:0.3692;fill:#F98A23;}
	.st47{opacity:0.4;fill:#FF9124;}
	.st48{opacity:0;fill:url(#SVGID_00000041987218615364832340000009715932624107406004_);}
	.st49{opacity:0.1111;fill:url(#SVGID_00000056403588418420957060000007221236880248580493_);}
	.st50{opacity:0.2222;fill:url(#SVGID_00000088828674932425122900000003945897979160580283_);}
	.st51{opacity:0.3333;fill:url(#SVGID_00000070831524466366101850000001003450457485820069_);}
	.st52{opacity:0.4444;fill:url(#SVGID_00000016039760396932501080000001298223966741863296_);}
	.st53{opacity:0.5556;fill:url(#SVGID_00000062174458919250237800000013802534625679185568_);}
	.st54{opacity:0.6667;fill:url(#SVGID_00000130606502682944925250000003440730076791368078_);}
	.st55{opacity:0.7778;fill:url(#SVGID_00000080172198676083766260000002617570364447899300_);}
	.st56{opacity:0.8889;fill:url(#SVGID_00000026849038974889462630000006833987902089851317_);}
	.st57{fill:url(#SVGID_00000157289414263693372380000009710522894211663524_);}
</style>
<g id="BACKGROND">
	<g>
		<linearGradient id="SVGID_1_" gradientUnits="userSpaceOnUse" x1="-569.75" y1="-581.6563" x2="-569.75" y2="-246.9825">
			<stop  offset="0" style="stop-color:#FFDA34"/>
			<stop  offset="0.348" style="stop-color:#D54315"/>
			<stop  offset="1" style="stop-color:#1D0B03"/>
		</linearGradient>
		<rect x="-824" y="-575.57" class="st0" width="508.5" height="338.05"/>
	</g>
</g>
<g id="OBJECTS">
	<g>
		<path class="st1" d="M-405.79-485.99c0.19-0.27,0.32-0.6,0.37-1.01C-405.56-486.67-405.68-486.33-405.79-485.99z M-576.56-448.4
			c0.09-0.35,0.16-0.71,0.19-1.08C-576.61-449.06-576.66-448.7-576.56-448.4z M-333.43-466.26c0.18,3.52-4.42,6.25-7.43,4.41
			c-2.02-2.14-4.05-4.27-6.07-6.41c0.71,2.56-3.2,4.33-5.45,2.91c-2.25-1.42-2.95-4.32-3.41-6.93c-2.79,3.71-6.52,6.7-10.76,8.62
			c-1.12,0.51-2.68,0.18-3.67-0.42c-0.12,4.68-7.16,7.72-12.59,8.39c-3.48,0.43-12.63,2.94-12.71,7.78
			c0.14-6.91-0.3-13.83-1.3-20.67c-1.3,0.77-3,1.13-4.47,1.38c-2.83-5.85-3.65-12.84-5.27-19.12c-2.56,2.91-6.75-1.7-5.04-2.73
			c-6.58,3.96-13.15,7.92-19.73,11.87c1.45-2.09,0.54-5.41-1.79-6.46c-2.33-1.05-5.43,0.44-6.05,2.91
			c-0.97-2.01-1.94-4.02-2.91-6.03c-2.9,2.94-3.95,7.55-2.61,11.45c-3.57,1.51-7.14,3.02-10.72,4.53c-1.84-2.29-3.68-4.58-5.53-6.87
			c0.24,0.3-11.23,16.64-12.75,17.32c-5.97,2.66-5.02-10.58-5.22-14.47c-0.25,1.08-0.96,2.06-1.92,2.63
			c-0.12-4.77-0.25-9.55-0.37-14.32c-0.39,0.64-1.32-0.27-1.25-1.02c0.07-0.74,0.31-1.7-0.34-2.06c-0.15,0.83-0.61,1.59-1.28,2.1
			c0.15-1.33,0.02-2.59-0.61-3.75c-3.03,3.96-7.23-3.47-12.16-0.42c-0.26,0.16-0.51,0.35-0.76,0.53c-0.44-0.46-0.67-1.11-0.63-1.75
			c-0.44,0.62-1.04,1.12-1.73,1.44c-0.29-0.42-0.59-0.84-0.88-1.26c-0.6,0.95-1.2,1.9-1.81,2.85c-0.32-0.45-0.64-0.9-0.97-1.35
			c-1.03,1.48-2.06,2.97-3.1,4.45c-0.45-0.62-0.79-1.31-1.01-2.04c-0.67,0.45-1.35,0.9-2.02,1.35c-0.22-1.62-0.44-3.23-0.66-4.85
			c-0.7,1.05-1.4,2.11-2.1,3.16c-2.2-3.25-6.58,1.01-8.56,3.06c-0.27-1.03-0.53-2.07-0.8-3.1c-0.8,1.43-1.6,2.86-2.4,4.29
			c-1.05-4.33-10.92,3.5-10.87,3.62c-0.49-1.12-0.97-2.24-1.46-3.36c-0.82,1.91-1.64,3.81-2.46,5.72c-0.9-0.65-1.57-1.61-1.87-2.67
			c-2.63,7.79-5.27,15.86-6.96,23.94c-2.39,0.04-4.77,0.08-7.16,0.12c-5.28,3.19-10.56,6.39-15.85,9.58
			c-1.85,1.12-5.26,0.88-5.71-0.48c-1.05,4.21-5.69,7.04-10.15,7.24c-4.83,0.23-9.44-1.83-13.83-3.83c-2.77-1.27-5.54-2.53-8.31-3.8
			c-1.48-0.67-3.94-0.2-4.35,0.78c-1.05-4.39-2.11-8.77-3.16-13.16c-4.13,7.04-8.27,14.08-12.4,21.12
			c-10.62-1.04-21.24-2.07-31.87-3.11c-1.07-0.1-2.43,1.13-1.97,1.59c-8.15-3.82-18.43-2.67-25.51,2.89
			c-1.4-1.71-2.8-3.42-4.19-5.12c-1.5,2.43-2.99,4.86-4.49,7.3c-0.52-1.98-3.98-2.02-4.55-0.06c-9.85-4.99-17.29-14.48-19.76-25.21
			c-1.24-5.4-1.28-10.99-1.32-16.53c-0.96,3.94-1.92,7.89-2.88,11.83c-0.31-0.98-1.77-1.86-2.85-1.31
			c-1.53,0.77-1.97,2.69-2.24,4.37c-1.1-7.07-2.2-14.14-3.3-21.21c0.78,7.75-2.1,15.8-7.64,21.3c-1.22,1.98-2.44,3.97-3.65,5.95
			c-1.7-11.45-3.4-22.9-5.1-34.35c-2.37,2.29-7.94,3.17-7.43-0.08c-6.14,24.24-15.01,51.77-38.22,61.23
			c-1.54,0.63-4.29-0.2-3.33-1.55c-4.45,6.24-6.72,33.49-18.55,26.65c-0.26,3.23-0.55,6.54-2.01,9.43
			c-0.33,0.64-0.73,1.26-1.19,1.83c-0.87,1.08-1.97,1.98-3.19,2.56v154.11h508.5V-465.9C-321.67-465.58-328.21-463.13-333.43-466.26
			z M-370.23-464.09c0.02-0.63-0.09-1.29-0.34-1.98C-371.59-465.48-371.18-464.66-370.23-464.09z"/>
		<path class="st2" d="M-315.5-402.7c-27.4,5.12-55.69,5.52-83.21,1.12c-3.03-0.48-6.14-1.06-8.73-2.71
			c-2.96-1.88-4.94-4.99-7.75-7.08c-10.52-7.83-26.14,1.5-38.43-3.08c-4.68-1.75-8.96-5.53-13.93-4.98
			c-3.41,0.38-6.32,2.78-9.72,3.23c-3.5,0.46-6.9-1.21-10.04-2.83c-9.41-4.87-18.82-9.73-28.23-14.6c2.12,5.53-5.96,9.05-11.89,9.4
			c-5.92,0.35-14.06,3.49-12.28,9.14c-9.17-2.82-19.53-1.48-27.68,3.56c-1.29-2.24-2.58-4.47-3.87-6.71
			c-8.55,2.86-17.84,0.22-26.85-0.17c-9.01-0.39-19.83,3.14-21.83,11.91c-2.1-4.12-8.63-2.84-11.84,0.49
			c-3.21,3.32-5.06,8-8.96,10.49c-2.61,1.67-5.79,2.12-8.86,2.47c-20.05,2.27-40.43,1.68-60.32-1.75
			c-5.48-0.95-10.98-2.11-16.54-1.95c-4.85,0.14-9.62,1.28-14.34,2.42c-16.76,4.04-33.51,8.09-50.27,12.13
			c-4.5,1.09-9.16,2.18-13.72,1.35c-3.2-0.58-6.18-2.09-9.37-2.73c-3.27-0.65-6.57-0.37-9.83,0.36v145.69h508.5V-402.7z"/>
		<path class="st3" d="M-773.88-328.22c0.2-0.04,0.4-0.09,0.6-0.13C-773.48-328.57-773.73-328.45-773.88-328.22z M-526-266.06
			c-0.46-15.54-5.09-30.6-6.21-46.07c-0.72-9.89-0.36-20.88,1.79-30.56c-9.07-3.69-18.15-7.38-27.22-11.07
			c-2.7-1.1-5.44-2.21-8.33-2.55c-4.53-0.54-9.04,0.84-13.44,2.04c-10.09,2.75-20.5,4.7-30,9.06c-5.41,2.49-10.82,5.82-16.77,5.6
			c-5.19-0.19-10.09-3.1-15.27-2.77c-8.91,0.57-15.65,10.43-24.53,9.59c-2.63-0.25-5.16-1.46-7.79-1.21
			c-2.96,0.28-5.55,2.38-8.52,2.47c-2.97,0.1-5.59-1.79-8.39-2.75c-4.06-1.39-8.49-0.84-12.75-0.28c-6.73,0.9-13.46,1.8-20.19,2.7
			c-4.55,0.61-9.21,1.21-13.71,0.28c-3.62-0.75-7.01-2.48-10.68-2.97c-5.71-0.76-11.33,1.57-16.62,3.84c-2.5,1.07-5,2.14-7.49,3.22
			c-0.56,0.24-1.25,0.46-1.71,0.07c-0.23-0.2-0.18-0.55-0.02-0.79c-12.37,2.65-32.8,10.34-35.92,24.06
			c-4.42,19.45-2.87,42.16-1.17,61.86c0.14,1.58,0.3,3.2,0.59,4.78h282.55c1.61-3.16,2.45-6.71,2.44-10.24
			C-525.42-253.8-525.82-259.95-526-266.06z"/>
		<path class="st4" d="M-586.84-321.27c-0.05,0.65-0.02,1.32,0.07,1.96C-586.7-319.73-586.71-320.36-586.84-321.27z M-455.96-365.45
			c-0.81,1.64-2.95,0.3-3.07-1.67c-1.32,0.52-2.5,1.67-3.29,3.22c-0.61-4.73-2.12-1.79-3.15-1.17c-0.9,0.55-1.2,2.14-2.43,2.48
			c-0.24,0.07-2.18-0.23-2.15-0.28c-1.64,2.63-3.83,4.69-5.56,7.42c-0.23,0.37-0.49,0.75-0.83,0.87c-0.43,0.14-0.88-0.18-1.31-0.11
			c-0.89,0.14-1.22,1.66-1.35,2.89c-0.58-0.17-1.11-0.61-1.48-1.24c-0.84,1.39-1.48,3.02-1.84,4.75c-0.8-1.19-2.56,0.25-2.18,1.79
			c-0.77,0.36-1.19-2.04-1.93-1.58c-0.19,0.12-0.3,0.41-0.39,0.67c-0.51,1.54-1.02,3.07-1.53,4.61c0.09-1.18-1.23-1.7-1.89-0.95
			c-0.66,0.75-0.79,2.06-0.87,3.23c-0.73-0.72-1.36-1.65-1.84-2.7c-0.26,1.98-0.52,3.96-0.78,5.93c-0.63-0.14-1.12-0.85-1.73-1.1
			s-1.49,0.49-1.19,1.26c-0.41-0.68-0.82-1.36-1.23-2.04c-2.13,7.5-8.44,6.04-10.87,14.21c-0.09,0.31-0.21,0.65-0.43,0.79
			c-0.84,0.49-0.92-2.19-1.82-2.35c-0.33,1.63-0.67,3.25-1,4.88c-0.96-1-1.77-2.28-2.34-3.74c-1.28,6.61-2.09,6.01-5.84,10.32
			c-1.04,1.19-6.61,8.99-5.68,11c-0.75-1.61-1.5-3.23-2.25-4.84c-1.04,2.86-2.09,5.73-3.13,8.59c-0.81-0.72-1.43-1.84-1.71-3.11
			c-0.68,2.42-1.17,4.95-1.46,7.52c-1.03-0.79-1.76-2.3-1.88-3.92c-0.74,2.73-1.3,5.56-1.69,8.43l-2.46-3.49
			c-0.21-0.29-0.47-0.61-0.76-0.54c-0.39,0.09-0.51,0.76-0.55,1.3c-0.64,7.92-0.87,16.18-2.06,23.97c-1.88,0.1-4.65,1.86-6.1-0.63
			c-1.56-2.7-1.71-11.03-2.66-14.59c-0.65,0.32-1.36,0.4-2.03,0.23c0.08-2.99,0.17-5.98,0.25-8.97c-1.6,1.98-3.43,3.59-5.4,4.76
			c-0.68-4.5-0.58-9.21,0.28-13.65c-1.54-0.23-3.09-0.19-4.62,0.11c-0.08-1.71,0.02-3.44,0.29-5.11c-0.89,0.15-1.76,0.57-2.53,1.23
			c-0.66-1.8-1.06-3.77-1.17-5.78c-1.48,4.28-2.64,9.42-5.12,12.8c-1.7-1.1-6.11-3.33-6.91-5.88c-0.86-2.72-1.3-5.68-1.28-8.65
			c-0.72,1.04-1.54,1.95-2.43,2.71c-0.45-1.91-0.48-3.99-0.08-5.92c-0.84-0.02-1.67,0.45-2.25,1.28c-0.56-0.87-0.95-1.96-1.11-3.11
			c-0.43,2.67-4.23-3.36-4.78-4.6c-0.34-0.75-3.69-9.54-3.37-9.69c-0.22,0.1-2.29,1.34-2.22,1.6c-0.36-1.42-0.52-2.94-0.47-4.44
			c-0.76,1.33-1.53,2.66-2.29,3.99c-0.48-0.54-0.9-1.09-1.43-1.53c0.22,7.23-9.43,2.82-10.58,9.48c0.35-2.01-0.99-4.21-2.49-4.1
			c-1.61,6.38-4.58,12.1-8.45,16.25c-1.62,1.74-3.98,3.2-5.62,1.48c0.07,2.07,0.15,4.14,0.22,6.21c-1.47-1.18-2.93-2.37-4.4-3.55
			c-0.48,2.01-0.96,4.02-1.44,6.03c-4.35-0.84-6.5,6.83-7.67,12.65c-1.05,5.21-2.5,10.72-4.62,15.31c-0.53,1.14-5.61,6.92-4.74,7.97
			c-0.39-0.47-0.78-0.95-1.18-1.42c-0.42,1.86-0.83,3.71-1.25,5.57c-0.2-0.55-0.5-1.02-0.88-1.35c0,1.37-0.16,2.73-0.47,4.03
			l-1.08-2.13c0.05,1.11-0.22,2.24-0.73,3.11c-0.15-1.52-0.63-2.98-1.37-4.14c-0.61,4.45-0.01,7.19-2.4,10.36
			c-1.48,1.97-6.58,7.26-8.6,5.38c-1.46-1.35-2.02-8.08-2.24-10.3c-0.4,1.62-0.79,3.24-1.19,4.86c-0.01-1.21-0.02-2.41-0.03-3.62
			c-0.49-0.03-0.97,0.44-1.11,1.08c-0.95-1.49-1.5-3.47-1.5-5.46c-0.61,0.59-1.14,1.34-1.56,2.19c0.11-1.65-0.03-3.33-0.41-4.9
			c-0.57,0.25-1.13,0.49-1.7,0.74c0.17-1.3,0.32-2.75-0.19-3.87c-0.51-1.12-1.98-1.35-2.33-0.11c0.23-1.39-0.04-2.92-0.7-4.02
			c-0.55,1.17-2,1.17-2.55,0.01c-0.35-0.74-0.32-1.7-0.33-2.58c0-0.89-0.09-1.87-0.57-2.46c-0.48-0.58-1.43-0.31-1.49,0.54
			c0.06-1-0.3-1.99-0.06-3.12c-4.89,2.54-8.38-9.36-9.63-13.56c-0.42,1.96-1.18,3.77-2.21,5.24c-0.86-2.71-2.58-5.96-4.58-4.89
			c-0.31,0.17-0.61,0.44-0.95,0.45c-1.49,0.03-0.79-4-2.12-4.91c-0.67,0.65-1.35,1.31-2.02,1.96c-0.3-1.2-0.71-2.35-1.24-3.39
			c-0.64,1.01-1.43,1.85-2.31,2.44c-0.18-1.92-0.96-4.46-2.33-4c-0.92,0.3-1.42,1.94-2.36,2.08c-0.96,0.14-1.58-1.3-1.96-2.52
			c-0.63,0.88-1.36,1.61-2.15,2.18c-0.58-0.98-1.16-1.95-1.74-2.93c-0.88,0.93-1.77,1.87-2.65,2.8c-0.08-1.45-0.52-2.87-1.22-3.96
			c-1.04,1.18-2.08,2.36-3.12,3.54c-0.21,0.23-0.44,0.48-0.71,0.45c-0.33-0.03-0.54-0.46-0.72-0.84c-0.95-2.12-1.9-4.23-2.85-6.35
			c-0.71,1.46-1.43,2.91-2.14,4.37c-0.12-1.26-0.42-2.49-0.87-3.6c-0.43,0.65-0.87,1.29-1.3,1.94c-0.05-0.59-0.09-1.17-0.14-1.76
			c-0.49,0.42-0.9,0.86-1.44,1.14c-0.24-1.69-8.44-5.79-6.88-8.87c-2.8,5.52-7.49,0.11-8.8-3.7c-0.8,1.59-1.6,3.18-2.4,4.77
			c0.36-1.26,0.22-2.76-0.35-3.86c-0.68,1.5-1.35,3.01-2.03,4.51c-0.23,0.51-0.54,1.08-0.97,1.06c-0.33-0.02-0.58-0.37-0.8-0.71
			c-1.38-2.22-2.37-4.91-2.85-7.76c-0.07-0.44-0.26-1.01-0.59-0.92c-0.17,0.05-0.28,0.28-0.37,0.49c-0.55,1.32-1.1,2.64-1.65,3.97
			c-0.27-0.68-0.37-1.48-0.29-2.25c-0.75,0.15-1.5,0.44-2.2,0.84c-0.03-1.18-0.06-2.36-0.09-3.54c-0.36,0.15-0.68,0.47-0.9,0.88
			l-0.8-4.06c-0.23,0.51-0.46,1.02-0.68,1.53c-0.9-2.74-1.74-5.51-2.52-8.32c-0.71,1.18-1.34,2.47-1.85,3.84
			c-0.74-0.52-1.62-0.5-2.42-0.85c-0.78-0.34-1.29-1.12-1.45-2.21c-0.31,5.56-5.13,8.4-5.05,13.98c-0.11-3.17,0.51-6.89-0.21-9.95
			c-0.85-3.57-3.18-4.68-4.17-8.17c-0.95,0.7-1.6,1.87-2.04,3.27l-0.86-6.84c-0.56,2.34-1.12,4.68-1.69,7.02
			c-0.77-1.46-1.58-2.88-2.42-4.27c-0.59,2.31-1.23,3.97-1.83,5.74c-0.6,1.78-1.15,3.65-1.56,6.41c-0.86,5.73-3.18,12.32-2.71,18.16
			c-2.19-2.93-2.88-8.77-3.37-12.81c-0.6,2.73-1.2,5.46-1.8,8.18c0.2-1.04,0.11-2.18-0.25-3.14c-0.68,0.57-1.25,1.4-1.63,2.37
			c0.18-2.48,0.02-5.01-0.49-7.4c-0.72,1.21-1.24,2.64-1.53,4.15c0.51-1.99,0.47-4.23-0.1-6.19c-0.61,0.64-0.88,1.71-1.12,2.71
			c-1.48,6.09-5.15,0.51-7.82-0.65c0.36-0.07,4.32-0.76,4.35-0.57c-1.17-6.12-3.68-11.71-7.06-15.99v93.6h368.15v-127.01
			C-455.89-364.84-455.92-365.15-455.96-365.45z"/>
		<path class="st5" d="M-429.32-421.33c0.06,0.36,0.13,0.72,0.2,1.09C-428.9-420.48-428.91-420.84-429.32-421.33z M-556.02-361.61
			c-0.98,0.23-0.37,1.38,0.51,1.79C-555-360.49-555.12-361.82-556.02-361.61z M-341.48-433.75l0.73-2.67
			C-342.17-437.32-342.41-434.77-341.48-433.75z M-389.76-395.69c0.3,0.3,0.66,0.49,1.04,0.61c0.31-1.05,0.49-2.13,0.5-3.17
			C-389.39-399.25-390.84-396.78-389.76-395.69z M-329.59-437.57c-1.52,2.09-3.84,3.59-6.37,4.13c-0.56-1.8-1.12-3.59-1.68-5.39
			c-0.06,2.18-0.55,4.94-2.68,5.44c-0.5,0.12-0.88-0.06-1.16-0.36c-0.47,1.74-0.94,3.47-1.42,5.21c-1.09-1.74-2.19-3.48-3.28-5.23
			c0.01,2.37-1.04,4.73-2.81,6.32c-1.18-4.71-1.65-9.6-1.39-14.45c-0.77,2.55-1.55,5.09-2.32,7.64c-2.74-1.59-5.37-3.35-7.88-5.27
			c-3.45,12.25-6.9,24.5-10.36,36.76c-2.22-1.3-4.45-2.6-6.67-3.9c0.3,1.73,0.57,3.63-0.36,5.12c-0.93,1.49-3.59,1.83-4.27,0.22
			c-0.23,1.84-0.46,3.68-0.68,5.52c-0.82,0.19-1.65,0.39-2.47,0.58c-1.08,0.25-2.31,0.46-3.32,0.15c-0.85,2.84-2.76,5.48-5.38,6.64
			c-0.59-1.79-1.25-3.64-2.85-4.7c-0.86,1.7-0.62,4.23-2.02,5.92c-0.97,1.18-2.76,1.79-4.08,1.03c-1.05-2.98-2.1-5.96-3.15-8.93
			c-0.38,1.53-0.76,3.06-1.14,4.6c-3.6,0.24-7.19,0.47-10.79,0.71c-0.9-5.73-0.61-13.38-2.8-18.59c-0.48,0.51-3.48,3.87-3.2,4.5
			c-2.3-5.22-3.97-10.72-4.99-16.33c-0.72,0.76-3.94,0.24-4.93-1.53c-3.65-6.55-6.72-15.1-11.14-21.01
			c-2.14-2.87-0.87-2.96-4.15-1.64c-1.08,0.44-1.58,3.77-3.42,3.19c-0.49-0.15-1.72-2.39-1.62-2.41c-1.05,0.22-1.9-0.78-2.66-1.53
			c-0.77-0.75-2.22-1.24-2.76-0.32c-0.02-0.93-0.65-1.89-1.57-2.03s-1.89,0.86-1.52,1.72c-0.55-0.47-1.39-0.28-2.09-0.48
			c-1.34-0.39-1.78-2.02-1.99-3.4c-1.45,1.39-2.9,2.78-4.35,4.17c-3.1-7.86-10.44-3.78-10.55,3.37c-0.33-4.21-4.17-1.31-4.26,1.87
			c-2.11-1.89-3.75-4.46-5.27-6.85c-0.4,1.23-0.8,2.47-1.21,3.7c-0.65-2.24-1.84-4.32-3.44-6.02c-0.32,0.85-0.63,1.7-0.95,2.56
			c-0.97-2.68-1.94-5.36-2.92-8.05c-0.5,2.53-1.52,4.96-3,7.09c-0.93-2.15-2.3-4.11-4-5.73c-1.36,7.8-2.72,15.59-4.07,23.39
			c-0.17,0.96-0.55,2.13-1.52,2.25c-0.82,0.1-1.47-0.66-1.92-1.35c-1.37-2.11-2.53-4.35-3.46-6.68c-0.98,2.52-1.95,5.04-2.93,7.57
			c-1.66,0.02-3.27-1.13-3.78-2.71c0.5,1.54-1.39,10.23-3.08,10.82c-1.11,0.39-3.5-2.52-4.91-2.85c-0.62,2.61-0.82,5.51-1.15,8.24
			c-4.19-3.5-9.3,3.26-10.43,8.6c-3.01,14.2-4.73,28.67-5.12,43.17c-0.5-0.6-1.88-0.9-2.58-0.2c-1.03,1.02-1.27,2.72-2.48,3.52
			c-0.37,0.24-0.8,0.2-1.18,0.02c-0.17,0.22-0.41,0.37-0.72,0.37c-1.24-0.01-1.97-1.39-2.2-2.6c-1.89,3.15-3.77,6.3-5.66,9.45
			c-0.71-2.32-3.06-4.03-5.49-3.99c1.22,0.76,1.01,2.95-0.34,3.46c-1.34,0.51-2.96-0.98-2.56-2.35
			c-4.16,12.98-10.23,25.35-17.95,36.6c-1.02-1.97-2.05-3.95-3.07-5.92c-0.5,9.36-3.05,18.61-7.41,26.92
			c-0.88,1.67-1.86,3.34-3.32,4.54c-1.61,1.32-3.65,1.97-5.64,2.59c-14.87,4.6-29.73,9.2-44.6,13.8c-4.5,3.54-10.72,3.63-16.46,3.66
			c-27.05,0.13-54.09,2.55-80.73,7.22c-2.33,0.41-4.78,0.89-6.57,2.43c-1.95,1.67-2.76,4.27-3.48,6.73
			c-1.9,6.47-3.79,12.94-5.69,19.41h451.89v-208.2C-320.07-442.86-324.75-440.11-329.59-437.57z"/>
		<path class="st6" d="M-620.34-319.31c0.09-0.64,0.12-1.31,0.07-1.96C-620.4-320.36-620.41-319.73-620.34-319.31z M-720.7-245.58
			c-5.78,0.79-11.44,1.76-16.92,2.99c-5.27,1.19-10.53,2.75-13.49,5.26c8.69,1.51,23.08,0.29,32.5,0.29c22.27,0,44.53,0,66.8,0
			c56.2,0,112.41,0,168.61,0c33.1,0,66.2,0,99.31,0c0.26,0,0.52,0,0.78,0v-45.88c-3.38,2.1-5.89,4.84-7.06,7.84
			c0.04-0.1,3.99,0.25,4.35,0.28c-2.67,0.57-6.34,3.3-7.82,0.32c-0.24-0.49-0.51-1.01-1.12-1.33c-0.57,0.96-0.61,2.06-0.1,3.03
			c-0.28-0.74-0.81-1.44-1.53-2.03c-0.51,1.17-0.67,2.41-0.49,3.63c-0.37-0.48-0.94-0.88-1.63-1.16c-0.36,0.47-0.45,1.03-0.25,1.54
			c-0.6-1.34-1.2-2.67-1.8-4.01c-0.49,1.98-1.18,4.84-3.37,6.28c0.47-2.86-1.85-6.09-2.71-8.9c-0.41-1.35-0.96-2.27-1.56-3.14
			c-0.59-0.86-1.23-1.68-1.83-2.81c-0.84,0.68-1.65,1.38-2.42,2.09c-0.56-1.15-1.12-2.29-1.69-3.44l-0.86,3.35
			c-0.44-0.69-1.09-1.26-2.04-1.6c-1,1.71-3.33,2.25-4.17,4c-0.73,1.5-0.11,3.33-0.21,4.88c0.08-2.74-4.74-4.13-5.05-6.85
			c-0.16,0.54-0.67,0.92-1.45,1.08c-0.8,0.17-1.67,0.16-2.42,0.41c-0.51-0.67-1.14-1.3-1.85-1.88c-0.78,1.38-1.62,2.74-2.52,4.08
			c-0.23-0.25-0.46-0.5-0.68-0.75l-0.8,1.99c-0.22-0.2-0.54-0.36-0.9-0.43c-0.03,0.58-0.06,1.16-0.09,1.74
			c-0.7-0.2-1.45-0.34-2.2-0.41c0.08,0.38-0.02,0.77-0.29,1.1c-0.55-0.65-1.1-1.3-1.65-1.94c-0.09-0.1-0.2-0.22-0.37-0.24
			c-0.32-0.04-0.51,0.23-0.59,0.45c-0.48,1.4-1.47,2.72-2.85,3.81c-0.21,0.17-0.47,0.34-0.8,0.35c-0.43,0.01-0.74-0.27-0.97-0.52
			c-0.68-0.74-1.35-1.47-2.03-2.21c-0.57,0.54-0.71,1.27-0.35,1.89c-0.8-0.78-1.6-1.56-2.4-2.34c-1.31,1.87-6.01,4.52-8.8,1.81
			c1.56,1.51-6.64,3.52-6.88,4.35c-0.54-0.14-0.95-0.35-1.44-0.56c-0.05,0.29-0.09,0.58-0.14,0.86c-0.43-0.32-0.87-0.63-1.3-0.95
			c-0.45,0.54-0.75,1.15-0.87,1.77c-0.71-0.71-1.43-1.43-2.14-2.14c-0.95,1.04-1.9,2.08-2.85,3.11c-0.17,0.19-0.39,0.4-0.72,0.41
			c-0.27,0.01-0.5-0.11-0.71-0.22c-1.04-0.58-2.08-1.16-3.12-1.73c-0.7,0.54-1.14,1.23-1.22,1.94c-0.88-0.46-1.77-0.92-2.65-1.37
			c-0.58,0.48-1.16,0.96-1.74,1.43c-0.79-0.28-1.53-0.64-2.15-1.07c-0.37,0.6-1,1.3-1.96,1.24c-0.94-0.07-1.44-0.87-2.36-1.02
			c-1.37-0.22-2.14,1.02-2.33,1.96c-0.88-0.29-1.67-0.7-2.31-1.19c-0.53,0.51-0.95,1.07-1.24,1.66c-0.67-0.32-1.35-0.64-2.02-0.96
			c-1.33,0.45-0.63,2.42-2.12,2.41c-0.34,0-0.63-0.14-0.95-0.22c-2-0.53-3.72,1.07-4.58,2.4c-1.03-0.72-1.79-1.61-2.21-2.57
			c-1.25,2.06-4.74,7.89-9.63,6.65c0.24,0.55-0.12,1.04-0.06,1.53c-0.05-0.42-1.01-0.55-1.49-0.27c-0.48,0.29-0.57,0.77-0.57,1.2
			s0.02,0.9-0.33,1.27c-0.55,0.57-2.01,0.57-2.55,0c-0.67,0.54-0.93,1.29-0.7,1.97c-0.34-0.61-1.81-0.49-2.33,0.06
			s-0.36,1.26-0.19,1.9c-0.57-0.12-1.13-0.24-1.7-0.36c-0.38,0.77-0.52,1.59-0.41,2.4c-0.42-0.42-0.95-0.78-1.56-1.07
			c0,0.97-0.54,1.94-1.5,2.67c-0.14-0.32-0.62-0.55-1.11-0.53c-0.01,0.59-0.02,1.18-0.03,1.77c-0.4-0.79-0.79-1.59-1.19-2.38
			c-0.21,1.09-0.77,4.38-2.23,5.05c-2.03,0.92-7.12-1.67-8.6-2.64c-2.39-1.55-1.79-2.9-2.4-5.08c-0.74,0.57-1.22,1.28-1.37,2.03
			c-0.51-0.42-0.78-0.98-0.73-1.52l-1.08,1.04c-0.31-0.64-0.47-1.31-0.47-1.98c-0.37,0.16-0.68,0.39-0.88,0.66
			c-0.42-0.91-0.83-1.82-1.25-2.73c-0.39,0.23-0.78,0.46-1.18,0.7c0.87-0.51-4.21-3.35-4.74-3.91c-2.12-2.25-3.57-4.95-4.62-7.5
			c-1.17-2.86-3.32-6.61-7.67-6.2c-0.48-0.99-0.96-1.97-1.44-2.96c-1.47,0.58-2.93,1.16-4.4,1.74c0.07-1.01,0.15-2.03,0.22-3.04
			c-1.63,0.84-3.99,0.13-5.62-0.73c-3.87-2.04-6.84-4.84-8.45-7.97c-1.5-0.06-2.84,1.02-2.49,2.01c-1.15-3.27-10.79-1.1-10.58-4.65
			c-0.53,0.21-0.96,0.48-1.43,0.75c-0.76-0.65-1.53-1.3-2.29-1.96c0.05,0.74-0.11,1.48-0.47,2.18c0.07-0.13-2.01-0.74-2.22-0.79
			c0.32,0.07-3.04,4.38-3.37,4.75c-0.55,0.6-4.35,3.56-4.78,2.25c-0.17,0.56-0.55,1.1-1.11,1.52c-0.58-0.4-1.42-0.64-2.25-0.63
			c0.4,0.94,0.37,1.97-0.08,2.9c-0.89-0.37-1.71-0.82-2.43-1.33c0.02,1.45-0.42,2.91-1.28,4.24c-0.81,1.25-5.21,2.34-6.91,2.88
			c-2.47-1.66-3.64-4.18-5.12-6.28c-0.11,0.98-0.51,1.95-1.17,2.83c-0.76-0.32-1.63-0.53-2.53-0.6c0.28,0.82,0.38,1.67,0.3,2.51
			c-1.53-0.15-3.09-0.17-4.62-0.06c0.87,2.17,0.96,4.49,0.28,6.69c-1.97-0.57-3.8-1.37-5.4-2.34c0.08,1.47,0.17,2.93,0.25,4.4
			c-0.68,0.08-1.39,0.04-2.03-0.11c-1.16,2.14,0.08,5.61-2.64,7.42c-3.69,2.45-15.05,2.99-20.64,3.47
			C-692.07-248.39-706.73-247.5-720.7-245.58z"/>
		<path class="st7" d="M-673.98-258.34c0.26,0.26,0.53,0.52,0.79,0.79C-673.19-257.87-673.42-258.16-673.98-258.34z M-316.7-315.22
			c-6.09,2.48-13.69-3.99-12.18-10.37c-7.79-0.63-15.45-2.78-22.44-6.28c-4.04,3.92-8.97,6.91-14.32,8.69
			c-1.58-1.95-3.16-3.9-4.75-5.84c-1.88,2.19-3.75,4.37-5.63,6.56c-0.08,0.09-7.49-1.14-8.48-1.03c-2.64,0.3-5.2,1.56-7.88,1.95
			c-0.97-1.32-1.22-3.14-0.64-4.67c-0.89,1.54-1.77,3.08-2.66,4.62c-0.19-0.75-0.38-1.5-0.56-2.25c-0.58,1.66-1.17,3.32-1.75,4.99
			c-0.39-0.86-0.79-1.72-1.18-2.59c-0.55,2.31-1.21,4.59-1.99,6.83c-0.82-0.49-1.32-1.45-1.27-2.4c-0.5,2.43-1.01,4.85-1.51,7.28
			c-0.83-1.19-1.32-2.62-1.4-4.07c-1.66,13.3-10.47,25.23-16.1,37.43c-2.37,5.14-4.65,10.32-6.84,15.54
			c-0.29,0.69-4.55,10.48-4.76,10.05c-1.34-2.74-1.89-5.86-1.56-8.89c-0.66,3.23-2.13,6.29-4.23,8.83
			c-0.47-1.84-0.64-3.75-0.51-5.64c-0.63,2.87-1.12,5.76-1.46,8.68c-0.31-0.8-0.63-1.61-0.94-2.41c-1.31,3.67-2.23,8.32-3.57,12.71
			h129.79v-77.01C-315.9-314.76-316.31-314.98-316.7-315.22z M-618.17-246.86c-5.52-1.26-11.28,0.25-16.94,0.1
			c-5.66-0.16-12.16-3.03-13.05-8.61c-5,5.47-14.11,6.6-20.3,2.52c-1.58-1.56-3.15-3.13-4.73-4.69c0.01,1.22-3.4,2.88-4.76,1.06
			c-1.71-2.29-2.09-6.13-4.91-6.65c0.18,2.22,0.37,4.44,0.55,6.65c-0.8-0.97-3.93-0.44-3,1.18c-4.13-0.68-8.25-1.36-12.38-2.04
			c-1.37,2.1-2.74,4.21-4.11,6.31c0.96-1.47-1.36-9.02-1.65-10.9c-0.54-3.55-2.98-10.3-2.13-13.6c0.12-0.45-0.07-1.11-0.53-1.05
			c-1.16,0.81-2.13,1.89-2.82,3.12c-0.65-0.57-1.31-1.13-1.96-1.7c-0.22,0.87-0.7,1.68-1.35,2.3c-0.01-0.84-0.4-1.67-1.03-2.23
			c-0.43,0.58-0.86,1.16-1.29,1.74c0.11-0.61-0.05-1.26-0.42-1.75c-1.23,0.89-2.45,1.78-3.68,2.67c-0.48-2.25-0.75-4.53-0.91-6.82
			c-0.4-0.19-3.64-5.06-2.78-5.8c-0.71,0.61-1.28,1.38-1.67,2.23c-0.63-2.37-0.57-4.95-0.63-7.29c-1.41,2.32-1.98,5.36-1.8,8.08
			c-0.62-1.57-1.21-3.15-1.82-4.73c-1.58-1.1-3.15-2.2-4.73-3.3c-0.64-0.44-1.58-0.21-2.16,0.14c-0.04-1.77-0.73-3.62-2.35-4.21
			c-1.56-0.57-3.36,1.25-3.02,2.57c-2.3-3.35-3.53-7.43-3.41-11.49c-1.76,2.1-3.52,4.21-5.28,6.31c0.47-1.41-0.27-3.29-1.75-3.47
			c-0.62-0.08-1.15,0.33-1.46,0.85c-0.51-2.61-1.03-5.22-1.54-7.84c-2.23,2.6-3.9,5.68-4.84,8.97c-2.14-2.97-7.84-0.25-7.22,3.18
			c-0.52-2.14-1.04-4.29-1.56-6.43c-0.69,2.71-2.65,5.07-5.2,6.23c-1.81-0.95-3.62-1.89-5.43-2.84c-1.28-0.67-3.21-0.15-4.11,0.57
			c-0.46-3.8-0.92-7.6-1.39-11.4c-2.49,0.75-4.65,2.56-5.82,4.88c-0.98-2.2-1.96-4.4-2.94-6.61c-0.98-1.36-3.42-0.8-4.02,0.65
			c0.38-3.31-3.71-6.49-6.81-4.97c-0.43-7.09-2.96-14.04-7.19-19.75c-3.04,0.1-6.09,0.2-9.13,0.3c-0.33-2.83-0.67-5.67-1-8.5
			c-0.97,1.02-2.13,1.75-3.38,2.24v103.16h223.08c-2.28-1.44-4.56-2.87-6.84-4.31C-611.03-243.9-614.39-246-618.17-246.86z"/>
	</g>
	<g>
		<g>
			<ellipse class="st8" cx="-585.47" cy="-443.78" rx="97.82" ry="97.54"/>
			<ellipse class="st9" cx="-585.62" cy="-445.04" rx="93.89" ry="93.63"/>
			<ellipse class="st10" cx="-585.77" cy="-446.3" rx="89.96" ry="89.71"/>
			<ellipse class="st11" cx="-585.93" cy="-447.56" rx="86.04" ry="85.79"/>
			<ellipse class="st12" cx="-586.08" cy="-448.82" rx="82.11" ry="81.88"/>
			<ellipse class="st13" cx="-586.23" cy="-450.08" rx="78.18" ry="77.96"/>
			<ellipse class="st14" cx="-586.39" cy="-451.35" rx="74.25" ry="74.04"/>
			<ellipse class="st15" cx="-586.54" cy="-452.61" rx="70.32" ry="70.13"/>
			<ellipse class="st16" cx="-586.69" cy="-453.87" rx="66.39" ry="66.21"/>
			<ellipse class="st17" cx="-586.85" cy="-455.13" rx="62.47" ry="62.29"/>
			<ellipse class="st18" cx="-587" cy="-456.39" rx="58.54" ry="58.37"/>
			<ellipse class="st19" cx="-587.15" cy="-457.65" rx="54.61" ry="54.46"/>
			<ellipse class="st20" cx="-587.31" cy="-458.91" rx="50.68" ry="50.54"/>
			<ellipse class="st21" cx="-587.46" cy="-460.18" rx="46.75" ry="46.62"/>
		</g>
		<g>
			<ellipse class="st8" cx="-539.46" cy="-345.17" rx="67.19" ry="67"/>
			<ellipse class="st22" cx="-539.56" cy="-346.03" rx="64.49" ry="64.31"/>
			<ellipse class="st23" cx="-539.67" cy="-346.9" rx="61.79" ry="61.62"/>
			<ellipse class="st24" cx="-539.77" cy="-347.77" rx="59.1" ry="58.93"/>
			<ellipse class="st25" cx="-539.88" cy="-348.63" rx="56.4" ry="56.24"/>
			<ellipse class="st26" cx="-539.99" cy="-349.5" rx="53.7" ry="53.55"/>
			<ellipse class="st27" cx="-540.09" cy="-350.37" rx="51" ry="50.86"/>
			<ellipse class="st28" cx="-540.2" cy="-351.23" rx="48.3" ry="48.17"/>
			<ellipse class="st29" cx="-540.3" cy="-352.1" rx="45.61" ry="45.48"/>
			<ellipse class="st30" cx="-540.41" cy="-352.96" rx="42.91" ry="42.79"/>
			<ellipse class="st31" cx="-540.51" cy="-353.83" rx="40.21" ry="40.1"/>
			<ellipse class="st32" cx="-540.62" cy="-354.7" rx="37.51" ry="37.41"/>
			<ellipse class="st33" cx="-540.72" cy="-355.56" rx="34.81" ry="34.72"/>
			<ellipse class="st34" cx="-540.83" cy="-356.43" rx="32.11" ry="32.02"/>
		</g>
		<g>
			<ellipse class="st8" cx="-615.72" cy="-499.17" rx="52.29" ry="52.14"/>
			<ellipse class="st35" cx="-615.8" cy="-499.85" rx="50.19" ry="50.05"/>
			<ellipse class="st36" cx="-615.89" cy="-500.52" rx="48.09" ry="47.96"/>
			<ellipse class="st37" cx="-615.97" cy="-501.2" rx="45.99" ry="45.86"/>
			<ellipse class="st38" cx="-616.05" cy="-501.87" rx="43.89" ry="43.77"/>
			<ellipse class="st39" cx="-616.13" cy="-502.54" rx="41.79" ry="41.68"/>
			<ellipse class="st40" cx="-616.21" cy="-503.22" rx="39.69" ry="39.58"/>
			<ellipse class="st41" cx="-616.3" cy="-503.89" rx="37.59" ry="37.49"/>
			<ellipse class="st42" cx="-616.38" cy="-504.57" rx="35.49" ry="35.39"/>
			<ellipse class="st43" cx="-616.46" cy="-505.24" rx="33.39" ry="33.3"/>
			<ellipse class="st44" cx="-616.54" cy="-505.92" rx="31.29" ry="31.21"/>
			<ellipse class="st45" cx="-616.62" cy="-506.59" rx="29.19" ry="29.11"/>
			<ellipse class="st46" cx="-616.71" cy="-507.26" rx="27.09" ry="27.02"/>
			<ellipse class="st47" cx="-616.79" cy="-507.94" rx="24.99" ry="24.92"/>
		</g>
		<g>
			
				<linearGradient id="SVGID_00000010295728756414152860000017906994666378368161_" gradientUnits="userSpaceOnUse" x1="-598.0085" y1="-503.3138" x2="-598.0085" y2="-465.8264">
				<stop  offset="0.3332" style="stop-color:#FCFCF5"/>
				<stop  offset="0.8663" style="stop-color:#FBCC31"/>
			</linearGradient>
			
				<ellipse style="opacity:0;fill:url(#SVGID_00000010295728756414152860000017906994666378368161_);" cx="-598.01" cy="-484.89" rx="21.82" ry="21.76"/>
			
				<linearGradient id="SVGID_00000078011518189634653110000000112239579567051407_" gradientUnits="userSpaceOnUse" x1="-598.0085" y1="-502.9287" x2="-598.0085" y2="-466.2247">
				<stop  offset="0.3332" style="stop-color:#FCFCF5"/>
				<stop  offset="0.8663" style="stop-color:#FBCC31"/>
			</linearGradient>
			
				<ellipse style="opacity:0.1111;fill:url(#SVGID_00000078011518189634653110000000112239579567051407_);" cx="-598.01" cy="-484.89" rx="21.36" ry="21.3"/>
			
				<linearGradient id="SVGID_00000061470987108503767550000013627161520034020510_" gradientUnits="userSpaceOnUse" x1="-598.0085" y1="-502.5437" x2="-598.0085" y2="-466.623">
				<stop  offset="0.3332" style="stop-color:#FCFCF5"/>
				<stop  offset="0.8663" style="stop-color:#FBCC31"/>
			</linearGradient>
			
				<ellipse style="opacity:0.2222;fill:url(#SVGID_00000061470987108503767550000013627161520034020510_);" cx="-598.01" cy="-484.89" rx="20.91" ry="20.85"/>
			
				<linearGradient id="SVGID_00000139973199465934244030000006397681825887174335_" gradientUnits="userSpaceOnUse" x1="-598.0085" y1="-502.1587" x2="-598.0085" y2="-467.0213">
				<stop  offset="0.3332" style="stop-color:#FCFCF5"/>
				<stop  offset="0.8663" style="stop-color:#FBCC31"/>
			</linearGradient>
			
				<ellipse style="opacity:0.3333;fill:url(#SVGID_00000139973199465934244030000006397681825887174335_);" cx="-598.01" cy="-484.89" rx="20.45" ry="20.39"/>
			
				<linearGradient id="SVGID_00000016065902378385563400000010047796963719202973_" gradientUnits="userSpaceOnUse" x1="-598.0085" y1="-501.7737" x2="-598.0085" y2="-467.4196">
				<stop  offset="0.3332" style="stop-color:#FCFCF5"/>
				<stop  offset="0.8663" style="stop-color:#FBCC31"/>
			</linearGradient>
			
				<ellipse style="opacity:0.4444;fill:url(#SVGID_00000016065902378385563400000010047796963719202973_);" cx="-598.01" cy="-484.89" rx="19.99" ry="19.94"/>
			
				<linearGradient id="SVGID_00000167397322443816449580000007460490493942767797_" gradientUnits="userSpaceOnUse" x1="-598.0085" y1="-501.3887" x2="-598.0085" y2="-467.8179">
				<stop  offset="0.3332" style="stop-color:#FCFCF5"/>
				<stop  offset="0.8663" style="stop-color:#FBCC31"/>
			</linearGradient>
			
				<ellipse style="opacity:0.5556;fill:url(#SVGID_00000167397322443816449580000007460490493942767797_);" cx="-598.01" cy="-484.89" rx="19.54" ry="19.48"/>
			
				<linearGradient id="SVGID_00000183940213712310387370000005074274962963246271_" gradientUnits="userSpaceOnUse" x1="-598.0085" y1="-501.0037" x2="-598.0085" y2="-468.2162">
				<stop  offset="0.3332" style="stop-color:#FCFCF5"/>
				<stop  offset="0.8663" style="stop-color:#FBCC31"/>
			</linearGradient>
			
				<ellipse style="opacity:0.6667;fill:url(#SVGID_00000183940213712310387370000005074274962963246271_);" cx="-598.01" cy="-484.89" rx="19.08" ry="19.03"/>
			
				<linearGradient id="SVGID_00000084489797244599425590000003866301980282087829_" gradientUnits="userSpaceOnUse" x1="-598.0085" y1="-500.6187" x2="-598.0085" y2="-468.6146">
				<stop  offset="0.3332" style="stop-color:#FCFCF5"/>
				<stop  offset="0.8663" style="stop-color:#FBCC31"/>
			</linearGradient>
			
				<ellipse style="opacity:0.7778;fill:url(#SVGID_00000084489797244599425590000003866301980282087829_);" cx="-598.01" cy="-484.89" rx="18.63" ry="18.57"/>
			
				<linearGradient id="SVGID_00000042012122593018347280000013247264194135150259_" gradientUnits="userSpaceOnUse" x1="-598.0085" y1="-500.2336" x2="-598.0085" y2="-469.0129">
				<stop  offset="0.3332" style="stop-color:#FCFCF5"/>
				<stop  offset="0.8663" style="stop-color:#FBCC31"/>
			</linearGradient>
			
				<ellipse style="opacity:0.8889;fill:url(#SVGID_00000042012122593018347280000013247264194135150259_);" cx="-598.01" cy="-484.89" rx="18.17" ry="18.12"/>
			
				<linearGradient id="SVGID_00000090296459988854918150000006526490284688820393_" gradientUnits="userSpaceOnUse" x1="-598.0085" y1="-499.8486" x2="-598.0085" y2="-469.4112">
				<stop  offset="0.3332" style="stop-color:#FCFCF5"/>
				<stop  offset="0.8663" style="stop-color:#FBCC31"/>
			</linearGradient>
			
				<ellipse style="fill:url(#SVGID_00000090296459988854918150000006526490284688820393_);" cx="-598.01" cy="-484.89" rx="17.71" ry="17.66"/>
		</g>
	</g>
</g>
<g id="DESIGNED_BY_FREEPIK">
</g>
</svg>
