<svg width="280" height="220" viewBox="0 0 280 220" fill="none" xmlns="http://www.w3.org/2000/svg">
<path d="M79.5 195.5L95 200.5L94 198L93.5 196L94.5 193L96.5 190.5L100 194L99.5 202.5L116.5 207.5L115 205V200H118.5L121 202.5L124.5 208L141 207.5L137 204V198H138.5L145 202V208H159L163.5 206.5L162.5 205.5L159.5 202.5L160 199H165L166.5 200L171 204.5L175 203L181 199.5L185 197.5L183.5 197C182.5 195.833 180.4 193.5 180 193.5C179.6 193.5 179.167 190.833 179 189.5H181C181.833 189.333 183.7 189.1 184.5 189.5C185.3 189.9 188.167 194 189.5 196L198.5 192L207.5 188L204.5 187.5L201.5 185L200 183L201 181H203.5L204 180H208.5L213 182.5C213.5 182 214.5 180.9 214.5 180.5C214.5 180 215.5 179 216 178.5C216.4 178.1 218.833 176 220 175L223 171L222.5 170H219L217 169L215.5 167.5L213.5 165L215.5 163H220L223 164L226.5 167L230 163L236 155L238 152L234 152.5L229.5 152V150L234.5 146L240 145.5L240.5 144C241 141.833 242.1 137.5 242.5 137.5C242.9 137.5 243.333 133.5 243.5 131.5L244 129L242.5 130L238 131L234 130L233.5 128.5L237 125H245L246 122L247 119.5V117L249 116.5L251 117.5L254.5 127H253L251 124.5L248 123L245 134.5L247 135L248.5 135.5L251.5 139L252 144L250 146L246 144.5L244.5 140L242.5 146.5L239.5 154L234 162L235.5 163.5L237.5 168.5L236 171.5L234.5 173.5L232 172.5L230.5 166L222 175.5L224.5 177.5L226 182.5L225.5 184.5L223 188H220.5L218.5 186L218 180.5L215.5 184L206.5 190.5L198.5 195L199 199.5C198.833 200.167 198.5 201.6 198.5 202C198.5 202.4 196.167 204.167 195 205H193.5C193.5 204.5 193.4 203.3 193 202.5C192.6 201.7 191.833 201.167 191.5 201L193.5 197L182 202L182.5 203.5L183 209L181.5 210.5L178.5 213L176 213.5L175 210.5L176.5 204L170.5 207.5L162.5 209.5L154 210L153 214.5L150.5 216.5C149.667 216.833 147.9 217.5 147.5 217.5H146L145.5 216L146.5 214L147 212.5L148 210H147H141H137C136.667 210.167 136 210.6 136 211C136 211.4 135.667 214.5 135.5 216L132 218L126 218.5L127 215.5L129 211H128H119.5L115.5 210L106 208L102.5 212.5L97.5 213L95.5 212L98.5 208L100.5 206L99 205L93 203.5L90 201.5L88.5 205.5L84.5 207L81.5 207.5L77.5 206L80.5 202L84.5 199.5L68.5 192.5L62.5 188L57 190L54 189L52 188L51.5 186.5L55 184.5L58.5 184V183L58 182.5L57 181.5L56 181L55 179L52.5 177L51 175H50L47.1662 178H42L37.5 175V173.5L40.5 171.5H45.5L46 170.5L39 163.5L36.5 159.5L35 156L33 151H27L25.5 150.5L24 148L23 146L23.5 145L25 144H26L29 144.5L33 146L36.5 155.5L40 160V156L43 152H44.5L47 155V160L43.5 164.5L55.5 177V172.5L60.5 167L62 168V174L58 180.5L64.5 186.5L73 192V190.5V186.5L74.5 183.5L75 184L78 185.5L79.5 188.5V195.5Z" fill="#024301"/>
<path d="M20 80C20.3333 78.6667 21 75.9 21 75.5C21 75.1 22 73.6667 22.5 73L24.5 75L26.5 76.5L26 77.5L30 76.5C30.1667 75.3333 30.5 72.9 30.5 72.5C30.5 72.1 31.8333 69.6667 32.5 68.5L34.5 65.5L37.5 59.5C38.1667 58.6667 39.4 57 39 57C38.6 57 36.8333 55 36 54V49.5L37.5 48H39.5L41 50L41.5 52L42 54C43.5 52.3333 46.6 48.9 47 48.5C47.4 48.1 49.5 45.6667 50.5 44.5L47.5 42L46.5 38.5L47.5 35.5L50.5 31L53 32.5C53.1667 33.1667 53.5 34.6 53.5 35C53.5 35.4 53.8333 37.5 54 38.5L55.5 40L58.5 36L65.5 29L73.5 25.5L72.5 22.5L73.5 19.5L76.5 15.5L78.5 15L79.5 18.5V21L78.5 23L82.5 21.5L85 20L89 19.5L90 18.5L89 16.5L88.5 15L89.5 10.5L91.5 8L94.5 6.5H96.5V9C96.3333 10 96 12.1 96 12.5C96 12.9 95.3333 14.6667 95 15.5L97.5 14.5L102 13L111.5 10.5L114 11L118 10.5H119L118.5 6L124.5 3H126.5L128 3.5L127 6L125.5 7.5L125 9L124 9.5L129.5 10.5L133 10H135H137L138 4.5L141 1.5L143.5 1H145.5L147.5 3.5L145.5 5.5L142.5 9L142 9.5L155.5 10L161.5 11L165.5 12.5H167L167.5 9.5L168.5 8.5L172.5 7.5L175.5 8L176.5 8.5L175.5 10.5C175.5 10.8333 175.4 11.6 175 12C174.6 12.4 172.5 13.5 171.5 14L182.5 19L184.5 16.5L185.5 14L188 13L191 13.5L194 14L195 15L194.5 17C193.833 17.3333 192.5 18.1 192.5 18.5C192.5 18.9 190.833 20 190 20.5L189 21.5L192 22.5L197 24.5L200 26.5L207 30L210 32.5L214 30.5H216.5L220.5 32.5L221 34L218 35.5L213 36L214.5 37.5L222.5 45.5L227.5 42L230 42.5L232.5 43.5L234.5 46L234 48L226.5 49.5L229.5 52L238.5 65.5L239.5 68.5L241 70H245L247.5 71L250 74V75.5L238.5 76.5L238 71L236.5 66.5L235.5 65L233.5 61.5L229 69L227.5 68L226.5 66V59.5L229 56L217 44V49L213 53H211L210.5 51.5L210 46.5L213 42.5L214.5 40.5L207.5 34.5L199.5 29V34.5L198.5 37H196L193.5 33.5V25.5L183 22L177.5 19.5L179 23.5L177 30H175.5L172.5 26L173 19.5L173.5 18L158.5 12.5H155L158 16V21H155L148.5 15V12H130.5L134 14.5L135.5 18.5L135 23H133L130.5 21.5L127 17L126.5 12L112.5 13L107.5 14L112.5 17.5L113 20.5L111.5 21.5H108L106 21L101.5 16L87 22.5L92 26.5L93 29.5V32L89 31.5L84.5 28.5L82.5 25L76.5 27L70 29.5L65 33L72.5 36.5L70.5 39.5L65 40L60.5 38L49.5 50.5L56 52.5L58 55L57.5 57.5L50.5 57L47 54.5L46.5 54L45.5 53.5L35 67.5L34.5 69.5L38 68L41.5 68.5L43 69.5L41.5 72.5L37 75H32V76.5H30L26 77.5L20 80Z" fill="#024301"/>
<path d="M251 76.5L250 75.5M254.5 127H253L251 124.5L248 123L245 134.5L247 135L248.5 135.5L251.5 139L252 144L250 146L246 144.5L244.5 140L242.5 146.5L239.5 154L234 162L235.5 163.5L237.5 168.5L236 171.5L234.5 173.5L232 172.5L230.5 166L222 175.5L224.5 177.5L226 182.5L225.5 184.5L223 188H220.5L218.5 186L218 180.5L215.5 184L206.5 190.5L198.5 195L199 199.5C198.833 200.167 198.5 201.6 198.5 202C198.5 202.4 196.167 204.167 195 205H193.5C193.5 204.5 193.4 203.3 193 202.5C192.6 201.7 191.833 201.167 191.5 201L193.5 197L182 202L182.5 203.5L183 209L181.5 210.5L178.5 213L176 213.5L175 210.5L176.5 204L170.5 207.5L162.5 209.5L154 210L153 214.5L150.5 216.5C149.667 216.833 147.9 217.5 147.5 217.5C147.1 217.5 146.333 217.5 146 217.5L145.5 216L146.5 214L147 212.5L148 210H147H141H137C136.667 210.167 136 210.6 136 211C136 211.4 135.667 214.5 135.5 216L132 218L126 218.5L127 215.5L129 211H128H119.5L115.5 210L106 208L102.5 212.5L97.5 213L95.5 212L98.5 208L100.5 206L99 205L93 203.5L90 201.5L88.5 205.5L84.5 207L81.5 207.5L77.5 206L80.5 202L84.5 199.5L68.5 192.5L62.5 188L57 190L54 189L52 188L51.5 186.5L55 184.5L58.5 184V183L58 182.5L57 181.5L56 181L55 179L52.5 177L51 175H50L47.1662 178H42L37.5 175V173.5L40.5 171.5H45.5L46 170.5L39 163.5L36.5 159.5L35 156L33 151H27L25.5 150.5L24 148L23 146L23.5 145L25 144H26L29 144.5L33 146L36.5 155.5L40 160V156L43 152H44.5L47 155V160L43.5 164.5L55.5 177V172.5L60.5 167L62 168V174L58 180.5L64.5 186.5L73 192V190.5V186.5L74.5 183.5L75 184L78 185.5L79.5 188.5V195.5L95 200.5L94 198L93.5 196L94.5 193L96.5 190.5L100 194L99.5 202.5L116.5 207.5L115 205V200H118.5L121 202.5L124.5 208L141 207.5L137 204V198H138.5L145 202V208H159L163.5 206.5L162.5 205.5L159.5 202.5L160 199H165L166.5 200L171 204.5L175 203L181 199.5L185 197.5L183.5 197C182.5 195.833 180.4 193.5 180 193.5C179.6 193.5 179.167 190.833 179 189.5H181C181.833 189.333 183.7 189.1 184.5 189.5C185.3 189.9 188.167 194 189.5 196L198.5 192L207.5 188L204.5 187.5L201.5 185L200 183L201 181H203.5L204 180H208.5L213 182.5C213.5 182 214.5 180.9 214.5 180.5C214.5 180 215.5 179 216 178.5C216.4 178.1 218.833 176 220 175L223 171L222.5 170H219L217 169L215.5 167.5L213.5 165L215.5 163H220L223 164L226.5 167L230 163L236 155L238 152L234 152.5L229.5 152V150L234.5 146L240 145.5L240.5 144C241 141.833 242.1 137.5 242.5 137.5C242.9 137.5 243.333 133.5 243.5 131.5L244 129L242.5 130L238 131L234 130L233.5 128.5L237 125H245L246 122L247 119.5V117L249 116.5L251 117.5L254.5 127ZM254.5 127H254.98M26 77.5L26.5 76.5L24.5 75L22.5 73C22 73.6667 21 75.1 21 75.5C21 75.9 20.3333 78.6667 20 80L26 77.5ZM26 77.5L30 76.5M30 76.5C30.1667 75.3333 30.5 72.9 30.5 72.5C30.5 72.1 31.8333 69.6667 32.5 68.5L34.5 65.5L37.5 59.5C38.1667 58.6667 39.4 57 39 57C38.6 57 36.8333 55 36 54V49.5L37.5 48H39.5L41 50L41.5 52L42 54C43.5 52.3333 46.6 48.9 47 48.5C47.4 48.1 49.5 45.6667 50.5 44.5L47.5 42L46.5 38.5L47.5 35.5L50.5 31L53 32.5C53.1667 33.1667 53.5 34.6 53.5 35C53.5 35.4 53.8333 37.5 54 38.5L55.5 40L58.5 36L65.5 29L73.5 25.5L72.5 22.5L73.5 19.5L76.5 15.5L78.5 15L79.5 18.5V21L78.5 23L82.5 21.5L85 20L89 19.5L90 18.5L89 16.5L88.5 15L89.5 10.5L91.5 8L94.5 6.5H96.5V9C96.3333 10 96 12.1 96 12.5C96 12.9 95.3333 14.6667 95 15.5L97.5 14.5L102 13L111.5 10.5L114 11L118 10.5H119L118.5 6L124.5 3H126.5L128 3.5L127 6L125.5 7.5L125 9L124 9.5L129.5 10.5L133 10H135H137L138 4.5L141 1.5L143.5 1H145.5L147.5 3.5L145.5 5.5L142.5 9L142 9.5L155.5 10L161.5 11L165.5 12.5H167L167.5 9.5L168.5 8.5L172.5 7.5L175.5 8L176.5 8.5L175.5 10.5C175.5 10.8333 175.4 11.6 175 12C174.6 12.4 172.5 13.5 171.5 14L182.5 19L184.5 16.5L185.5 14L188 13L191 13.5L194 14L195 15L194.5 17C193.833 17.3333 192.5 18.1 192.5 18.5C192.5 18.9 190.833 20 190 20.5L189 21.5L192 22.5L197 24.5L200 26.5L207 30L210 32.5L214 30.5H216.5L220.5 32.5L221 34L218 35.5L213 36L214.5 37.5L222.5 45.5L227.5 42L230 42.5L232.5 43.5L234.5 46L234 48L226.5 49.5L229.5 52L238.5 65.5L239.5 68.5L241 70H245L247.5 71L250 74V75.5M30 76.5H32V75H37L41.5 72.5L43 69.5L41.5 68.5L38 68L34.5 69.5L35 67.5L45.5 53.5L46.5 54L47 54.5L50.5 57L57.5 57.5L58 55L56 52.5L49.5 50.5L60.5 38L65 40L70.5 39.5L72.5 36.5L65 33L70 29.5L76.5 27L82.5 25L84.5 28.5L89 31.5L93 32V29.5L92 26.5L87 22.5L101.5 16L106 21L108 21.5H111.5L113 20.5L112.5 17.5L107.5 14L112.5 13L126.5 12L127 17L130.5 21.5L133 23H135L135.5 18.5L134 14.5L130.5 12H148.5V15L155 21H158V16L155 12.5H158.5L173.5 18L173 19.5L172.5 26L175.5 30H177L179 23.5L177.5 19.5L183 22L193.5 25.5V33.5L196 37H198.5L199.5 34.5V29L207.5 34.5L214.5 40.5L213 42.5L210 46.5L210.5 51.5L211 53H213L217 49V44L229 56L226.5 59.5V66L227.5 68L229 69L233.5 61.5L235.5 65L236.5 66.5L238 71L238.5 76.5L250 75.5" stroke="black"/>
<path d="M85 76.5V144.5H98.5V101L127.5 144.5H143.5L98.5 76.5H85Z" fill="#F54B16" stroke="black"/>
<path d="M130 77V110L143.5 129.5V77H130Z" fill="#F54B16" stroke="black"/>
<path d="M157 76.5V145H171.5V122V88H190.5L196.5 90.5L197.5 96V103.5L196.5 109.5L192 112V121L201 118L208 111L210 103.5V96L208 88L205 83.5L200 79.5L196.5 78L190.5 76.5H157Z" fill="#F54B16" stroke="black"/>
<path d="M235 77L208 145.5H224L242 93.5L262 145.5H278.5L251.5 77H235Z" fill="#F54B16" stroke="black"/>
<path d="M67.5 111C67.5 125.801 54.6905 138.5 38 138.5C21.3095 138.5 8.5 125.801 8.5 111C8.5 96.1994 21.3095 83.5 38 83.5C54.6905 83.5 67.5 96.1994 67.5 111Z" stroke="#F54B16" stroke-width="15"/>
<path d="M59.5 111.5C59.5 122.513 49.908 131.5 38 131.5C26.092 131.5 16.5 122.513 16.5 111.5C16.5 100.487 26.092 91.5 38 91.5C49.908 91.5 59.5 100.487 59.5 111.5Z" stroke="black"/>
<path d="M75.5 111C75.5 130.016 58.7502 145.5 38 145.5C17.2498 145.5 0.5 130.016 0.5 111C0.5 91.9841 17.2498 76.5 38 76.5C58.7502 76.5 75.5 91.9841 75.5 111Z" stroke="black"/>
</svg>
